<svg width="40" height="40" viewBox="0 0 40 40" fill="none" xmlns="http://www.w3.org/2000/svg">
<path d="M27.5759 31.0355V30.288C27.5762 30.1626 27.569 27.2029 26.1411 25.6211C25.6513 25.0786 25.0593 24.542 24.4866 24.0232C23.0798 22.7484 21.6252 21.4305 21.6252 20C21.6252 18.5695 23.0801 17.2513 24.4866 15.9768C25.0593 15.458 25.6516 14.9211 26.1411 14.3789C27.569 12.7971 27.5762 9.83744 27.5759 9.71351V8.9645C27.9578 8.95091 28.3195 8.78898 28.5851 8.51275C28.8507 8.23652 28.9994 7.86751 29 7.4833C28.9995 7.09 28.8439 6.71295 28.5673 6.43487C28.2907 6.15679 27.9157 6.0004 27.5246 6H12.4754C12.0843 6.00048 11.7094 6.1569 11.4328 6.43496C11.1562 6.71302 11.0006 7.09003 11 7.4833C11.0006 7.86751 11.1493 8.23652 11.4149 8.51275C11.6805 8.78898 12.0422 8.95091 12.4241 8.9645V9.71201C12.4238 9.83744 12.431 12.7968 13.8589 14.3789C14.3487 14.9214 14.9407 15.458 15.5137 15.9768C16.9205 17.2513 18.3751 18.5695 18.3751 20C18.3751 21.4305 16.9202 22.7484 15.5137 24.0232C14.941 24.542 14.3487 25.0789 13.8589 25.6211C12.4313 27.2029 12.4238 30.1626 12.4241 30.2862V31.0355C12.0422 31.049 11.6804 31.2109 11.4148 31.4872C11.1492 31.7634 11.0005 32.1325 11 32.5167C11.0005 32.91 11.1561 33.2871 11.4327 33.5651C11.7093 33.8432 12.0843 33.9996 12.4754 34H27.5246C27.9157 33.9995 28.2906 33.8431 28.5672 33.565C28.8438 33.287 28.9994 32.91 29 32.5167C28.9995 32.1325 28.8508 31.7634 28.5852 31.4872C28.3196 31.2109 27.9578 31.049 27.5759 31.0355ZM13.422 9.71351V8.96721H26.578V9.71471C26.578 9.73391 26.5729 11.1035 26.1443 12.3551H13.8557C13.4271 11.1032 13.422 9.73331 13.422 9.71351ZM11.9979 7.4833C11.9979 7.21833 12.2122 7.00317 12.4757 7.00317H27.5249C27.6495 7.0063 27.7679 7.05828 27.855 7.14801C27.942 7.23774 27.9907 7.35811 27.9907 7.48345C27.9907 7.60879 27.942 7.72917 27.855 7.8189C27.7679 7.90863 27.6495 7.9606 27.5249 7.96373H12.4754C12.2119 7.96373 11.9979 7.74827 11.9979 7.4833ZM16.1816 15.2311C15.6018 14.7057 15.0538 14.2093 14.5979 13.704C14.5011 13.5956 14.4126 13.4801 14.3331 13.3583H20.0002H25.6672C25.5877 13.4801 25.4992 13.5956 25.4024 13.704C24.9464 14.2093 24.3985 14.7057 23.8187 15.2311C22.6808 16.2625 21.5175 17.32 20.963 18.5389C20.6139 18.8639 20.2686 19.0226 19.9358 19.0067C19.4909 18.9854 19.1513 18.6676 19.0471 18.5587C18.4956 17.3314 17.3261 16.2679 16.1816 15.2311ZM14.5979 26.2954C15.0538 25.7904 15.6018 25.294 16.1816 24.7686C17.7507 23.3468 19.373 21.877 19.373 20C19.373 19.9709 19.3691 19.943 19.3685 19.9142C19.5682 19.9782 19.7764 20.011 19.986 20.0114C20.2044 20.0114 20.4199 19.9748 20.6321 19.9043C20.6312 19.9361 20.6267 19.9676 20.6267 20C20.6267 21.877 22.2493 23.3468 23.8181 24.7689C24.3979 25.2943 24.9459 25.7907 25.4019 26.2957C26.5681 27.5879 26.5777 30.2586 26.5777 30.2865V31.0331H26.4845C26.4714 31.0226 26.4598 31.0106 26.4455 31.001L20.2755 26.8953C20.1949 26.8417 20.1007 26.8127 20.0041 26.8119C19.9075 26.8111 19.8128 26.8385 19.7314 26.8908L13.422 30.9467V30.2853C13.422 30.2586 13.4316 27.5876 14.5979 26.2954ZM24.6856 31.0331H15.1401L19.9952 27.9122L24.6856 31.0331ZM27.5246 32.9968H12.4754C12.3488 32.9967 12.2274 32.9461 12.1378 32.8561C12.0482 32.7661 11.9978 32.644 11.9976 32.5167C11.9976 32.2517 12.2119 32.0363 12.4754 32.0363H27.5246C27.6492 32.0394 27.7676 32.0914 27.8547 32.1811C27.9417 32.2708 27.9904 32.3912 27.9904 32.5165C27.9904 32.6419 27.9417 32.7623 27.8547 32.852C27.7676 32.9417 27.6492 32.9937 27.5246 32.9968Z" fill="#754FFE"/>
</svg>
