<svg width="24" height="24" viewBox="0 0 24 24" fill="none" xmlns="http://www.w3.org/2000/svg">
<g clip-path="url(#clip0_1213_6260)">
<path d="M23.6002 11.9999C23.6002 18.6527 18.0042 23.9947 11.261 23.5771C5.48336 23.2191 0.780958 18.5167 0.423358 12.7391C0.00535828 5.99592 5.34736 0.399919 12.0002 0.399919C13.7665 0.396888 15.5099 0.799356 17.0962 1.57632C17.5086 1.77872 17.6598 2.29232 17.4322 2.69152L17.4306 2.69432C17.3292 2.87147 17.164 3.00315 16.9687 3.06235C16.7734 3.12156 16.5628 3.1038 16.3802 3.01272C14.853 2.26072 13.107 1.89472 11.2642 2.02632C6.42416 2.37152 2.47136 6.25352 2.04056 11.0867C1.50456 17.1023 6.32536 22.1515 12.2658 21.9963C17.353 21.8635 21.5994 17.8291 21.9718 12.7539C22.0688 11.4802 21.9196 10.1996 21.5322 8.98232C21.4749 8.80155 21.4843 8.60628 21.5586 8.43182C21.6328 8.25736 21.767 8.11522 21.937 8.03112C22.3746 7.81232 22.911 8.03112 23.0594 8.49712C23.4188 9.62993 23.6015 10.8115 23.6002 11.9999Z" fill="#78D387"/>
<path d="M6.16414 8.9887L12.4897 17.5475C12.5987 17.6963 12.7432 17.8155 12.91 17.8942C13.0768 17.9729 13.2607 18.0086 13.4449 17.998C13.629 17.9874 13.8076 17.9309 13.9643 17.8337C14.121 17.7364 14.2509 17.6014 14.3421 17.4411L23.4829 1.6179C23.9589 0.793896 22.8729 -0.0345042 22.2253 0.659096L12.7021 10.8599L7.17654 7.8015C6.42974 7.3883 5.65374 8.2979 6.16414 8.9887Z" fill="#6BB577"/>
</g>
<defs>
<clipPath id="clip0_1213_6260">
<rect width="24" height="24" fill="white"/>
</clipPath>
</defs>
</svg>
