<svg width="29" height="28" viewBox="0 0 29 28" fill="none" xmlns="http://www.w3.org/2000/svg">
<g clip-path="url(#clip0_1509_6904)">
<path d="M27.1875 7H19.9375C18.9382 7 18.125 6.21483 18.125 5.25V1.75C18.125 0.785167 18.9382 0 19.9375 0H27.1875C28.1868 0 29 0.785167 29 1.75V5.25C29 6.21483 28.1868 7 27.1875 7ZM19.9375 1.16667C19.7773 1.16667 19.6236 1.22812 19.5103 1.33752C19.397 1.44692 19.3333 1.59529 19.3333 1.75V5.25C19.3333 5.40471 19.397 5.55308 19.5103 5.66248C19.6236 5.77187 19.7773 5.83333 19.9375 5.83333H27.1875C27.3477 5.83333 27.5014 5.77187 27.6147 5.66248C27.728 5.55308 27.7917 5.40471 27.7917 5.25V1.75C27.7917 1.59529 27.728 1.44692 27.6147 1.33752C27.5014 1.22812 27.3477 1.16667 27.1875 1.16667H19.9375ZM27.1875 17.5H19.9375C18.9382 17.5 18.125 16.7148 18.125 15.75V12.25C18.125 11.2852 18.9382 10.5 19.9375 10.5H27.1875C28.1868 10.5 29 11.2852 29 12.25V15.75C29 16.7148 28.1868 17.5 27.1875 17.5ZM19.9375 11.6667C19.7773 11.6667 19.6236 11.7281 19.5103 11.8375C19.397 11.9469 19.3333 12.0953 19.3333 12.25V15.75C19.3333 15.9047 19.397 16.0531 19.5103 16.1625C19.6236 16.2719 19.7773 16.3333 19.9375 16.3333H27.1875C27.3477 16.3333 27.5014 16.2719 27.6147 16.1625C27.728 16.0531 27.7917 15.9047 27.7917 15.75V12.25C27.7917 12.0953 27.728 11.9469 27.6147 11.8375C27.5014 11.7281 27.3477 11.6667 27.1875 11.6667H19.9375ZM27.1875 28H19.9375C18.9382 28 18.125 27.2148 18.125 26.25V22.75C18.125 21.7852 18.9382 21 19.9375 21H27.1875C28.1868 21 29 21.7852 29 22.75V26.25C29 27.2148 28.1868 28 27.1875 28ZM19.9375 22.1667C19.7773 22.1667 19.6236 22.2281 19.5103 22.3375C19.397 22.4469 19.3333 22.5953 19.3333 22.75V26.25C19.3333 26.4047 19.397 26.5531 19.5103 26.6625C19.6236 26.7719 19.7773 26.8333 19.9375 26.8333H27.1875C27.3477 26.8333 27.5014 26.7719 27.6147 26.6625C27.728 26.5531 27.7917 26.4047 27.7917 26.25V22.75C27.7917 22.5953 27.728 22.4469 27.6147 22.3375C27.5014 22.2281 27.3477 22.1667 27.1875 22.1667H19.9375ZM15.1042 2.33333H0.604167C0.443932 2.33333 0.29026 2.27188 0.176956 2.16248C0.0636531 2.05308 0 1.90471 0 1.75C0 1.59529 0.0636531 1.44692 0.176956 1.33752C0.29026 1.22812 0.443932 1.16667 0.604167 1.16667H15.1042C15.2644 1.16667 15.4181 1.22812 15.5314 1.33752C15.6447 1.44692 15.7083 1.59529 15.7083 1.75C15.7083 1.90471 15.6447 2.05308 15.5314 2.16248C15.4181 2.27188 15.2644 2.33333 15.1042 2.33333ZM15.1042 5.83333H0.604167C0.443932 5.83333 0.29026 5.77187 0.176956 5.66248C0.0636531 5.55308 0 5.40471 0 5.25C0 5.09529 0.0636531 4.94692 0.176956 4.83752C0.29026 4.72812 0.443932 4.66667 0.604167 4.66667H15.1042C15.2644 4.66667 15.4181 4.72812 15.5314 4.83752C15.6447 4.94692 15.7083 5.09529 15.7083 5.25C15.7083 5.40471 15.6447 5.55308 15.5314 5.66248C15.4181 5.77187 15.2644 5.83333 15.1042 5.83333ZM15.1042 12.8333H0.604167C0.443932 12.8333 0.29026 12.7719 0.176956 12.6625C0.0636531 12.5531 0 12.4047 0 12.25C0 12.0953 0.0636531 11.9469 0.176956 11.8375C0.29026 11.7281 0.443932 11.6667 0.604167 11.6667H15.1042C15.2644 11.6667 15.4181 11.7281 15.5314 11.8375C15.6447 11.9469 15.7083 12.0953 15.7083 12.25C15.7083 12.4047 15.6447 12.5531 15.5314 12.6625C15.4181 12.7719 15.2644 12.8333 15.1042 12.8333ZM15.1042 16.3333H0.604167C0.443932 16.3333 0.29026 16.2719 0.176956 16.1625C0.0636531 16.0531 0 15.9047 0 15.75C0 15.5953 0.0636531 15.4469 0.176956 15.3375C0.29026 15.2281 0.443932 15.1667 0.604167 15.1667H15.1042C15.2644 15.1667 15.4181 15.2281 15.5314 15.3375C15.6447 15.4469 15.7083 15.5953 15.7083 15.75C15.7083 15.9047 15.6447 16.0531 15.5314 16.1625C15.4181 16.2719 15.2644 16.3333 15.1042 16.3333ZM15.1042 23.3333H0.604167C0.443932 23.3333 0.29026 23.2719 0.176956 23.1625C0.0636531 23.0531 0 22.9047 0 22.75C0 22.5953 0.0636531 22.4469 0.176956 22.3375C0.29026 22.2281 0.443932 22.1667 0.604167 22.1667H15.1042C15.2644 22.1667 15.4181 22.2281 15.5314 22.3375C15.6447 22.4469 15.7083 22.5953 15.7083 22.75C15.7083 22.9047 15.6447 23.0531 15.5314 23.1625C15.4181 23.2719 15.2644 23.3333 15.1042 23.3333ZM15.1042 26.8333H0.604167C0.443932 26.8333 0.29026 26.7719 0.176956 26.6625C0.0636531 26.5531 0 26.4047 0 26.25C0 26.0953 0.0636531 25.9469 0.176956 25.8375C0.29026 25.7281 0.443932 25.6667 0.604167 25.6667H15.1042C15.2644 25.6667 15.4181 25.7281 15.5314 25.8375C15.6447 25.9469 15.7083 26.0953 15.7083 26.25C15.7083 26.4047 15.6447 26.5531 15.5314 26.6625C15.4181 26.7719 15.2644 26.8333 15.1042 26.8333Z" fill="#754FFE"/>
</g>
<defs>
<clipPath id="clip0_1509_6904">
<rect width="29" height="28" fill="white"/>
</clipPath>
</defs>
</svg>
