<svg width="40" height="40" viewBox="0 0 40 40" fill="none" xmlns="http://www.w3.org/2000/svg">
<path d="M32.744 9.44482H6.2559C5.56327 9.44482 5 10.0081 5 10.7007V29.1383C5 29.831 5.56327 30.3942 6.2559 30.3942H32.744C33.4366 30.3942 33.9999 29.831 33.9999 29.1383V10.7007C33.9999 10.0081 33.4366 9.44482 32.744 9.44482ZM33.3148 29.1383C33.3148 29.4531 33.0588 29.7091 32.744 29.7091H6.2559C5.94105 29.7091 5.68504 29.4531 5.68504 29.1383V10.7007C5.68504 10.3859 5.94105 10.1299 6.2559 10.1299H32.744C33.0588 10.1299 33.3148 10.3859 33.3148 10.7007V29.1383Z" fill="#754FFE"/>
<path d="M31.3736 14.0117C30.3032 14.0117 29.4326 13.1411 29.4326 12.0708C29.4326 11.9799 29.3965 11.8928 29.3323 11.8286C29.2681 11.7644 29.181 11.7283 29.0901 11.7283H9.90914C9.81831 11.7283 9.7312 11.7644 9.66698 11.8286C9.60275 11.8928 9.56666 11.9799 9.56664 12.0708C9.56664 13.1411 8.69606 14.0117 7.6257 14.0117C7.53487 14.0117 7.44776 14.0478 7.38353 14.112C7.31931 14.1763 7.28322 14.2634 7.2832 14.3542V25.4843C7.28322 25.5751 7.31931 25.6622 7.38353 25.7264C7.44776 25.7906 7.53487 25.8267 7.6257 25.8268C8.69606 25.8268 9.56664 26.6973 9.56664 27.7677C9.56666 27.8585 9.60275 27.9456 9.66698 28.0099C9.7312 28.0741 9.81831 28.1102 9.90914 28.1102H29.0901C29.181 28.1102 29.2681 28.0741 29.3323 28.0099C29.3965 27.9456 29.4326 27.8585 29.4326 27.7677C29.4326 26.6973 30.3032 25.8268 31.3736 25.8268C31.4644 25.8267 31.5515 25.7906 31.6157 25.7264C31.68 25.6622 31.7161 25.5751 31.7161 25.4843V14.3543C31.7161 14.2634 31.68 14.1763 31.6158 14.1121C31.5515 14.0478 31.4644 14.0117 31.3736 14.0117ZM31.0311 25.1641C29.8563 25.3175 28.9233 26.2505 28.7699 27.4252H10.2293C10.0759 26.2504 9.14289 25.3175 7.96819 25.1641V14.6745C9.14295 14.5211 10.0759 13.588 10.2293 12.4133H28.7699C28.9233 13.5881 29.8563 14.5211 31.031 14.6745V25.1641H31.0311Z" fill="#754FFE"/>
<path d="M23.1584 24.8099H15.8411C15.7513 24.8115 15.6658 24.8484 15.603 24.9124C15.5401 24.9765 15.5049 25.0626 15.5049 25.1524C15.5049 25.2421 15.5401 25.3283 15.603 25.3923C15.6658 25.4564 15.7513 25.4932 15.8411 25.4949H23.1584C23.2481 25.4932 23.3336 25.4564 23.3965 25.3923C23.4593 25.3283 23.4946 25.2421 23.4946 25.1524C23.4946 25.0626 23.4593 24.9765 23.3965 24.9124C23.3336 24.8484 23.2481 24.8115 23.1584 24.8099ZM26.4137 22.6754H12.5858C12.4961 22.677 12.4106 22.7139 12.3478 22.7779C12.2849 22.842 12.2497 22.9281 12.2497 23.0179C12.2497 23.1076 12.2849 23.1938 12.3478 23.2578C12.4106 23.3219 12.4961 23.3587 12.5858 23.3604H26.4137C26.5034 23.3587 26.5889 23.3219 26.6518 23.2578C26.7146 23.1938 26.7498 23.1076 26.7498 23.0179C26.7498 22.9281 26.7146 22.842 26.6518 22.7779C26.5889 22.7139 26.5034 22.677 26.4137 22.6754ZM23.1584 21.2255C23.2481 21.2238 23.3336 21.187 23.3965 21.123C23.4593 21.0589 23.4946 20.9728 23.4946 20.883C23.4946 20.7933 23.4593 20.7071 23.3965 20.6431C23.3336 20.579 23.2481 20.5422 23.1584 20.5405H15.8411C15.7513 20.5422 15.6658 20.579 15.603 20.6431C15.5401 20.7071 15.5049 20.7933 15.5049 20.883C15.5049 20.9728 15.5401 21.0589 15.603 21.123C15.6658 21.187 15.7513 21.2238 15.8411 21.2255H23.1584ZM15.8411 15.0285H23.1584C23.2481 15.0268 23.3336 14.99 23.3965 14.926C23.4593 14.8619 23.4946 14.7757 23.4946 14.686C23.4946 14.5963 23.4593 14.5101 23.3965 14.446C23.3336 14.382 23.2481 14.3452 23.1584 14.3435H15.8411C15.7513 14.3452 15.6658 14.382 15.603 14.446C15.5401 14.5101 15.5049 14.5963 15.5049 14.686C15.5049 14.7757 15.5401 14.8619 15.603 14.926C15.6658 14.99 15.7513 15.0268 15.8411 15.0285ZM27.5242 16.9204H11.4748C11.3851 16.9221 11.2996 16.9589 11.2368 17.0229C11.1739 17.087 11.1387 17.1731 11.1387 17.2629C11.1387 17.3526 11.1739 17.4388 11.2368 17.5028C11.2996 17.5669 11.3851 17.6037 11.4748 17.6054H27.5241C27.6139 17.6037 27.6994 17.5669 27.7622 17.5029C27.8251 17.4388 27.8603 17.3527 27.8603 17.2629C27.8603 17.1732 27.8251 17.087 27.7623 17.0229C27.6994 16.9589 27.6139 16.9221 27.5242 16.9204Z" fill="#754FFE"/>
</svg>
