<svg width="26" height="28" viewBox="0 0 26 28" fill="none" xmlns="http://www.w3.org/2000/svg">
<path d="M15.4503 25.5894C15.2141 25.5894 15.0259 25.4013 15.0259 25.165V13.8994H10.9747V25.1606C10.9747 25.3969 10.7866 25.585 10.5503 25.585C10.3141 25.585 10.1259 25.3969 10.1259 25.1606V13.475C10.1259 13.2388 10.3141 13.0506 10.5503 13.0506H15.4503C15.6866 13.0506 15.8747 13.2388 15.8747 13.475V25.1606C15.8747 25.3969 15.6866 25.5894 15.4503 25.5894ZM8.00406 25.5894C7.76781 25.5894 7.57969 25.4013 7.57969 25.165V17.6006H3.52844V25.165C3.52844 25.4013 3.34031 25.5894 3.10406 25.5894C2.86781 25.5894 2.67969 25.4013 2.67969 25.165V17.1763C2.67969 16.94 2.86781 16.7519 3.10406 16.7519H8.00406C8.24031 16.7519 8.42844 16.94 8.42844 17.1763V25.165C8.42844 25.3969 8.24031 25.5894 8.00406 25.5894ZM22.8966 25.5894C22.6603 25.5894 22.4722 25.4013 22.4722 25.165V10.2069H18.4209V25.165C18.4209 25.4013 18.2328 25.5894 17.9966 25.5894C17.7603 25.5894 17.5722 25.4013 17.5722 25.165V9.78251C17.5722 9.54626 17.7603 9.35814 17.9966 9.35814H22.8966C23.1328 9.35814 23.3209 9.54626 23.3209 9.78251V25.165C23.3209 25.3969 23.1328 25.5894 22.8966 25.5894ZM22.9359 8.48314C22.8703 8.48314 22.8003 8.46564 22.7391 8.43501L20.4509 7.23189L18.1628 8.43501C18.0184 8.50939 17.8478 8.49626 17.7166 8.40439C17.6523 8.35784 17.6022 8.29428 17.5721 8.22086C17.542 8.14743 17.5329 8.06705 17.5459 7.98876L17.9834 5.43814L16.1284 3.63126C16.0147 3.51751 15.9709 3.35126 16.0191 3.19813C16.0672 3.04501 16.2028 2.93126 16.3603 2.90938L18.9197 2.53751L20.0659 0.21876C20.2103 -0.0699902 20.6828 -0.0699902 20.8272 0.21876L21.9734 2.53751L24.5328 2.90938C24.6947 2.93126 24.8259 3.04501 24.8741 3.19813C24.9222 3.35126 24.8828 3.52189 24.7647 3.63126L22.9141 5.43814L23.3516 7.98876C23.3778 8.14626 23.3122 8.30814 23.1809 8.40439C23.1109 8.45689 23.0234 8.48314 22.9359 8.48314ZM20.4466 6.32626C20.5166 6.32626 20.5822 6.34376 20.6434 6.37438L22.3672 7.28001L22.0391 5.35939C22.0172 5.22376 22.0609 5.07939 22.1616 4.98314L23.5572 3.62251L21.6278 3.34251C21.5597 3.33298 21.4949 3.30686 21.4392 3.26642C21.3835 3.22599 21.3386 3.17249 21.3084 3.11064L20.4466 1.36063L19.5847 3.11064C19.5234 3.23751 19.4053 3.32501 19.2653 3.34251L17.3359 3.62251L18.7316 4.98314C18.8322 5.07939 18.8759 5.21939 18.8541 5.35939L18.5259 7.28001L20.2497 6.37438C20.3109 6.34376 20.3809 6.32626 20.4466 6.32626Z" fill="#754FFE"/>
<path d="M23.8891 28.0001H2.11039C1.67759 28.0001 1.26252 27.8281 0.956481 27.5221C0.650445 27.2161 0.478516 26.801 0.478516 26.3682C0.478516 25.9354 0.650445 25.5203 0.956481 25.2143C1.26252 24.9083 1.67759 24.7363 2.11039 24.7363H23.8935C24.3263 24.7363 24.7414 24.9083 25.0474 25.2143C25.3535 25.5203 25.5254 25.9354 25.5254 26.3682C25.5237 26.8012 25.3506 27.216 25.044 27.5217C24.7374 27.8275 24.3222 27.9995 23.8891 28.0001ZM2.11039 25.5851C1.67727 25.5851 1.32727 25.9351 1.32727 26.3682C1.32727 26.8013 1.67727 27.1513 2.11039 27.1513H23.8935C24.3266 27.1513 24.6766 26.8013 24.6766 26.3682C24.6766 25.9351 24.3266 25.5851 23.8935 25.5851H2.11039Z" fill="#754FFE"/>
</svg>
