<svg width="47" height="46" viewBox="0 0 47 46" fill="none" xmlns="http://www.w3.org/2000/svg">
<path d="M20.5997 11.2089C16.2847 12.215 12.8113 15.6369 11.7506 19.9265C10.6866 24.23 11.9043 28.6164 15.0082 31.6602C16.1061 32.737 16.7617 34.4628 16.7617 36.2768V36.5664C16.7617 37.761 17.2829 38.8359 18.1094 39.5766V41.957C18.1094 44.1863 19.923 46 22.1523 46H24.8477C27.077 46 28.8906 44.1863 28.8906 41.957V39.5766C29.7171 38.8359 30.2383 37.7611 30.2383 36.5664V36.2715C30.2383 34.4851 30.9289 32.7265 32.0857 31.5672C34.3706 29.2774 35.6289 26.2348 35.6289 23C35.6289 15.2663 28.4622 9.37627 20.5997 11.2089ZM26.1953 41.957C26.1953 42.7001 25.5908 43.3047 24.8477 43.3047H22.1523C21.4092 43.3047 20.8047 42.7001 20.8047 41.957V40.6094H26.1953V41.957ZM30.1777 29.6634C28.5033 31.3414 27.543 33.7499 27.543 36.2715V36.5664C27.543 37.3095 26.9384 37.9141 26.1953 37.9141H20.8047C20.0616 37.9141 19.457 37.3095 19.457 36.5664V36.2768C19.457 33.7164 18.5233 31.3323 16.8953 29.7359C14.4794 27.3667 13.5344 23.9416 14.367 20.5735C15.1868 17.2576 17.8735 14.6121 21.2117 13.8339C27.3814 12.3952 32.9336 17.001 32.9336 23C32.9336 25.516 31.9548 27.8824 30.1777 29.6634ZM13.0177 10.6118L9.20586 6.80009C8.67964 6.27379 7.82631 6.27379 7.3 6.80009C6.7737 7.3264 6.7737 8.17964 7.3 8.70595L11.1118 12.5177C11.638 13.044 12.4914 13.044 13.0177 12.5177C13.544 11.9914 13.544 11.1381 13.0177 10.6118ZM7.32812 21.6523H1.84766C1.10339 21.6523 0.5 22.2557 0.5 23C0.5 23.7443 1.10339 24.3477 1.84766 24.3477H7.32812C8.07239 24.3477 8.67578 23.7443 8.67578 23C8.67578 22.2557 8.07239 21.6523 7.32812 21.6523ZM45.1523 21.6523H39.6719C38.9276 21.6523 38.3242 22.2557 38.3242 23C38.3242 23.7443 38.9276 24.3477 39.6719 24.3477H45.1523C45.8966 24.3477 46.5 23.7443 46.5 23C46.5 22.2557 45.8966 21.6523 45.1523 21.6523ZM39.7 6.80009C39.1739 6.27379 38.3205 6.27379 37.7941 6.80009L33.9823 10.6118C33.456 11.138 33.456 11.9914 33.9823 12.5177C34.5086 13.044 35.3619 13.044 35.8882 12.5177L39.7 8.70595C40.2263 8.17973 40.2263 7.3264 39.7 6.80009ZM23.5 0C22.7557 0 22.1523 0.603391 22.1523 1.34766V6.82812C22.1523 7.57239 22.7557 8.17578 23.5 8.17578C24.2443 8.17578 24.8477 7.57239 24.8477 6.82812V1.34766C24.8477 0.603391 24.2443 0 23.5 0Z" fill="#754FFE"/>
<path d="M23.4983 16.2617C22.9444 16.2617 22.3801 16.3281 21.822 16.4588C19.4982 17.0012 17.5528 18.9141 16.9813 21.2187C16.8022 21.9411 17.2425 22.6719 17.9649 22.8511C18.6874 23.0303 19.4182 22.5898 19.5973 21.8675C19.9262 20.5416 21.093 19.3968 22.4358 19.0834C22.7935 18.9995 23.1511 18.957 23.4983 18.957C24.2426 18.957 24.846 18.3536 24.846 17.6094C24.846 16.8651 24.2426 16.2617 23.4983 16.2617Z" fill="#754FFE"/>
</svg>
