<svg width="45" height="46" viewBox="0 0 45 46" fill="none" xmlns="http://www.w3.org/2000/svg">
<path d="M22.5405 16.3389C23.1471 16.3389 23.6384 15.8473 23.6384 15.241C23.6384 14.6347 23.1471 14.1431 22.5405 14.1431C17.69 14.1431 13.7578 18.0753 13.7578 22.9261C13.7578 27.7767 17.69 31.7089 22.5405 31.7089C27.3914 31.7089 31.3237 27.7767 31.3237 22.9261C31.3237 22.3196 30.832 21.8283 30.2258 21.8283C29.6195 21.8283 29.1279 22.3196 29.1279 22.9261C29.1279 26.5641 26.1789 29.5135 22.5405 29.5135C18.9026 29.5135 15.9533 26.5641 15.9533 22.9261C15.9533 19.2879 18.9026 16.3389 22.5405 16.3389Z" fill="#754FFE"/>
<path d="M43.4879 16.4051C43.2972 15.829 42.6758 15.5167 42.0994 15.7073C41.5365 15.8936 41.2231 16.4928 41.3909 17.0614C44.6741 27.5167 38.8602 38.6539 28.405 41.9371C17.95 45.2203 6.81283 39.4065 3.52966 28.9512C0.246058 18.4959 6.0603 7.35873 16.5152 4.07548C20.3853 2.86024 24.5349 2.86024 28.405 4.07548C28.986 4.25066 29.599 3.92182 29.7743 3.34077C29.9468 2.76841 29.6303 2.16351 29.0617 1.97861C17.4524 -1.66378 5.08817 4.79478 1.44587 16.4044C-2.19652 28.0137 4.2623 40.3779 15.8717 44.0202C27.4813 47.6626 39.8452 41.204 43.4875 29.5944C44.8345 25.3012 44.8346 20.6984 43.4878 16.4051H43.4879Z" fill="#754FFE"/>
<path d="M24.6328 8.80608C24.6385 8.18095 24.1583 7.65843 23.5349 7.61169C23.207 7.5838 22.8789 7.55591 22.5422 7.55591C14.0534 7.55591 7.17188 14.4374 7.17188 22.9262C7.17188 31.4148 14.0534 38.2963 22.5422 38.2963C31.0308 38.2963 37.9123 31.4148 37.9123 22.9263C37.9123 22.5291 37.8881 22.1324 37.8394 21.7383C37.7515 21.1357 37.192 20.7184 36.5894 20.8062C35.9869 20.8936 35.5695 21.4535 35.657 22.0561C35.6604 22.0789 35.6644 22.1014 35.669 22.1243C35.693 22.3903 35.7165 22.6539 35.7165 22.9256C35.7168 30.2019 29.8186 36.1002 22.5425 36.1009C15.2663 36.1012 9.36792 30.2025 9.36766 22.9266C9.36732 15.6506 15.2652 9.75195 22.5416 9.75169H22.5419C22.8143 9.75169 23.0781 9.77519 23.3435 9.79869L23.5493 9.81591C24.123 9.84044 24.6078 9.39523 24.6321 8.82157C24.6324 8.81615 24.6324 8.81116 24.6328 8.80608Z" fill="#754FFE"/>
<path d="M29.1283 10.8494V14.7863L21.7648 22.1497C21.3287 22.571 21.3167 23.2661 21.7379 23.7022C22.1593 24.1383 22.8544 24.1504 23.2904 23.7292C23.2996 23.7204 23.3086 23.7113 23.3174 23.7022L30.6809 16.3388H34.6176C34.9089 16.3388 35.1879 16.2231 35.3941 16.0171L41.9811 9.4297C42.4098 9.00101 42.4098 8.30598 41.9811 7.87721C41.8792 7.77529 41.7582 7.69445 41.625 7.63929C41.4919 7.58414 41.3491 7.55576 41.205 7.55578H37.9113V4.2621C37.9113 3.65582 37.4198 3.16421 36.8131 3.16455C36.5221 3.16462 36.2431 3.28024 36.0374 3.48598L29.45 10.0733C29.348 10.1752 29.2671 10.2961 29.2119 10.4293C29.1567 10.5625 29.1283 10.7052 29.1283 10.8494ZM31.3241 11.3041L35.7155 6.91248V8.65367C35.7155 9.25995 36.2072 9.75156 36.8134 9.75156H38.5546L34.163 14.143H31.3241V11.3041Z" fill="#754FFE"/>
</svg>
