<svg width="33" height="33" viewBox="0 0 33 33" fill="none" xmlns="http://www.w3.org/2000/svg">
<path d="M6.35658 9.89781C4.72248 12.4051 4.07554 15.4291 4.54069 18.3855C5.00585 21.342 6.55011 24.0211 8.87518 25.9055C11.2003 27.7899 14.1412 28.7459 17.1298 28.5887C20.1185 28.4315 22.9429 27.1723 25.0575 25.0543L23.1005 23.0984H29.7008V29.6988L28.1679 28.1658C25.2165 31.1168 21.2565 32.8398 17.0855 32.9877C12.9145 33.1355 8.84246 31.6974 5.68949 28.9628C2.53652 26.2283 0.536927 22.4005 0.0934573 18.2505C-0.350013 14.1006 0.795595 9.93671 3.29953 6.59766V9.89781H6.35658Z" fill="#A4D2F4"/>
<path d="M29.702 26.4004V23.1002H26.645C28.2791 20.5929 28.926 17.569 28.4609 14.6125C27.9957 11.6561 26.4515 8.97689 24.1264 7.09248C21.8013 5.20808 18.8604 4.25216 15.8717 4.40937C12.883 4.56658 10.0586 5.82576 7.9441 7.94369L9.9011 9.89959H3.30078V3.29927L4.8337 4.83219C7.78509 1.88121 11.7451 0.158256 15.9161 0.0103712C20.087 -0.137514 24.1591 1.30066 27.3121 4.03521C30.465 6.76976 32.4646 10.5975 32.9081 14.7475C33.3516 18.8975 32.206 23.0613 29.702 26.4004Z" fill="#D8EBFB"/>
<path d="M16.4989 25.8493C21.663 25.8493 25.8493 21.663 25.8493 16.4989C25.8493 11.3348 21.663 7.14844 16.4989 7.14844C11.3348 7.14844 7.14844 11.3348 7.14844 16.4989C7.14844 21.663 11.3348 25.8493 16.4989 25.8493Z" fill="#2B3A53"/>
<path d="M16.4989 25.8493C21.663 25.8493 25.8493 21.663 25.8493 16.4989C25.8493 11.3348 21.663 7.14844 16.4989 7.14844C11.3348 7.14844 7.14844 11.3348 7.14844 16.4989C7.14844 21.663 11.3348 25.8493 16.4989 25.8493Z" fill="black" fill-opacity="0.2"/>
<path d="M16.4989 25.8493C21.663 25.8493 25.8493 21.663 25.8493 16.4989C25.8493 11.3348 21.663 7.14844 16.4989 7.14844C11.3348 7.14844 7.14844 11.3348 7.14844 16.4989C7.14844 21.663 11.3348 25.8493 16.4989 25.8493Z" fill="black" fill-opacity="0.2"/>
<path d="M16.4989 25.8493C21.663 25.8493 25.8493 21.663 25.8493 16.4989C25.8493 11.3348 21.663 7.14844 16.4989 7.14844C11.3348 7.14844 7.14844 11.3348 7.14844 16.4989C7.14844 21.663 11.3348 25.8493 16.4989 25.8493Z" fill="black" fill-opacity="0.2"/>
<path d="M16.5 23.6483C20.449 23.6483 23.6503 20.447 23.6503 16.498C23.6503 12.549 20.449 9.34766 16.5 9.34766C12.5509 9.34766 9.34961 12.549 9.34961 16.498C9.34961 20.447 12.5509 23.6483 16.5 23.6483Z" fill="#E2E7F6"/>
<path d="M22.0002 15.9499C21.9996 14.5944 21.6132 13.267 20.8864 12.1228C20.1595 10.9786 19.1221 10.0648 17.8954 9.4882C16.1824 9.14337 14.4025 9.43815 12.8921 10.3168C11.3818 11.1955 10.2458 12.5971 9.69886 14.2566C9.15196 15.9161 9.2321 17.7185 9.92413 19.323C10.6162 20.9274 11.8721 22.2227 13.4544 22.9638C14.4916 23.1711 15.5619 23.1456 16.588 22.889C17.6141 22.6325 18.5705 22.1513 19.388 21.4803C20.2056 20.8093 20.864 19.9651 21.3158 19.0087C21.7675 18.0523 22.0013 17.0076 22.0002 15.9499Z" fill="#F2F2F2"/>
<path d="M15.4004 15.401V12.6508L16.5004 11.5508L17.6005 12.6508V15.401" fill="#3B5892"/>
<path d="M16.5 18.1501L18.7001 20.3502H20.3502V18.7001L18.1501 16.5" fill="#F9D266"/>
<path d="M16.4997 18.1478C17.411 18.1478 18.1498 17.409 18.1498 16.4977C18.1498 15.5864 17.411 14.8477 16.4997 14.8477C15.5884 14.8477 14.8496 15.5864 14.8496 16.4977C14.8496 17.409 15.5884 18.1478 16.4997 18.1478Z" fill="#5E87CA"/>
<path d="M14.8496 16.4977C14.8506 16.7999 14.9356 17.0958 15.0949 17.3525C15.3516 17.5118 15.6475 17.5968 15.9497 17.5978C16.3873 17.5978 16.807 17.4239 17.1164 17.1145C17.4259 16.805 17.5997 16.3853 17.5997 15.9477C17.5987 15.6456 17.5138 15.3497 17.3544 15.093C17.0977 14.9336 16.8018 14.8487 16.4997 14.8477C16.0621 14.8477 15.6424 15.0215 15.3329 15.331C15.0235 15.6404 14.8496 16.0601 14.8496 16.4977Z" fill="#78A0D4"/>
<path d="M15.4004 14.2355H15.9504C16.0963 14.2355 16.2362 14.1775 16.3393 14.0744C16.4425 13.9712 16.5004 13.8313 16.5004 13.6854V11.5508L15.4004 12.6508V14.2355Z" fill="#4C6CB5"/>
<path d="M17.3809 19.0313L18.7009 20.3514H20.351V20.2695L18.6371 18.5556C18.534 18.4525 18.3941 18.3945 18.2483 18.3945C18.1024 18.3945 17.9625 18.4525 17.8594 18.5556L17.3809 19.0313Z" fill="#F4A93C"/>
</svg>
