<svg width="26" height="24" viewBox="0 0 26 24" fill="none" xmlns="http://www.w3.org/2000/svg">
<path fill-rule="evenodd" clip-rule="evenodd" d="M6.24609 23.7305H3.55469C2.58984 23.7305 1.77734 22.918 1.77734 21.9531V2.04688C1.77734 1.08203 2.58984 0.269531 3.55469 0.269531H6.24609L7.16016 11.543L6.24609 23.7305Z" fill="#754FFE"/>
<path fill-rule="evenodd" clip-rule="evenodd" d="M25.6445 3.77344H21.582C21.3789 3.77344 21.2266 3.62109 21.2266 3.41797V2.65625C21.2266 1.33594 22.293 0.269531 23.6133 0.269531C24.9336 0.269531 26 1.33594 26 2.65625V3.41797C26 3.62109 25.8477 3.77344 25.6445 3.77344Z" fill="#FDC451"/>
<path fill-rule="evenodd" clip-rule="evenodd" d="M23.5117 23.7305C23.3594 23.7305 23.2578 23.6289 23.207 23.5273L21.2773 19.8711C21.2266 19.8203 21.2266 19.7695 21.2266 19.7188V3.41797H26V19.7188C26 19.7695 26 19.8711 25.9492 19.8711L23.8164 23.5273C23.7656 23.6797 23.6133 23.7305 23.5117 23.7305Z" fill="#FDC451"/>
<path fill-rule="evenodd" clip-rule="evenodd" d="M3.14844 4.94141H1.11719C0.507812 4.94141 0 4.43359 0 3.82422C0 3.21484 0.507812 2.70703 1.11719 2.70703H3.14844C3.80859 2.70703 4.31641 3.21484 4.31641 3.82422C4.31641 4.43359 3.80859 4.94141 3.14844 4.94141ZM3.14844 9.05469H1.11719C0.507812 9.05469 0 8.54688 0 7.88672C0 7.27734 0.507812 6.76953 1.11719 6.76953H3.14844C3.80859 6.76953 4.31641 7.27734 4.31641 7.88672C4.31641 8.54688 3.80859 9.05469 3.14844 9.05469ZM3.14844 13.1172H1.11719C0.507812 13.1172 0 12.6094 0 12C0 11.3906 0.507812 10.8828 1.11719 10.8828H3.14844C3.80859 10.8828 4.31641 11.3906 4.31641 12C4.31641 12.6094 3.80859 13.1172 3.14844 13.1172ZM3.14844 17.2305H1.11719C0.507812 17.2305 0 16.7227 0 16.1133C0 15.4531 0.507812 14.9453 1.11719 14.9453H3.14844C3.80859 14.9453 4.31641 15.4531 4.31641 16.1133C4.31641 16.7227 3.80859 17.2305 3.14844 17.2305ZM3.14844 21.3438H1.11719C0.507812 21.3438 0 20.8359 0 20.1758C0 19.5664 0.507812 19.0586 1.11719 19.0586H3.14844C3.80859 19.0586 4.31641 19.5664 4.31641 20.1758C4.31641 20.8359 3.80859 21.3438 3.14844 21.3438Z" fill="#FDC451"/>
<path fill-rule="evenodd" clip-rule="evenodd" d="M23.8164 23.5273L25.9492 19.8711C26 19.8711 26 19.7695 26 19.7188H21.2266C21.2266 19.7695 21.2266 19.8203 21.2773 19.8711L23.207 23.5273C23.2578 23.6289 23.3594 23.7305 23.5117 23.7305C23.6133 23.7305 23.7656 23.6797 23.8164 23.5273Z" fill="#FFE2C8"/>
<path fill-rule="evenodd" clip-rule="evenodd" d="M23.8164 23.5273L24.7812 21.9531C24.4258 21.6992 23.9688 21.5469 23.5117 21.5469C23.0547 21.5469 22.6484 21.6484 22.3438 21.9023L23.207 23.5273C23.2578 23.6289 23.3594 23.7305 23.5117 23.7305C23.6133 23.7305 23.7656 23.6797 23.8164 23.5273Z" fill="#FDC451"/>
<path fill-rule="evenodd" clip-rule="evenodd" d="M20.0078 21.9531V2.04688C20.0078 1.08203 19.1953 0.269531 18.2305 0.269531H6.24609V23.7305H18.2305C19.2461 23.7305 20.0078 22.9688 20.0078 21.9531Z" fill="#CDBFFF"/>
<path fill-rule="evenodd" clip-rule="evenodd" d="M17.2148 3.62109H9.29297C9.08984 3.62109 8.9375 3.46875 8.9375 3.26562C8.9375 3.0625 9.08984 2.91016 9.29297 2.91016H17.2148C17.418 2.91016 17.5703 3.0625 17.5703 3.26562C17.5703 3.46875 17.418 3.62109 17.2148 3.62109ZM17.2148 7.125H9.29297C9.08984 7.125 8.9375 6.97266 8.9375 6.76953C8.9375 6.56641 9.08984 6.41406 9.29297 6.41406H17.2148C17.418 6.41406 17.5703 6.56641 17.5703 6.76953C17.5703 6.97266 17.418 7.125 17.2148 7.125ZM17.2148 10.6289H9.29297C9.08984 10.6289 8.9375 10.4766 8.9375 10.2734C8.9375 10.0703 9.08984 9.91797 9.29297 9.91797H17.2148C17.418 9.91797 17.5703 10.0703 17.5703 10.2734C17.5703 10.4766 17.418 10.6289 17.2148 10.6289ZM17.2148 14.082H9.29297C9.08984 14.082 8.9375 13.9297 8.9375 13.7266C8.9375 13.5234 9.08984 13.3711 9.29297 13.3711H17.2148C17.418 13.3711 17.5703 13.5234 17.5703 13.7266C17.5703 13.9297 17.418 14.082 17.2148 14.082ZM17.2148 17.5859H9.29297C9.08984 17.5859 8.9375 17.4336 8.9375 17.2305C8.9375 17.0273 9.08984 16.875 9.29297 16.875H17.2148C17.418 16.875 17.5703 17.0273 17.5703 17.2305C17.5703 17.4336 17.418 17.5859 17.2148 17.5859ZM17.2148 21.0898H9.29297C9.08984 21.0898 8.9375 20.9375 8.9375 20.7344C8.9375 20.5312 9.08984 20.3789 9.29297 20.3789H17.2148C17.418 20.3789 17.5703 20.5312 17.5703 20.7344C17.5703 20.9375 17.418 21.0898 17.2148 21.0898Z" fill="#7F5CFD"/>
</svg>
