<svg width="166" height="161" viewBox="0 0 166 161" fill="none" xmlns="http://www.w3.org/2000/svg">
<path fill-rule="evenodd" clip-rule="evenodd" d="M95.6216 144.593C95.658 144.475 95.7314 144.371 95.8309 144.298C95.9303 144.224 96.0507 144.185 96.1744 144.185C96.298 144.185 96.4184 144.224 96.5179 144.298C96.6173 144.371 96.6907 144.475 96.7271 144.593C96.7271 144.593 97.7369 147.925 98.2039 149.466C98.2717 149.687 98.4095 149.881 98.5967 150.017C98.7839 150.153 99.0102 150.224 99.2416 150.22L104.331 150.121C104.455 150.117 104.577 150.154 104.679 150.226C104.78 150.298 104.855 150.401 104.893 150.52C104.93 150.638 104.929 150.764 104.889 150.881C104.85 150.998 104.775 151.099 104.674 151.17C104.674 151.17 101.816 153.158 100.496 154.08C100.306 154.212 100.165 154.402 100.093 154.622C100.022 154.842 100.025 155.079 100.101 155.298C100.628 156.822 101.769 160.111 101.769 160.111C101.809 160.228 101.811 160.355 101.773 160.472C101.736 160.59 101.662 160.693 101.562 160.765C101.461 160.838 101.341 160.876 101.217 160.875C101.094 160.873 100.974 160.832 100.875 160.758C100.875 160.758 98.101 158.658 96.8158 157.684C96.6315 157.545 96.4065 157.469 96.1752 157.469C95.9438 157.469 95.7189 157.545 95.5345 157.684C94.249 158.658 91.4752 160.758 91.4752 160.758C91.3766 160.832 91.2568 160.873 91.1332 160.875C91.0097 160.876 90.889 160.838 90.7888 160.765C90.6887 160.693 90.6145 160.59 90.5771 160.472C90.5397 160.355 90.5411 160.228 90.5811 160.111C90.5811 160.111 91.7229 156.822 92.2497 155.298C92.3257 155.079 92.3283 154.842 92.257 154.622C92.1857 154.403 92.0444 154.212 91.8547 154.08C90.5335 153.158 87.6768 151.17 87.6768 151.17C87.5761 151.099 87.5006 150.998 87.4612 150.881C87.4218 150.764 87.4204 150.638 87.4573 150.52C87.4952 150.401 87.5706 150.298 87.6721 150.226C87.7737 150.154 87.8959 150.117 88.0203 150.121L93.1091 150.22C93.3404 150.224 93.5668 150.153 93.754 150.017C93.9412 149.881 94.079 149.687 94.1468 149.466L95.6251 144.593H95.6216ZM8.889 121.883C8.92521 121.765 8.99805 121.662 9.09696 121.588C9.19588 121.514 9.31574 121.474 9.4392 121.472C9.56303 121.472 9.68362 121.512 9.7828 121.586C9.88198 121.66 9.95438 121.765 9.98908 121.883C9.98908 121.883 10.8636 124.749 11.3556 126.388C11.4542 126.709 11.6543 126.988 11.9258 127.186C12.1973 127.383 12.5255 127.486 12.8609 127.481C14.5748 127.446 17.5682 127.388 17.5682 127.388C17.6916 127.384 17.8131 127.42 17.9143 127.491C18.0154 127.562 18.0909 127.664 18.1294 127.781C18.1679 127.898 18.1673 128.025 18.1277 128.142C18.0881 128.259 18.0117 128.36 17.9098 128.43C17.9098 128.43 15.4493 130.144 14.0481 131.123C13.772 131.315 13.5662 131.592 13.4618 131.912C13.3574 132.231 13.3602 132.576 13.4696 132.894L15.0158 137.341C15.0568 137.458 15.059 137.585 15.0222 137.703C14.9853 137.821 14.9113 137.924 14.8112 137.997C14.7111 138.07 14.5901 138.109 14.4663 138.107C14.3425 138.106 14.2224 138.065 14.1239 137.99C14.1239 137.99 11.7383 136.183 10.3722 135.147C10.1048 134.944 9.77836 134.834 9.44273 134.834C9.10711 134.834 8.7807 134.944 8.51331 135.147C7.26143 136.095 6.0088 137.043 4.75541 137.99C4.65707 138.064 4.53743 138.104 4.41422 138.105C4.291 138.106 4.17077 138.067 4.07134 137.995C3.97192 137.922 3.89858 137.819 3.8622 137.701C3.82582 137.584 3.82834 137.457 3.86937 137.341C3.86937 137.341 4.84829 134.51 5.40974 132.894C5.52027 132.577 5.52408 132.232 5.42058 131.912C5.31709 131.592 5.11196 131.315 4.8364 131.123C3.4294 130.144 0.974386 128.43 0.974386 128.43C0.872984 128.361 0.796778 128.26 0.757098 128.144C0.717418 128.027 0.716384 127.901 0.754151 127.784C0.791917 127.667 0.866466 127.565 0.966713 127.494C1.06696 127.422 1.18755 127.385 1.31055 127.388C1.31055 127.388 4.30966 127.446 6.02358 127.481C6.35849 127.487 6.68628 127.383 6.95701 127.186C7.22773 126.989 7.42654 126.709 7.52313 126.388C8.02095 124.749 8.88964 121.883 8.88964 121.883H8.889ZM91.5979 1.85492C91.6318 1.74467 91.6999 1.64806 91.7924 1.57907C91.8848 1.51009 91.9968 1.47231 92.1121 1.47119C92.2282 1.47198 92.3411 1.50954 92.4345 1.57848C92.528 1.64743 92.5971 1.7442 92.6321 1.85492C92.6321 1.85492 93.532 4.82961 93.9819 6.31277C94.0529 6.54902 94.1992 6.75558 94.3985 6.90098C94.5978 7.04637 94.8392 7.12264 95.0859 7.11815C96.6375 7.08826 99.7439 7.02431 99.7439 7.02431C99.8599 7.02197 99.9736 7.05697 100.068 7.12415C100.163 7.19133 100.233 7.28714 100.269 7.39743C100.305 7.50773 100.305 7.62668 100.268 7.73673C100.231 7.84679 100.16 7.94213 100.065 8.00869C100.065 8.00869 97.5126 9.78592 96.2409 10.6681C96.0382 10.8099 95.8873 11.014 95.8111 11.2494C95.735 11.4848 95.7377 11.7386 95.8189 11.9723L97.3448 16.3707C97.3833 16.4802 97.3855 16.5992 97.3511 16.71C97.3166 16.8209 97.2475 16.9177 97.1537 16.9862C97.06 17.0547 96.9468 17.0912 96.8307 17.0903C96.7146 17.0894 96.6019 17.0512 96.5092 16.9813C96.5092 16.9813 94.0346 15.1019 92.797 14.1686C92.6002 14.0192 92.36 13.9384 92.1129 13.9384C91.8659 13.9384 91.6257 14.0192 91.4289 14.1686C90.1905 15.1047 88.9531 16.0422 87.7169 16.9813C87.6242 17.0502 87.5118 17.0878 87.3962 17.0886C87.2807 17.0893 87.1678 17.0532 87.0742 16.9855C86.98 16.9178 86.9102 16.8215 86.8755 16.7109C86.8407 16.6002 86.8428 16.4813 86.8814 16.3719L88.4073 11.9735C88.4875 11.7398 88.4897 11.4863 88.4136 11.2512C88.3375 11.016 88.1872 10.8119 87.9853 10.6694C86.711 9.78721 84.1625 8.00998 84.1625 8.00998C84.0675 7.94342 83.9963 7.84808 83.9596 7.73802C83.9229 7.62796 83.9225 7.50901 83.9585 7.39872C83.9945 7.28842 84.065 7.19262 84.1596 7.12544C84.2542 7.05826 84.3679 7.02325 84.4839 7.02559C84.4839 7.02559 87.5903 7.08987 89.1378 7.11943C89.3849 7.12394 89.6268 7.04775 89.8268 6.90242C90.0267 6.75708 90.1739 6.55053 90.2459 6.31406C90.6974 4.83089 91.5957 1.8562 91.5957 1.8562L91.5979 1.85492ZM11.7946 32.7073C11.8283 32.5962 11.8968 32.4989 11.9901 32.4297C12.0834 32.3606 12.1964 32.3232 12.3125 32.3232C12.4286 32.3232 12.5416 32.3606 12.6349 32.4297C12.7282 32.4989 12.7967 32.5962 12.8304 32.7073C12.8304 32.7073 13.7303 35.682 14.1802 37.1652C14.2512 37.4015 14.3975 37.6081 14.5968 37.7535C14.7961 37.8989 15.0375 37.9751 15.2841 37.9706C16.8354 37.9407 19.9422 37.8767 19.9422 37.8767C20.0581 37.8747 20.1715 37.91 20.2658 37.9773C20.3602 38.0446 20.4304 38.1404 20.4662 38.2506C20.502 38.3609 20.5015 38.4796 20.4647 38.5895C20.4279 38.6994 20.3569 38.7946 20.262 38.8611C20.262 38.8611 17.7093 40.6383 16.4392 41.5205C16.2364 41.6623 16.0855 41.8664 16.0093 42.1018C15.9332 42.3372 15.9359 42.591 16.0172 42.8247L17.5428 47.2231C17.5815 47.3326 17.5839 47.4517 17.5495 47.5627C17.5152 47.6737 17.446 47.7707 17.3522 47.8393C17.2583 47.9078 17.1449 47.9443 17.0288 47.9433C16.9126 47.9423 16.7998 47.9039 16.7072 47.8337C16.7072 47.8337 14.2326 45.9543 12.9949 45.021C12.7982 44.8717 12.5579 44.7908 12.3109 44.7908C12.0639 44.7908 11.8236 44.8717 11.6268 45.021C10.3908 45.953 7.9149 47.8337 7.9149 47.8337C7.82213 47.9027 7.70979 47.9403 7.5942 47.941C7.47861 47.9418 7.36579 47.9056 7.27214 47.8379C7.17793 47.7703 7.1082 47.6739 7.07343 47.5633C7.03866 47.4526 7.04072 47.3337 7.07931 47.2244C7.07931 47.2244 8.09808 44.2876 8.6049 42.826C8.68604 42.5921 8.68897 42.3382 8.61327 42.1025C8.53757 41.8668 8.38733 41.6621 8.18518 41.5192C6.91091 40.6371 4.36076 38.8598 4.36076 38.8598C4.26588 38.7934 4.19483 38.6982 4.15806 38.5883C4.12129 38.4785 4.12075 38.3597 4.15651 38.2495C4.19227 38.1393 4.26244 38.0435 4.35672 37.9762C4.45099 37.9088 4.56438 37.8735 4.68021 37.8754C4.68021 37.8754 7.78699 37.9397 9.33411 37.9693C9.58129 37.9739 9.82322 37.8977 10.0232 37.7524C10.2232 37.6071 10.3703 37.4004 10.4422 37.1639C10.8941 35.6807 11.792 32.7061 11.792 32.7061L11.7946 32.7073ZM140.342 28.9623C140.381 28.8421 140.456 28.7372 140.558 28.6627C140.659 28.5882 140.782 28.548 140.908 28.548C141.034 28.548 141.157 28.5882 141.259 28.6627C141.36 28.7372 141.436 28.8421 141.474 28.9623C141.474 28.9623 142.456 32.2121 142.95 33.8325C143.027 34.0906 143.187 34.3163 143.405 34.4752C143.622 34.6341 143.886 34.7174 144.156 34.7124C145.851 34.6803 149.245 34.6099 149.245 34.6099C149.371 34.6077 149.495 34.6462 149.598 34.7198C149.701 34.7934 149.778 34.8981 149.817 35.0185C149.856 35.1389 149.856 35.2688 149.816 35.3888C149.775 35.5089 149.698 35.6129 149.594 35.6856C149.594 35.6856 146.805 37.627 145.416 38.5953C145.195 38.7498 145.031 38.972 144.948 39.2282C144.865 39.4845 144.867 39.7609 144.955 40.0155L146.622 44.8204C146.664 44.94 146.666 45.0697 146.628 45.1904C146.59 45.3111 146.515 45.4166 146.412 45.4911C146.31 45.5657 146.187 45.6055 146.06 45.6046C145.934 45.6038 145.811 45.5623 145.71 45.4864C145.71 45.4864 143.005 43.4331 141.654 42.4133C141.439 42.2502 141.177 42.1619 140.907 42.1619C140.637 42.1619 140.375 42.2502 140.16 42.4133C138.81 43.4331 136.104 45.4864 136.104 45.4864C136.003 45.5619 135.88 45.6031 135.754 45.604C135.627 45.6048 135.504 45.5653 135.401 45.4912C135.298 45.4171 135.222 45.3117 135.185 45.1908C135.147 45.0699 135.149 44.9399 135.191 44.8204L136.858 40.0155C136.946 39.7609 136.949 39.4845 136.866 39.2282C136.783 38.972 136.618 38.7498 136.398 38.5953C135.005 37.627 132.22 35.6856 132.22 35.6856C132.116 35.6129 132.038 35.5089 131.998 35.3888C131.958 35.2688 131.957 35.1389 131.996 35.0185C132.036 34.8981 132.112 34.7934 132.215 34.7198C132.318 34.6462 132.442 34.6077 132.569 34.6099C132.569 34.6099 135.963 34.6796 137.658 34.7124C137.928 34.7174 138.191 34.6341 138.409 34.4752C138.627 34.3163 138.787 34.0906 138.864 33.8325C139.357 32.2094 139.849 30.586 140.34 28.9623H140.342ZM153.981 131.702C154.018 131.584 154.091 131.481 154.19 131.407C154.29 131.334 154.41 131.295 154.533 131.295C154.657 131.295 154.777 131.334 154.876 131.407C154.976 131.481 155.049 131.584 155.086 131.702C155.086 131.702 156.054 134.889 156.538 136.478C156.613 136.731 156.77 136.952 156.984 137.108C157.197 137.263 157.456 137.343 157.72 137.336L162.711 137.24C162.835 137.237 162.957 137.274 163.058 137.346C163.159 137.418 163.235 137.52 163.273 137.638C163.311 137.756 163.311 137.883 163.271 138C163.232 138.118 163.156 138.219 163.054 138.29C163.054 138.29 160.319 140.194 158.958 141.144C158.741 141.295 158.579 141.513 158.498 141.764C158.416 142.016 158.419 142.287 158.506 142.537C159.049 144.107 160.141 147.253 160.141 147.253C160.182 147.371 160.184 147.498 160.147 147.617C160.11 147.735 160.036 147.839 159.935 147.911C159.835 147.984 159.713 148.023 159.589 148.021C159.465 148.019 159.344 147.978 159.246 147.902C159.246 147.902 156.593 145.893 155.269 144.888C155.057 144.73 154.8 144.645 154.536 144.645C154.272 144.645 154.015 144.73 153.803 144.888C152.478 145.893 149.826 147.902 149.826 147.902C149.727 147.978 149.606 148.021 149.482 148.023C149.357 148.025 149.235 147.986 149.134 147.914C149.033 147.841 148.958 147.737 148.92 147.618C148.883 147.499 148.885 147.371 148.926 147.253C148.926 147.253 150.019 144.107 150.565 142.537C150.651 142.287 150.653 142.015 150.571 141.764C150.488 141.512 150.326 141.295 150.108 141.144C148.748 140.194 146.017 138.29 146.017 138.29C145.915 138.219 145.839 138.118 145.8 138C145.76 137.883 145.76 137.756 145.798 137.638C145.836 137.52 145.912 137.418 146.013 137.346C146.114 137.274 146.235 137.237 146.359 137.24L151.346 137.336C151.61 137.342 151.87 137.262 152.084 137.107C152.298 136.952 152.456 136.731 152.533 136.478C153.013 134.889 153.979 131.702 153.979 131.702H153.981Z" fill="#FFDE76"/>
<path d="M131.632 0.598729C134.993 2.53858 135.214 8.46192 130.685 16.3052C127.411 21.9759 109.54 46.2687 101.307 56.4535C101.108 56.7055 100.825 56.8774 100.51 56.9379C100.194 56.9983 99.8678 56.9432 99.5898 56.7826C99.3118 56.622 99.1009 56.3667 98.9957 56.0634C98.8905 55.76 98.898 55.429 99.0168 55.1307C103.721 42.908 115.228 14.9419 118.503 9.26987C123.031 1.42821 128.273 -1.34562 131.632 0.597122V0.598729Z" fill="#FFDE76"/>
<path d="M165.269 82.5643C165.269 85.3995 161.223 87.7012 153.925 87.7012C149.055 87.7012 121.741 85.414 110.953 83.89C110.63 83.8499 110.332 83.6931 110.116 83.4489C109.9 83.2047 109.781 82.89 109.781 82.5641C109.781 82.2382 109.9 81.9236 110.116 81.6794C110.332 81.4352 110.63 81.2783 110.953 81.2383C121.741 79.7172 149.055 77.4299 153.925 77.4299C161.223 77.4299 165.269 79.7316 165.269 82.5643Z" fill="#B5E08C"/>
<path d="M123.77 147.382C120.107 149.296 115.23 147.87 111.798 142.483C109.289 138.548 100.901 116.853 97.954 108.235C97.851 107.949 97.8486 107.636 97.9473 107.349C98.0459 107.061 98.2396 106.816 98.4965 106.654C98.7533 106.491 99.0579 106.421 99.3599 106.455C99.662 106.489 99.9434 106.625 100.158 106.84C106.876 113.415 122.548 131.572 125.076 135.54C128.506 140.923 127.435 145.463 123.77 147.38V147.382Z" fill="#32BA7C"/>
<path d="M28.7544 156.801C24.553 155.395 24.1082 150.832 29.4547 144.659C33.4295 140.073 57.7766 116.447 67.3906 108.566C67.6319 108.364 67.9368 108.253 68.2516 108.253C68.5665 108.254 68.871 108.366 69.1115 108.569C69.3521 108.772 69.5132 109.054 69.5664 109.364C69.6196 109.674 69.5616 109.993 69.4025 110.265C63.9554 119.842 48.5276 145.31 44.6765 149.759C39.3271 155.932 32.9532 158.211 28.7544 156.801Z" fill="#B5E08C"/>
<path d="M0.730473 87.4312C0.607064 84.2026 3.40789 81.5178 8.63962 81.4047C12.2616 81.3272 44.7148 83.1925 56.4583 84.3492C56.7816 84.3765 57.084 84.5204 57.309 84.7541C57.5341 84.9878 57.6665 85.2953 57.6816 85.6195C57.6967 85.9436 57.5935 86.2621 57.3911 86.5157C57.1888 86.7693 56.9011 86.9407 56.5817 86.998C44.9732 89.2881 12.7134 93.0245 9.09052 93.1042C3.85589 93.216 0.853883 90.6588 0.730473 87.4302V87.4312Z" fill="#32BA7C"/>
<path d="M22.6046 11.7766C25.1846 9.83388 29.4663 11.2624 33.4151 16.6899C36.1469 20.4407 51.5924 44.5901 59.2836 57.5645C59.4554 57.8475 59.5161 58.184 59.4541 58.5092C59.3921 58.8343 59.2118 59.1249 58.9479 59.3248C58.6841 59.5247 58.3555 59.6196 58.0257 59.5913C57.6959 59.563 57.3884 59.4134 57.1625 59.1714C46.7138 48.2779 26.7973 27.486 24.0681 23.7323C20.1152 18.3054 20.0245 13.7194 22.6046 11.7766Z" fill="#FFDE76"/>
<path d="M72.324 45.0063C71.7068 45.0055 71.1106 44.7827 70.6441 44.3786C70.1776 43.9746 69.872 43.4162 69.7832 42.8055L65.9767 16.6609C65.9282 16.3268 65.946 15.9863 66.029 15.659C66.112 15.3317 66.2587 15.0239 66.4607 14.7533C66.6627 14.4827 66.916 14.2545 67.2062 14.0818C67.4963 13.9091 67.8177 13.7952 68.1518 13.7467C68.486 13.6981 68.8265 13.7159 69.1538 13.7989C69.4811 13.882 69.7888 14.0287 70.0594 14.2307C70.3301 14.4326 70.5582 14.6859 70.731 14.9761C70.9037 15.2663 71.0176 15.5876 71.0661 15.9218L74.8725 42.0657C74.9212 42.3998 74.9036 42.7403 74.8206 43.0677C74.7377 43.3951 74.5911 43.7029 74.3891 43.9736C74.1872 44.2443 73.9339 44.4725 73.6438 44.6453C73.3536 44.8181 73.0323 44.932 72.6981 44.9806C72.5741 44.9979 72.4491 45.0065 72.324 45.0063ZM119.76 65.1352C119.194 65.136 118.643 64.9498 118.193 64.6054C117.744 64.261 117.42 63.7778 117.274 63.2308C117.127 62.6838 117.165 62.1036 117.381 61.5803C117.598 61.0571 117.982 60.62 118.472 60.337L126.764 55.5504C127.354 55.2095 128.056 55.1171 128.715 55.2937C129.374 55.4703 129.935 55.9013 130.276 56.4919C130.617 57.0825 130.71 57.7844 130.533 58.4431C130.356 59.1019 129.925 59.6635 129.335 60.0044L121.043 64.7914C120.653 65.0168 120.211 65.1354 119.76 65.1352ZM70.1768 148.791C69.7608 148.79 69.351 148.688 68.9828 148.495C68.6145 148.301 68.2987 148.021 68.0623 147.678C67.826 147.336 67.6762 146.941 67.6257 146.528C67.5753 146.115 67.6257 145.696 67.7726 145.307L75.9295 123.809C76.1713 123.172 76.6564 122.656 77.2782 122.376C77.8999 122.097 78.6074 122.075 79.245 122.317C79.8826 122.559 80.3981 123.044 80.678 123.665C80.958 124.287 80.9794 124.995 80.7377 125.632L72.5814 147.13C72.3964 147.618 72.0673 148.038 71.6379 148.335C71.2084 148.631 70.6988 148.79 70.1768 148.791ZM145.641 119.438C145.191 119.439 144.748 119.32 144.358 119.094L117.756 103.735C117.166 103.394 116.735 102.832 116.558 102.173C116.382 101.515 116.474 100.813 116.815 100.222C117.156 99.6314 117.717 99.2003 118.376 99.0238C119.035 98.8472 119.737 98.9396 120.327 99.2805L146.929 114.64C147.42 114.923 147.803 115.36 148.02 115.883C148.237 116.407 148.275 116.987 148.128 117.534C147.981 118.081 147.658 118.564 147.208 118.909C146.758 119.253 146.208 119.439 145.641 119.438ZM27.8872 117.126C27.3208 117.127 26.7699 116.941 26.3202 116.596C25.8704 116.252 25.5469 115.769 25.3999 115.222C25.2529 114.675 25.2907 114.095 25.5073 113.571C25.7239 113.048 26.1072 112.611 26.5978 112.328L46.1013 101.066C46.3938 100.897 46.7166 100.787 47.0514 100.743C47.3862 100.699 47.7264 100.722 48.0526 100.809C48.3788 100.896 48.6845 101.047 48.9524 101.253C49.2203 101.458 49.445 101.715 49.6139 102.007C49.7827 102.3 49.8922 102.623 49.9363 102.957C49.9803 103.292 49.958 103.632 49.8706 103.959C49.7832 104.285 49.6324 104.59 49.4268 104.858C49.2212 105.126 48.9648 105.351 48.6724 105.52L29.1688 116.782C28.7792 117.007 28.3372 117.126 27.8872 117.126ZM34.8168 69.7737C34.5597 69.7734 34.3041 69.7345 34.0586 69.6583L20.9974 65.6372C20.3548 65.4291 19.82 64.9764 19.5085 64.377C19.197 63.7776 19.1338 63.0798 19.3327 62.4343C19.5317 61.7887 19.9766 61.2474 20.5714 60.9273C21.1662 60.6072 21.8631 60.5341 22.5115 60.7237L35.5726 64.7448C36.1615 64.9255 36.6659 65.3115 36.9941 65.8328C37.3223 66.354 37.4524 66.9757 37.3609 67.5848C37.2693 68.1939 36.9621 68.7499 36.4952 69.1516C36.0283 69.5534 35.4327 69.7741 34.8168 69.7737Z" fill="#82BCF4"/>
<path fill-rule="evenodd" clip-rule="evenodd" d="M95.6195 144.593C95.656 144.475 95.7293 144.371 95.8288 144.298C95.9283 144.224 96.0487 144.185 96.1723 144.185C96.2959 144.185 96.4163 144.224 96.5158 144.298C96.6153 144.371 96.6886 144.475 96.7251 144.593C96.7251 144.593 97.7348 147.925 98.2018 149.466C98.2696 149.687 98.4075 149.881 98.5946 150.017C98.7818 150.153 99.0082 150.224 99.2395 150.22L104.329 150.121C104.453 150.117 104.575 150.154 104.677 150.226C104.778 150.298 104.853 150.401 104.891 150.52C104.928 150.638 104.927 150.764 104.887 150.881C104.848 150.998 104.772 151.099 104.672 151.17C104.672 151.17 101.814 153.158 100.494 154.08C100.304 154.212 100.163 154.402 100.091 154.622C100.02 154.842 100.023 155.079 100.099 155.298C100.626 156.822 101.767 160.111 101.767 160.111C101.807 160.228 101.809 160.355 101.771 160.472C101.734 160.59 101.66 160.693 101.559 160.765C101.459 160.838 101.339 160.876 101.215 160.875C101.091 160.873 100.972 160.832 100.873 160.758C100.873 160.758 98.099 158.658 96.8138 157.684C96.6294 157.545 96.4044 157.469 96.1731 157.469C95.9418 157.469 95.7168 157.545 95.5324 157.684C94.2469 158.658 91.4731 160.758 91.4731 160.758C91.3746 160.832 91.2547 160.873 91.1312 160.875C91.0076 160.876 90.8869 160.838 90.7868 160.765C90.6866 160.693 90.6124 160.59 90.575 160.472C90.5376 160.355 90.539 160.228 90.579 160.111C90.579 160.111 91.7209 156.822 92.2476 155.298C92.3237 155.079 92.3262 154.842 92.2549 154.622C92.1836 154.403 92.0423 154.212 91.8526 154.08C90.5314 153.158 87.6747 151.17 87.6747 151.17C87.574 151.099 87.4986 150.998 87.4591 150.881C87.4197 150.764 87.4183 150.638 87.4552 150.52C87.4931 150.401 87.5685 150.298 87.6701 150.226C87.7716 150.154 87.8938 150.117 88.0183 150.121L93.107 150.22C93.3384 150.224 93.5647 150.153 93.7519 150.017C93.9391 149.881 94.077 149.687 94.1447 149.466L95.6231 144.593H95.6195ZM91.5959 1.85492C91.6298 1.74467 91.6978 1.64806 91.7903 1.57907C91.8827 1.51009 91.9947 1.47231 92.1101 1.47119C92.2262 1.47198 92.339 1.50954 92.4325 1.57848C92.5259 1.64743 92.5951 1.7442 92.63 1.85492C92.63 1.85492 93.5299 4.82961 93.9798 6.31277C94.0509 6.54902 94.1972 6.75558 94.3965 6.90098C94.5958 7.04637 94.8371 7.12264 95.0838 7.11815C96.6354 7.08826 99.7419 7.02431 99.7419 7.02431C99.8579 7.02197 99.9715 7.05697 100.066 7.12415C100.161 7.19133 100.231 7.28714 100.267 7.39743C100.303 7.50773 100.303 7.62668 100.266 7.73673C100.229 7.84679 100.158 7.94213 100.063 8.00869C100.063 8.00869 97.5105 9.78592 96.2388 10.6681C96.0361 10.8099 95.8852 11.014 95.8091 11.2494C95.7329 11.4848 95.7356 11.7386 95.8169 11.9723L97.3428 16.3707C97.3812 16.4802 97.3834 16.5992 97.349 16.71C97.3146 16.8209 97.2454 16.9177 97.1517 16.9862C97.0579 17.0547 96.9447 17.0912 96.8286 17.0903C96.7125 17.0894 96.5998 17.0512 96.5072 16.9813C96.5072 16.9813 94.0325 15.1019 92.7949 14.1686C92.5981 14.0192 92.3579 13.9384 92.1109 13.9384C91.8638 13.9384 91.6236 14.0192 91.4268 14.1686C90.1884 15.1047 88.9511 16.0422 87.7149 16.9813C87.6221 17.0502 87.5098 17.0878 87.3942 17.0886C87.2786 17.0893 87.1658 17.0532 87.0721 16.9855C86.9779 16.9178 86.9082 16.8215 86.8734 16.7109C86.8386 16.6002 86.8407 16.4813 86.8793 16.3719L88.4052 11.9735C88.4854 11.7398 88.4876 11.4863 88.4115 11.2512C88.3354 11.016 88.1852 10.8119 87.9832 10.6694C86.709 9.78721 84.1604 8.00998 84.1604 8.00998C84.0654 7.94342 83.9943 7.84808 83.9575 7.73802C83.9208 7.62796 83.9204 7.50901 83.9564 7.39872C83.9924 7.28842 84.0629 7.19262 84.1575 7.12544C84.2521 7.05826 84.3658 7.02325 84.4818 7.02559C84.4818 7.02559 87.5883 7.08987 89.1357 7.11943C89.3829 7.12394 89.6247 7.04775 89.8247 6.90242C90.0247 6.75708 90.1718 6.55053 90.2438 6.31406C90.6953 4.83089 91.5936 1.8562 91.5936 1.8562L91.5959 1.85492ZM140.34 28.9623C140.378 28.8421 140.454 28.7372 140.556 28.6627C140.657 28.5882 140.78 28.548 140.906 28.548C141.032 28.548 141.155 28.5882 141.257 28.6627C141.358 28.7372 141.434 28.8421 141.472 28.9623C141.472 28.9623 142.454 32.2121 142.947 33.8325C143.025 34.0906 143.185 34.3163 143.403 34.4752C143.62 34.6341 143.884 34.7174 144.154 34.7124C145.849 34.6803 149.243 34.6099 149.243 34.6099C149.369 34.6077 149.493 34.6462 149.596 34.7198C149.699 34.7934 149.776 34.8981 149.815 35.0185C149.854 35.1389 149.854 35.2688 149.814 35.3888C149.773 35.5089 149.696 35.6129 149.592 35.6856C149.592 35.6856 146.803 37.627 145.414 38.5953C145.193 38.7498 145.029 38.972 144.946 39.2282C144.863 39.4845 144.865 39.7609 144.953 40.0155L146.62 44.8204C146.662 44.94 146.664 45.0697 146.626 45.1904C146.588 45.3111 146.512 45.4166 146.41 45.4911C146.308 45.5657 146.185 45.6055 146.058 45.6046C145.932 45.6038 145.809 45.5623 145.707 45.4864C145.707 45.4864 143.002 43.4331 141.652 42.4133C141.437 42.2502 141.175 42.1619 140.905 42.1619C140.635 42.1619 140.373 42.2502 140.158 42.4133C138.808 43.4331 136.102 45.4864 136.102 45.4864C136.001 45.5619 135.878 45.6031 135.751 45.604C135.625 45.6048 135.502 45.5653 135.399 45.4912C135.296 45.4171 135.22 45.3117 135.182 45.1908C135.145 45.0699 135.147 44.9399 135.189 44.8204L136.856 40.0155C136.944 39.7609 136.947 39.4845 136.864 39.2282C136.781 38.972 136.616 38.7498 136.396 38.5953C135.003 37.627 132.218 35.6856 132.218 35.6856C132.114 35.6129 132.036 35.5089 131.996 35.3888C131.956 35.2688 131.955 35.1389 131.994 35.0185C132.033 34.8981 132.11 34.7934 132.213 34.7198C132.316 34.6462 132.44 34.6077 132.567 34.6099C132.567 34.6099 135.961 34.6796 137.656 34.7124C137.925 34.7174 138.189 34.6341 138.407 34.4752C138.625 34.3163 138.785 34.0906 138.862 33.8325C139.355 32.2094 139.847 30.586 140.338 28.9623H140.34ZM153.979 131.702C154.015 131.584 154.089 131.481 154.188 131.407C154.288 131.334 154.408 131.295 154.531 131.295C154.655 131.295 154.775 131.334 154.874 131.407C154.974 131.481 155.047 131.584 155.084 131.702C155.084 131.702 156.052 134.889 156.536 136.478C156.611 136.731 156.768 136.952 156.982 137.108C157.195 137.263 157.454 137.343 157.718 137.336L162.709 137.24C162.833 137.237 162.955 137.274 163.056 137.346C163.157 137.418 163.233 137.52 163.271 137.638C163.309 137.756 163.309 137.883 163.269 138C163.23 138.118 163.154 138.219 163.052 138.29C163.052 138.29 160.317 140.194 158.956 141.144C158.739 141.295 158.577 141.513 158.496 141.764C158.414 142.016 158.417 142.287 158.504 142.537C159.047 144.107 160.139 147.253 160.139 147.253C160.18 147.371 160.182 147.498 160.145 147.617C160.108 147.735 160.034 147.839 159.933 147.911C159.832 147.984 159.711 148.023 159.587 148.021C159.463 148.019 159.342 147.978 159.244 147.902C159.244 147.902 156.591 145.893 155.267 144.888C155.055 144.73 154.798 144.645 154.534 144.645C154.27 144.645 154.013 144.73 153.801 144.888C152.476 145.893 149.824 147.902 149.824 147.902C149.725 147.978 149.604 148.021 149.48 148.023C149.355 148.025 149.233 147.986 149.132 147.914C149.031 147.841 148.956 147.737 148.918 147.618C148.881 147.499 148.883 147.371 148.924 147.253C148.924 147.253 150.017 144.107 150.563 142.537C150.649 142.287 150.651 142.015 150.569 141.764C150.486 141.512 150.324 141.295 150.106 141.144C148.745 140.194 146.015 138.29 146.015 138.29C145.913 138.219 145.837 138.118 145.798 138C145.758 137.883 145.758 137.756 145.796 137.638C145.834 137.52 145.91 137.418 146.011 137.346C146.112 137.274 146.233 137.237 146.357 137.24L151.344 137.336C151.608 137.342 151.868 137.262 152.082 137.107C152.296 136.952 152.454 136.731 152.531 136.478C153.01 134.889 153.977 131.702 153.977 131.702H153.979Z" fill="#FFD44D"/>
<path d="M131.632 0.598729C134.993 2.53858 135.214 8.46192 130.685 16.3052C127.411 21.9759 109.54 46.2687 101.307 56.4535C101.108 56.7055 100.825 56.8774 100.51 56.9379C100.194 56.9983 99.8678 56.9432 99.5898 56.7826C99.3118 56.622 99.1009 56.3667 98.9957 56.0634C98.8905 55.76 98.898 55.429 99.0168 55.1307C103.721 42.908 115.228 14.9419 118.503 9.26987C123.031 1.42821 128.273 -1.34562 131.632 0.597122V0.598729Z" fill="#FFD44D"/>
<path d="M165.269 82.5643C165.269 85.3995 161.223 87.7012 153.925 87.7012C149.055 87.7012 121.741 85.414 110.953 83.89C110.63 83.8499 110.332 83.6931 110.116 83.4489C109.9 83.2047 109.781 82.89 109.781 82.5641C109.781 82.2382 109.9 81.9236 110.116 81.6794C110.332 81.4352 110.63 81.2783 110.953 81.2383C121.741 79.7172 149.055 77.4299 153.925 77.4299C161.223 77.4299 165.269 79.7316 165.269 82.5643Z" fill="#A0D76C"/>
<path d="M123.77 147.382C120.107 149.296 115.23 147.87 111.798 142.483C109.289 138.548 100.901 116.853 97.954 108.235C97.851 107.949 97.8486 107.636 97.9473 107.349C98.0459 107.061 98.2396 106.816 98.4965 106.654C98.7533 106.491 99.0579 106.421 99.3599 106.455C99.662 106.489 99.9434 106.625 100.158 106.84C106.876 113.415 122.548 131.572 125.076 135.54C128.506 140.923 127.435 145.463 123.77 147.38V147.382Z" fill="#32BA7C"/>
<path d="M119.758 65.1353C119.192 65.1361 118.641 64.9498 118.192 64.6054C117.742 64.2611 117.419 63.7779 117.272 63.2308C117.125 62.6838 117.163 62.1036 117.38 61.5804C117.596 61.0571 117.98 60.6201 118.47 60.3371L126.762 55.5505C127.353 55.2095 128.054 55.1172 128.713 55.2937C129.372 55.4703 129.934 55.9013 130.274 56.4919C130.615 57.0826 130.708 57.7845 130.531 58.4432C130.355 59.1019 129.924 59.6635 129.333 60.0045L121.041 64.7914C120.651 65.0168 120.209 65.1354 119.758 65.1353ZM145.639 119.438C145.189 119.439 144.746 119.32 144.356 119.094L117.755 103.735C117.164 103.394 116.733 102.832 116.556 102.173C116.38 101.515 116.472 100.813 116.813 100.222C117.154 99.6314 117.716 99.2004 118.374 99.0238C119.033 98.8473 119.735 98.9396 120.326 99.2805L146.928 114.64C147.418 114.923 147.802 115.36 148.018 115.884C148.235 116.407 148.273 116.987 148.126 117.534C147.979 118.081 147.656 118.564 147.206 118.909C146.757 119.253 146.206 119.439 145.639 119.438Z" fill="#5CA8F1"/>
<g clip-path="url(#clip0_1740_20987)">
<path d="M82.5 97C91.6127 97 99 89.6127 99 80.5C99 71.3873 91.6127 64 82.5 64C73.3873 64 66 71.3873 66 80.5C66 89.6127 73.3873 97 82.5 97Z" fill="#32BA7C"/>
<path d="M78.2812 87.9433L86.7655 96.4275C93.7923 94.5537 98.9973 88.1515 98.9973 80.5001V80.0316L92.3349 73.8896L78.2812 87.9433Z" fill="#0AA06E"/>
<path d="M82.9199 84.1956C83.6486 84.9243 83.6486 86.1735 82.9199 86.9022L81.4104 88.4117C80.6817 89.1404 79.4325 89.1404 78.7038 88.4117L72.0934 81.7492C71.3647 81.0205 71.3647 79.7713 72.0934 79.0426L73.6029 77.5331C74.3316 76.8044 75.5808 76.8044 76.3095 77.5331L82.9199 84.1956Z" fill="white"/>
<path d="M88.6929 72.6925C89.4217 71.9638 90.6709 71.9638 91.3996 72.6925L92.909 74.202C93.6377 74.9307 93.6377 76.1799 92.909 76.9086L81.4579 88.3077C80.7292 89.0364 79.48 89.0364 78.7513 88.3077L77.2418 86.7982C76.5131 86.0695 76.5131 84.8203 77.2418 84.0916L88.6929 72.6925Z" fill="white"/>
</g>
<defs>
<clipPath id="clip0_1740_20987">
<rect width="33" height="33" fill="white" transform="translate(66 64)"/>
</clipPath>
</defs>
</svg>
