<svg width="80" height="80" viewBox="0 0 80 80" fill="none" xmlns="http://www.w3.org/2000/svg">
<rect width="80" height="80" rx="16" fill="white"/>
<g clip-path="url(#clip0_1511_5502)">
<path d="M39.902 12C34.157 12 29.5 16.657 29.5 22.402V26.5183C30.1952 25.8739 31.1842 25.5237 32.1497 25.6526V25.1343C32.1497 24.7223 32.5016 24.3968 32.9094 24.4276C36.9312 24.7165 41.0241 23.4385 44.1187 21.417C44.2586 21.3256 44.4262 21.2866 44.592 21.3068C44.7579 21.327 44.9112 21.4051 45.025 21.5274C47.6707 24.3713 47.6547 24.2613 47.6547 24.6325V25.6503C48.7129 25.4917 49.6517 25.8188 50.3039 26.4251V22.402C50.3039 16.657 45.647 12 39.902 12Z" fill="#576574"/>
<path d="M32.2919 22.402C32.2919 17.1308 36.2134 12.7783 41.2978 12.0959C40.8352 12.0329 40.3688 12.0008 39.9019 12C34.1569 12 29.5 16.657 29.5 22.402V26.5183C30.1952 25.8739 31.1842 25.5237 32.1496 25.6526V25.1343C32.1496 24.9743 32.2032 24.8277 32.2919 24.7096V22.402Z" fill="#3E4B5A"/>
<path d="M47.5178 25.2371V30.9353C47.5178 30.9971 47.5145 31.0581 47.513 31.1196C49.5295 31.425 51.1089 29.968 51.1089 28.1786C51.1089 26.3858 49.5282 24.9358 47.5178 25.2371ZM32.2884 30.9353V25.2393C30.5329 25.0049 28.6973 26.3522 28.6973 28.1785C28.6973 29.9656 30.273 31.4252 32.2929 31.1195C32.2913 31.0581 32.2884 30.9969 32.2884 30.9353Z" fill="#F2BB88"/>
<path d="M50.0405 25.901C49.396 25.3663 48.5095 25.0884 47.5178 25.2371V30.9353C47.5178 30.9971 47.5146 31.058 47.513 31.1196C48.5077 31.2702 49.3955 30.9915 50.0404 30.456V25.901H50.0405ZM32.2884 30.4564C31.9534 30.179 31.6838 29.8309 31.4991 29.4371C31.3144 29.0433 31.2191 28.6136 31.22 28.1786C31.22 27.2969 31.6484 26.5276 32.2884 25.9933V25.2392C30.5329 25.0049 28.6973 26.3521 28.6973 28.1785C28.6973 29.9655 30.273 31.4251 32.2929 31.1195C32.2913 31.058 32.2884 30.9967 32.2884 30.9353V30.4564Z" fill="#E3A76F"/>
<path d="M40.0137 38.4393C38.3332 38.4393 36.8564 37.978 35.6484 37.2062V41.2885L39.995 46.6537L44.3415 41.2885V37.0911C43.1102 37.9404 41.6194 38.4393 40.0137 38.4393Z" fill="#F2BB88"/>
<path d="M38.4321 38.2954C37.3959 38.1031 36.4611 37.7253 35.6484 37.2061V41.2885L38.4321 44.7245V38.2954Z" fill="#E3A76F"/>
<path d="M55.8391 45.4658L44.3405 41.0127L39.994 46.3779L35.6475 41.0127L24.161 45.4658C24.161 45.4658 19.9082 47.2141 19.9082 52.0624V62.1461C19.9082 62.4085 20.0124 62.6601 20.198 62.8457C20.3835 63.0312 20.6351 63.1354 20.8975 63.1354H59.1113C59.3714 63.1354 59.6208 63.0321 59.8048 62.8482C59.9887 62.6642 60.092 62.4148 60.092 62.1547V52.0624C60.0919 47.2143 55.8391 45.4658 55.8391 45.4658Z" fill="#E4EAF8"/>
<path d="M22.6919 62.1462V50.8098C22.6919 47.4835 24.6936 45.6167 25.9504 44.7722L24.1611 45.4659C24.1611 45.4659 19.9082 47.2142 19.9082 52.0625V62.1462C19.9082 62.4086 20.0125 62.6602 20.198 62.8457C20.3835 63.0312 20.6351 63.1355 20.8975 63.1355H23.6812C23.4188 63.1355 23.1672 63.0312 22.9817 62.8457C22.7962 62.6602 22.6919 62.4086 22.6919 62.1462Z" fill="#D8DCE5"/>
<path d="M45.0258 21.252C44.912 21.1297 44.7586 21.0515 44.5928 21.0313C44.427 21.0111 44.2594 21.0501 44.1195 21.1415C41.0249 23.1631 36.932 24.441 32.9102 24.1522C32.5023 24.1212 32.1504 24.4467 32.1504 24.8589V31.0731C32.1504 35.067 35.2798 38.7149 40.0135 38.7149C44.2272 38.7149 47.6554 35.2868 47.6554 31.0731V24.3572C47.6555 23.9858 47.6715 24.0959 45.0258 21.252Z" fill="#F2D1A5"/>
<path d="M34.9341 31.0731V24.1683C34.2608 24.204 33.5845 24.2006 32.9102 24.1522C32.5024 24.1212 32.1504 24.4467 32.1504 24.8587V31.073C32.1504 35.0669 35.2798 38.7148 40.0136 38.7148C40.4503 38.7148 40.8779 38.676 41.2948 38.6053C37.6891 37.9939 34.9341 34.85 34.9341 31.0731Z" fill="#F2BB88"/>
<path d="M45.2422 49.1348L48.4925 42.6209L44.3406 41.0129L39.9941 46.3781L44.2319 49.3878C44.5748 49.6313 45.0543 49.5113 45.2422 49.1348Z" fill="#D8DCE5"/>
<path d="M34.7522 49.1348L31.502 42.6209L35.6538 41.0129L40.0004 46.378L35.7627 49.3877C35.4197 49.6313 34.9403 49.5113 34.7522 49.1348Z" fill="#D8DCE5"/>
<path d="M39.9995 46.3816V46.3779L39.9969 46.3798L39.9943 46.3779V46.3816L36.9121 48.5707L38.369 50.7634H41.6248L43.0816 48.5707L39.9995 46.3816Z" fill="#EE5253"/>
<path d="M36.1602 63.1355H43.8329L41.6244 50.7634H38.3687L36.1602 63.1355Z" fill="#FF6B6B"/>
<path d="M41.5393 47.4752L39.9995 46.3816V46.3779L39.9969 46.3798L39.9943 46.3779V46.3816L36.9121 48.5707L38.3691 50.7634H41.4539L40.2577 48.963C40.1878 48.8578 40.1616 48.7296 40.1846 48.6055C40.2077 48.4813 40.2781 48.371 40.381 48.2979L41.5393 47.4752Z" fill="#D83941"/>
<path d="M38.3687 50.7634L36.1602 63.1355H39.245L41.4534 50.7634H38.3687Z" fill="#EE5253"/>
<path d="M27.9911 63.1355V53.7289C27.9911 53.5048 27.902 53.2898 27.7435 53.1313C27.585 52.9728 27.3701 52.8838 27.1459 52.8838C26.9218 52.8838 26.7068 52.9728 26.5483 53.1313C26.3898 53.2898 26.3008 53.5048 26.3008 53.7289V63.1355H27.9911ZM53.6986 63.1355V53.7289C53.6986 53.2621 53.3202 52.8838 52.8534 52.8838C52.3866 52.8838 52.0083 53.2621 52.0083 53.7289V63.1355H53.6986Z" fill="#D8DCE5"/>
<path d="M45.9619 61.2875C46.2908 60.9669 46.1094 60.4084 45.6549 60.3424L42.3793 59.8664C42.2904 59.8535 42.2059 59.8191 42.1333 59.7663C42.0606 59.7135 42.0019 59.6439 41.9621 59.5633L40.4971 56.595C40.2939 56.1832 39.7066 56.1832 39.5033 56.595L38.0384 59.5633C37.9986 59.6439 37.9399 59.7136 37.8672 59.7664C37.7945 59.8192 37.7101 59.8535 37.6212 59.8664L34.3454 60.3424C33.891 60.4084 33.7095 60.9669 34.0384 61.2875L36.4087 63.5979C36.473 63.6606 36.5211 63.738 36.5489 63.8235C36.5767 63.9089 36.5832 63.9998 36.5681 64.0884L36.0085 67.3508C35.9308 67.8034 36.406 68.1486 36.8124 67.9349L39.7422 66.3945C39.8217 66.3527 39.9102 66.3309 40.0001 66.3309C40.0899 66.3309 40.1784 66.3527 40.2579 66.3945L43.1878 67.9349C43.5943 68.1486 44.0693 67.8034 43.9917 67.3508L43.4321 64.0884C43.4169 63.9998 43.4235 63.9089 43.4512 63.8235C43.479 63.738 43.5271 63.6606 43.5915 63.5979L45.9619 61.2875ZM61.137 61.2875C61.4659 60.9669 61.2844 60.4084 60.8299 60.3424L57.5543 59.8664C57.4654 59.8535 57.381 59.8191 57.3083 59.7663C57.2356 59.7135 57.1769 59.6439 57.1371 59.5633L55.6721 56.595C55.4689 56.1832 54.8816 56.1832 54.6784 56.595L53.2134 59.5633C53.1737 59.6439 53.1149 59.7136 53.0422 59.7664C52.9696 59.8192 52.8851 59.8535 52.7962 59.8664L49.5205 60.3424C49.066 60.4084 48.8846 60.9669 49.2134 61.2875L51.5837 63.5979C51.648 63.6606 51.6962 63.738 51.7239 63.8235C51.7517 63.9089 51.7583 63.9998 51.7431 64.0884L51.1835 67.3508C51.1059 67.8034 51.581 68.1486 51.9874 67.9349L54.9172 66.3945C54.9968 66.3527 55.0853 66.3309 55.1751 66.3309C55.2649 66.3309 55.3534 66.3527 55.4329 66.3945L58.3628 67.9349C58.7693 68.1486 59.2443 67.8034 59.1667 67.3508L58.6071 64.0884C58.5919 63.9998 58.5985 63.9089 58.6263 63.8235C58.654 63.738 58.7021 63.6606 58.7665 63.5979L61.137 61.2875ZM30.7869 61.2875C31.1158 60.9669 30.9344 60.4084 30.4799 60.3424L27.2042 59.8664C27.1153 59.8535 27.0309 59.8191 26.9583 59.7663C26.8856 59.7135 26.8268 59.6439 26.7871 59.5633L25.322 56.5951C25.1188 56.1833 24.5314 56.1833 24.3282 56.5951L22.8633 59.5633C22.8235 59.6439 22.7648 59.7136 22.6921 59.7664C22.6194 59.8192 22.535 59.8535 22.4461 59.8664L19.1703 60.3424C18.7159 60.4084 18.5344 60.9669 18.8632 61.2875L21.2335 63.5979C21.2978 63.6606 21.3459 63.738 21.3737 63.8235C21.4014 63.9089 21.408 63.9998 21.3928 64.0884L20.8333 67.3508C20.7556 67.8034 21.2307 68.1486 21.6372 67.9349L24.567 66.3945C24.6465 66.3527 24.735 66.3309 24.8248 66.3309C24.9147 66.3309 25.0032 66.3527 25.0827 66.3945L28.0125 67.9349C28.4191 68.1486 28.8941 67.8034 28.8164 67.3508L28.2569 64.0884C28.2417 63.9998 28.2483 63.9089 28.276 63.8235C28.3038 63.738 28.3519 63.6606 28.4162 63.5979L30.7869 61.2875Z" fill="#FBC856"/>
<path d="M38.8217 64.0886C38.8369 64.0001 38.8303 63.9092 38.8026 63.8237C38.7748 63.7383 38.7267 63.6609 38.6624 63.5982L36.2921 61.2877C35.9632 60.9672 36.1447 60.4087 36.5992 60.3426L39.875 59.8666C39.9639 59.8537 40.0483 59.8194 40.121 59.7666C40.1937 59.7138 40.2524 59.6441 40.2922 59.5636L41.1271 57.8716L40.4971 56.5952C40.2938 56.1834 39.7066 56.1834 39.5033 56.5952L38.0384 59.5636C37.9986 59.6441 37.9399 59.7138 37.8672 59.7666C37.7945 59.8194 37.7101 59.8537 37.6212 59.8666L34.3454 60.3426C33.891 60.4087 33.7095 60.9672 34.0383 61.2877L36.4086 63.5982C36.4729 63.6609 36.521 63.7383 36.5488 63.8237C36.5766 63.9092 36.5831 64.0001 36.5679 64.0886L36.0084 67.3511C35.9307 67.8036 36.4058 68.1488 36.8124 67.9352L38.2956 67.1554L38.8217 64.0886ZM53.9967 64.0886C54.0119 64.0001 54.0054 63.9092 53.9776 63.8237C53.9498 63.7383 53.9017 63.6609 53.8374 63.5982L51.467 61.2877C51.1381 60.9672 51.3196 60.4087 51.7741 60.3426L55.0499 59.8666C55.1388 59.8537 55.2232 59.8194 55.2959 59.7666C55.3686 59.7138 55.4273 59.6441 55.4671 59.5636L56.302 57.8716L55.672 56.5952C55.4688 56.1834 54.8815 56.1834 54.6783 56.5952L53.2133 59.5636C53.1735 59.6441 53.1148 59.7138 53.0421 59.7666C52.9695 59.8194 52.885 59.8537 52.7961 59.8666L49.5203 60.3426C49.0659 60.4087 48.8844 60.9672 49.2132 61.2877L51.5835 63.5982C51.6478 63.6609 51.6959 63.7383 51.7237 63.8237C51.7515 63.9092 51.758 64.0001 51.7428 64.0886L51.1833 67.3511C51.1056 67.8036 51.5808 68.1488 51.9872 67.9352L53.4704 67.1554L53.9967 64.0886ZM23.6466 64.0886C23.6618 64.0001 23.6552 63.9092 23.6275 63.8237C23.5997 63.7383 23.5516 63.6609 23.4872 63.5982L21.117 61.2877C20.7881 60.9672 20.9695 60.4087 21.4241 60.3426L24.6999 59.8666C24.7888 59.8537 24.8732 59.8194 24.9459 59.7666C25.0185 59.7138 25.0773 59.6441 25.117 59.5636L25.952 57.8716L25.322 56.5952C25.1187 56.1834 24.5314 56.1834 24.3282 56.5952L22.8633 59.5634C22.8235 59.644 22.7648 59.7137 22.6921 59.7665C22.6194 59.8193 22.535 59.8536 22.4461 59.8665L19.1703 60.3425C18.7159 60.4086 18.5344 60.9671 18.8632 61.2876L21.2335 63.5981C21.2978 63.6608 21.3459 63.7382 21.3737 63.8236C21.4014 63.9091 21.408 64 21.3928 64.0885L20.8333 67.3509C20.7556 67.8035 21.2307 68.1487 21.6373 67.9351L23.1205 67.1553L23.6466 64.0886Z" fill="#F4B537"/>
</g>
<defs>
<clipPath id="clip0_1511_5502">
<rect width="56" height="56" fill="white" transform="translate(12 12)"/>
</clipPath>
</defs>
</svg>
