<svg width="80" height="80" viewBox="0 0 80 80" fill="none" xmlns="http://www.w3.org/2000/svg">
<rect width="80" height="80" rx="16" fill="white"/>
<path d="M10.832 16.8633L10.832 54.7985C10.832 56.8936 12.5304 58.592 14.6256 58.592H65.2058C67.3009 58.592 68.9994 56.8936 68.9994 54.7985V16.8633C68.9994 14.7682 67.3009 13.0698 65.2058 13.0698H14.6256C12.5304 13.0698 10.832 14.7682 10.832 16.8633Z" fill="#D2D6DF"/>
<path d="M14.625 18.1276L14.625 53.5338C14.625 54.2322 15.1911 54.7983 15.8895 54.7983H58.8827C59.5811 54.7983 60.1472 54.2322 60.1472 53.5338V18.1276C60.1472 17.4293 59.5811 16.8631 58.8827 16.8631H15.8895C15.1911 16.8631 14.625 17.4293 14.625 18.1276Z" fill="#F0F7FC"/>
<path d="M43.7095 32.0374L37.387 34.5664L31.0645 32.0374L32.329 25.7148H42.445L43.7095 32.0374Z" fill="url(#paint0_linear_1511_5528)"/>
<path d="M47.5016 25.7149L37.3856 29.5084L27.2695 25.7149L37.3856 21.9214L47.5016 25.7149Z" fill="url(#paint1_linear_1511_5528)"/>
<path d="M62.6758 32.0374V39.6244C62.6758 40.3228 63.2419 40.8889 63.9403 40.8889H65.2048C65.9032 40.8889 66.4693 40.3228 66.4693 39.6244V32.0374C66.4693 31.339 65.9032 30.7729 65.2048 30.7729H63.9403C63.2419 30.7729 62.6758 31.339 62.6758 32.0374Z" fill="#979797"/>
<path d="M14.625 24.4503H15.3331C15.8649 24.4508 16.3832 24.2837 16.8146 23.9727C17.2459 23.6617 17.5682 23.2226 17.7357 22.7179L18.4185 20.6568L20.4797 19.974C20.9843 19.8065 21.4234 19.4842 21.7344 19.0528C22.0454 18.6215 22.2125 18.1032 22.212 17.5714V16.8633H15.8895C15.5541 16.8633 15.2325 16.9965 14.9954 17.2336C14.7582 17.4708 14.625 17.7924 14.625 18.1278V24.4503ZM14.625 47.2114H15.3331C15.8649 47.211 16.3832 47.3781 16.8146 47.6891C17.2459 48.0001 17.5682 48.4391 17.7357 48.9438L18.4185 51.005L20.4797 51.6878C20.9843 51.8553 21.4234 52.1776 21.7344 52.6089C22.0454 53.0402 22.2125 53.5586 22.212 54.0904V54.7985H15.8895C15.5541 54.7985 15.2325 54.6653 14.9954 54.4281C14.7582 54.191 14.625 53.8694 14.625 53.534V47.2114ZM60.1472 24.4503H59.4391C58.9074 24.4508 58.389 24.2837 57.9577 23.9727C57.5264 23.6617 57.2041 23.2226 57.0366 22.7179L56.3537 20.6568L54.2926 19.974C53.7879 19.8065 53.3489 19.4842 53.0379 19.0528C52.7269 18.6215 52.5597 18.1032 52.5602 17.5714V16.8633H58.8827C59.2181 16.8633 59.5397 16.9965 59.7769 17.2336C60.014 17.4708 60.1472 17.7924 60.1472 18.1278V24.4503ZM48.7667 39.6244H26.0056C25.6702 39.6244 25.3486 39.4912 25.1114 39.254C24.8743 39.0169 24.7411 38.6953 24.7411 38.3599C24.7411 38.0245 24.8743 37.7029 25.1114 37.4658C25.3486 37.2286 25.6702 37.0954 26.0056 37.0954H48.7667C49.1021 37.0954 49.4237 37.2286 49.6608 37.4658C49.898 37.7029 50.0312 38.0245 50.0312 38.3599C50.0312 38.6953 49.898 39.0169 49.6608 39.254C49.4237 39.4912 49.1021 39.6244 48.7667 39.6244ZM48.7667 44.6824H26.0056C25.6702 44.6824 25.3486 44.5492 25.1114 44.3121C24.8743 44.0749 24.7411 43.7533 24.7411 43.4179C24.7411 43.0826 24.8743 42.7609 25.1114 42.5238C25.3486 42.2866 25.6702 42.1534 26.0056 42.1534H48.7667C49.1021 42.1534 49.4237 42.2866 49.6608 42.5238C49.898 42.7609 50.0312 43.0826 50.0312 43.4179C50.0312 43.7533 49.898 44.0749 49.6608 44.3121C49.4237 44.5492 49.1021 44.6824 48.7667 44.6824Z" fill="#D7E9F7"/>
<path d="M59.5794 67.7977L56.3549 66.1791L53.1304 67.7977C52.937 67.8951 52.7217 67.9413 52.5053 67.9317C52.2889 67.9221 52.0786 67.857 51.8945 67.7428C51.7105 67.6286 51.5588 67.469 51.4542 67.2793C51.3496 67.0896 51.2954 66.8762 51.2969 66.6596V58.592H61.413V66.6596C61.4145 66.8762 61.3603 67.0896 61.2557 67.2793C61.151 67.469 60.9994 67.6286 60.8153 67.7428C60.6313 67.857 60.421 67.9221 60.2045 67.9317C59.9881 67.9413 59.7729 67.8951 59.5794 67.7977Z" fill="#E0633D"/>
<path d="M44.9737 49.7404H29.7997C29.4643 49.7404 29.1427 49.6072 28.9055 49.3701C28.6684 49.1329 28.5352 48.8113 28.5352 48.4759C28.5352 48.1406 28.6684 47.8189 28.9055 47.5818C29.1427 47.3446 29.4643 47.2114 29.7997 47.2114H44.9737C45.3091 47.2114 45.6307 47.3446 45.8679 47.5818C46.105 47.8189 46.2383 48.1406 46.2383 48.4759C46.2383 48.8113 46.105 49.1329 45.8679 49.3701C45.6307 49.6072 45.3091 49.7404 44.9737 49.7404Z" fill="#D7E9F7"/>
<path d="M56.3555 62.3857C61.244 62.3857 65.207 58.4227 65.207 53.5342C65.207 48.6456 61.244 44.6826 56.3555 44.6826C51.4669 44.6826 47.5039 48.6456 47.5039 53.5342C47.5039 58.4227 51.4669 62.3857 56.3555 62.3857Z" fill="url(#paint2_linear_1511_5528)"/>
<path d="M56.3538 59.8565C59.8456 59.8565 62.6763 57.0258 62.6763 53.534C62.6763 50.0421 59.8456 47.2114 56.3538 47.2114C52.8619 47.2114 50.0312 50.0421 50.0312 53.534C50.0312 57.0258 52.8619 59.8565 56.3538 59.8565Z" fill="#F0F7FC"/>
<path d="M55.7217 56.0632C55.0515 56.0632 54.8745 55.7344 53.5594 54.432C53.3213 54.1939 53.1875 53.8709 53.1875 53.5342C53.1875 53.1974 53.3213 52.8745 53.5594 52.6364C53.7975 52.3983 54.1204 52.2645 54.4572 52.2645C54.7939 52.2645 55.1169 52.3983 55.355 52.6364L55.7217 53.0157L57.3529 51.3719C57.4708 51.254 57.6108 51.1605 57.7648 51.0967C57.9189 51.0328 58.084 51 58.2507 51C58.4174 51 58.5825 51.0328 58.7366 51.0967C58.8906 51.1605 59.0306 51.254 59.1485 51.3719C59.2664 51.4898 59.3599 51.6297 59.4237 51.7838C59.4875 51.9378 59.5204 52.1029 59.5204 52.2697C59.5204 52.4364 59.4875 52.6015 59.4237 52.7556C59.3599 52.9096 59.2664 53.0496 59.1485 53.1675C56.3539 55.9241 56.3539 56.0632 55.7217 56.0632Z" fill="#E0633D"/>
<defs>
<linearGradient id="paint0_linear_1511_5528" x1="37.387" y1="25.7148" x2="37.387" y2="34.5664" gradientUnits="userSpaceOnUse">
<stop stop-color="#FE9661"/>
<stop offset="1" stop-color="#FFB369"/>
</linearGradient>
<linearGradient id="paint1_linear_1511_5528" x1="37.3856" y1="25.7149" x2="37.3856" y2="34.5665" gradientUnits="userSpaceOnUse">
<stop stop-color="#FE9661"/>
<stop offset="1" stop-color="#FFB369"/>
</linearGradient>
<linearGradient id="paint2_linear_1511_5528" x1="56.3555" y1="62.3857" x2="56.3555" y2="44.6826" gradientUnits="userSpaceOnUse">
<stop stop-color="#FE9661"/>
<stop offset="1" stop-color="#FFB369"/>
</linearGradient>
</defs>
</svg>
