<svg width="80" height="80" viewBox="0 0 80 80" fill="none" xmlns="http://www.w3.org/2000/svg">
<rect width="80" height="80" rx="16" fill="white"/>
<path d="M57.749 18.2151H56.1342L39.9999 20.5491L23.8657 18.2151H22.0177C20.0253 18.2151 18.4102 16.6 18.4102 14.6076C18.41 12.6151 20.0253 11 22.0177 11H57.749C59.7414 11 61.3565 12.6151 61.3565 14.6076C61.3566 16.6 59.7414 18.2151 57.749 18.2151Z" fill="#6C6C6C"/>
<path d="M57.9815 11H54.4805C56.4729 11 58.088 12.6151 58.088 14.6076C58.088 16.6 56.4729 18.2151 54.4805 18.2151H57.9815C59.9739 18.2151 61.589 16.6 61.589 14.6076C61.5891 12.6151 59.9739 11 57.9815 11Z" fill="#6C6C6C"/>
<path d="M55.9023 22.7439V18.2151H23.8672V22.7439C23.8672 29.7692 28.3576 35.745 34.6247 37.9595C35.0467 38.1086 35.4121 38.3849 35.6705 38.7503C35.9289 39.1158 36.0676 39.5523 36.0676 39.9999C36.0676 40.4474 35.9289 40.884 35.6705 41.2494C35.4121 41.6148 35.0467 41.8911 34.6247 42.0402C28.3577 44.2548 23.8672 50.2305 23.8672 57.2559V61.7846H55.9022V57.2559C55.9022 50.2305 51.4118 44.2548 45.1447 42.0402C44.7226 41.8912 44.3572 41.6149 44.0987 41.2495C43.8402 40.8841 43.7014 40.4475 43.7013 39.9999H43.9347C43.9347 39.0825 44.2797 38.2651 45.1447 37.9595C51.4118 35.7451 55.9023 29.7692 55.9023 22.7439Z" fill="#EFEDEF"/>
<path d="M23.8672 18.2151V20.5023H50.3931C51.6311 20.5023 52.6347 21.5059 52.6347 22.7439C52.6347 29.7474 48.1721 35.7079 41.9355 37.9387C41.1639 38.2147 40.5736 38.8735 40.4566 39.6845C40.3837 40.181 40.4855 40.6874 40.7446 41.117C41.0037 41.5467 41.4041 41.8731 41.8772 42.0402C48.1442 44.2548 52.6347 50.2306 52.6347 57.2559V61.7846H56.1357V57.2559C56.1357 50.2523 51.6731 44.2919 45.4365 42.061C44.6649 41.785 44.0746 41.1263 43.9576 40.3152C43.8847 39.8187 43.9865 39.3124 44.2456 38.8827C44.5047 38.453 44.9051 38.1266 45.3782 37.9595C51.6452 35.745 56.1357 29.7691 56.1357 22.7439V18.2151H23.8672Z" fill="#D7D0D6"/>
<path d="M57.749 69H22.0177C20.0253 69 18.4102 67.3849 18.4102 65.3925C18.4102 63.4001 20.0253 61.7849 22.0177 61.7849H23.8659L40.0002 59.4509L56.1344 61.7849H57.7492C59.7416 61.7849 61.3568 63.4001 61.3568 65.3925C61.3566 67.3849 59.7414 69 57.749 69Z" fill="#6C6C6C"/>
<path d="M57.9815 61.7849H54.4805C56.4729 61.7849 58.088 63.4 58.088 65.3925C58.088 67.3849 56.4729 69 54.4805 69H57.9815C59.9739 69 61.589 67.3849 61.589 65.3925C61.5891 63.4 59.9739 61.7849 57.9815 61.7849Z" fill="#6C6C6C"/>
<path d="M47.7707 49.1278H46.0714C44.3625 49.1278 42.6712 47.8916 42.3917 46.2059L41.6984 42.0241C41.3455 39.8958 42.9872 37.9595 45.1447 37.9595C49.3313 36.4802 52.7225 33.3209 54.5144 29.293H25.2549C27.0467 33.321 30.438 36.4802 34.6246 37.9595C36.782 37.9595 38.4238 39.8958 38.0709 42.0241L37.3776 46.2059C37.0981 47.8916 35.64 49.1278 33.9313 49.1278H31.9986C27.5437 49.1278 23.8915 52.7122 23.8674 57.167L23.8672 57.256V61.7848H55.9022V57.256L55.902 57.167C55.8778 52.7122 52.2256 49.1278 47.7707 49.1278Z" fill="#FBC856"/>
<path d="M56.1353 57.167C56.1111 52.7122 52.459 49.1278 48.0041 49.1278H46.0713C44.3625 49.1278 42.9045 47.8916 42.625 46.2059L41.9317 42.0241C41.5788 39.8958 43.2206 37.9595 45.378 37.9595C49.5646 36.4802 52.9558 33.3209 54.7477 29.293H51.2467C49.4549 33.321 46.0636 36.4802 41.877 37.9595C39.7196 37.9595 38.0778 39.8958 38.4307 42.0241L39.124 46.2059C39.4035 47.8916 40.8616 49.1278 42.5703 49.1278H44.5031C48.958 49.1278 52.6103 52.7122 52.6343 57.167L52.6345 57.256V61.7848H56.1355V57.256L56.1353 57.167Z" fill="#FBC856"/>
</svg>
