<svg width="23" height="21" viewBox="0 0 23 21" fill="none" xmlns="http://www.w3.org/2000/svg">
<path d="M6.56406 20.5C7.6134 20.5 8.46406 19.6493 8.46406 18.6C8.46406 17.5506 7.6134 16.7 6.56406 16.7C5.51472 16.7 4.66406 17.5506 4.66406 18.6C4.66406 19.6493 5.51472 20.5 6.56406 20.5Z" fill="#754FFE"/>
<path d="M17.9703 20.5C19.0197 20.5 19.8703 19.6493 19.8703 18.6C19.8703 17.5506 19.0197 16.7 17.9703 16.7C16.921 16.7 16.0703 17.5506 16.0703 18.6C16.0703 19.6493 16.921 20.5 17.9703 20.5Z" fill="#754FFE"/>
<path d="M0.867188 1.5H3.40052L4.16052 5.3M4.16052 5.3L5.93385 14.1667H18.6005L21.1339 5.3H4.16052Z" stroke="#754FFE" stroke-width="2" stroke-linecap="round" stroke-linejoin="round"/>
</svg>
