<svg width="267" height="99" viewBox="0 0 267 99" fill="none" xmlns="http://www.w3.org/2000/svg">
<g clip-path="url(#clip0_1499_5270)">
<path d="M107.345 46.8025V38.8466C107.345 38.2193 107.227 37.7973 106.992 37.5806C106.756 37.3652 106.323 37.2565 105.696 37.2565H100.921C98.7204 37.2565 97.1589 36.7362 96.2364 35.6956C95.3139 34.6551 94.8523 33.2116 94.8516 31.3654V22.2375C94.8516 20.3927 95.3442 18.9593 96.3294 17.9376C97.3147 16.9158 98.9453 16.4053 101.221 16.406H107.706C109.945 16.406 111.565 16.9165 112.567 17.9376C113.569 18.9586 114.07 20.392 114.07 22.2375V27.4219H107.228V23.1805C107.228 22.5533 107.12 22.1309 106.904 21.9134C106.688 21.696 106.245 21.588 105.577 21.5894H103.337C102.668 21.5894 102.217 21.6939 101.977 21.9134C101.738 22.133 101.624 22.5522 101.624 23.1805V30.6618C101.624 31.25 101.742 31.6623 101.977 31.8985C102.213 32.1348 102.664 32.2519 103.337 32.2519H107.992C110.232 32.2519 111.823 32.7527 112.766 33.7542C113.709 34.7558 114.18 36.1797 114.181 38.0259V47.7486C114.181 49.5949 113.68 51.0286 112.678 52.0496C111.676 53.0707 110.038 53.5812 107.762 53.5812H101.393C99.114 53.5812 97.4754 53.0707 96.4769 52.0496C95.4784 51.0286 94.976 49.5939 94.9698 47.7455V42.6228H101.747V46.8046C101.747 47.3942 101.865 47.8068 102.101 48.0424C102.337 48.2776 102.788 48.3958 103.461 48.3958H105.701C106.328 48.3958 106.761 48.2776 106.997 48.0424C107.232 47.8072 107.345 47.3921 107.345 46.8025Z" fill="#754FFE"/>
<path d="M125.615 23.1808V39.265H118.838V22.2378C118.838 20.3929 119.349 18.9596 120.37 17.9378C121.392 16.9161 123.022 16.4056 125.262 16.4063H129.269V21.5896H127.324C126.656 21.5896 126.203 21.6976 125.965 21.9137C125.726 22.1297 125.61 22.5521 125.615 23.1808ZM125.615 36.9651V46.8027C125.615 47.3924 125.733 47.805 125.969 48.0406C126.205 48.2761 126.658 48.3939 127.329 48.3939H129.211V53.5783H125.263C123.023 53.5783 121.392 53.0678 120.371 52.0467C119.35 51.0257 118.84 49.592 118.839 47.7457V36.9651H125.615ZM132.1 46.8027V37.2599H138.878V47.7457C138.878 49.592 138.377 51.0257 137.375 52.0467C136.373 53.0678 134.732 53.5783 132.454 53.5783H128.21V48.3939H130.45C131.118 48.3939 131.56 48.2761 131.776 48.0406C131.992 47.805 132.1 47.3924 132.1 46.8027ZM132.1 39.263V23.1808C132.1 22.5535 131.992 22.1311 131.776 21.9137C131.56 21.6962 131.118 21.5882 130.45 21.5896H128.439V16.4063H132.447C134.725 16.4063 136.366 16.9168 137.368 17.9378C138.371 18.9589 138.872 20.3922 138.871 22.2378V39.265L132.1 39.263Z" fill="white"/>
<path d="M144.355 16.406H151.192V53.5781H144.355V16.406ZM162.389 16.406V21.5894H147.42V16.406H162.389ZM160.327 32.9001V37.8482H147.776V32.9001H160.327Z" fill="white"/>
<path d="M183.017 16.406V21.5894H163.215V16.406H183.017ZM169.697 17.9961H176.475V53.5781H169.697V17.9961Z" fill="white"/>
<path d="M195.629 16.406H202.406V53.5781H195.629V16.406ZM198.516 53.5781V48.3937H212.307V53.5781H198.516Z" fill="white"/>
<path d="M231.754 45.5072H226.273L221.322 27.539V53.5781H215.311V16.406H222.737L228.984 38.4964L235.231 16.406H242.657V53.5781H236.705V27.4805L231.754 45.5072Z" fill="white"/>
<path d="M260.163 46.8025V38.8466C260.163 38.2193 260.045 37.7973 259.81 37.5806C259.574 37.3638 259.142 37.2558 258.513 37.2565H253.74C251.54 37.2565 249.978 36.7362 249.054 35.6956C248.131 34.6551 247.671 33.2127 247.674 31.3685V22.2375C247.674 20.3927 248.162 18.9593 249.138 17.9376C250.114 16.9158 251.745 16.4053 254.03 16.406H260.515C262.754 16.406 264.374 16.9165 265.377 17.9376C266.38 18.9586 266.881 20.392 266.88 22.2375V27.4219H260.043V23.1805C260.043 22.5533 259.935 22.1309 259.72 21.9134C259.504 21.696 259.062 21.588 258.393 21.5894H256.153C255.485 21.5894 255.034 21.6939 254.793 21.9134C254.553 22.133 254.44 22.5522 254.44 23.1805V30.6618C254.44 31.25 254.558 31.6623 254.793 31.8985C255.03 32.1348 255.481 32.2519 256.153 32.2519H260.81C263.049 32.2519 264.64 32.7527 265.583 33.7542C266.527 34.7558 266.998 36.1797 266.998 38.0259V47.7486C266.998 49.5949 266.497 51.0286 265.495 52.0496C264.493 53.0707 262.855 53.5812 260.579 53.5812H254.211C251.932 53.5812 250.292 53.0707 249.29 52.0496C248.288 51.0286 247.787 49.5949 247.787 47.7486V42.6259H254.564V46.8077C254.564 47.3974 254.682 47.81 254.918 48.0455C255.154 48.2808 255.605 48.3989 256.278 48.3989H258.517C259.144 48.3989 259.577 48.2811 259.814 48.0455C260.051 47.81 260.167 47.3956 260.163 46.8025Z" fill="white"/>
<path d="M36.0045 65.004C34.8945 62.5709 34.4522 59.8863 34.7233 57.2258C34.3946 59.2453 34.3243 61.2983 34.5141 63.3354C34.5894 64.1436 34.7024 64.9036 34.8362 65.6062C34.2898 65.7577 33.7167 65.7873 33.1575 65.6929C33.167 65.6668 33.1732 65.6438 33.1806 65.625C33.4671 64.7771 33.4943 63.2403 32.256 60.2179C33.1063 62.5702 32.8532 63.9763 32.4348 64.8388C32.3449 65.0239 32.2361 65.2089 32.121 65.4211C31.4328 65.1619 31.3753 64.8482 31.4401 63.8205C31.5657 61.8195 31.6849 59.8175 31.7979 57.8144C31.8512 56.8652 32.1556 56.0487 32.8814 55.3952C32.9282 55.3522 32.9683 55.3025 33.0007 55.2478C33.601 55.1537 34.2411 55.4214 34.8697 55.6587C35.1532 56.2306 35.6019 56.7784 35.6657 57.367C35.9031 59.6973 35.992 62.0433 36.1667 64.3819C36.1828 64.4912 36.1767 64.6026 36.1489 64.7094C36.121 64.8163 36.0719 64.9165 36.0045 65.004Z" fill="white"/>
<path d="M78.1614 60.383L70.5555 43.2146C70.3151 43.3894 70.0367 43.5048 69.7431 43.5514C69.4496 43.5979 69.1491 43.5744 68.8664 43.4826C68.5837 43.3908 68.3267 43.2334 68.1166 43.0233C67.9064 42.8132 67.749 42.5563 67.6572 42.2737C66.058 37.36 64.053 33.8442 61.7018 31.8129C61.2869 31.4567 60.8933 31.0766 60.523 30.6744L60.0764 30.459C59.589 30.2238 59.2093 30.2144 58.7167 30.4506C47.7966 35.7274 36.8703 40.9926 25.9376 46.2464C25.7724 46.3258 25.6176 46.4293 25.3613 46.5778C25.718 46.7179 25.9523 46.8141 26.1907 46.9008C28.3213 47.6776 30.4497 48.4627 32.5886 49.2186C33.0164 49.3691 33.2036 49.5667 33.1963 50.0487C33.166 51.5855 33.1963 53.1244 33.1712 54.6623C33.1643 54.8686 33.1057 55.0699 33.0007 55.2477C33.6011 55.1526 34.2412 55.4213 34.8698 55.6596C34.8572 55.6335 34.8436 55.6084 34.8321 55.5823C34.6679 55.231 34.4211 54.8713 34.4054 54.5065C34.3531 53.2321 34.4179 51.9524 34.3719 50.677C34.3489 50.0821 34.5644 49.8082 35.0915 49.5803C38.428 48.1365 41.7498 46.6531 45.0779 45.1894C47.335 44.1955 49.5925 43.2052 51.8503 42.2182C51.8691 42.2559 51.8858 42.2935 51.9036 42.3312C46.674 45.042 41.4507 47.7518 36.1709 50.492C36.2407 50.5437 36.3145 50.5898 36.3916 50.6299C43.8797 53.3425 51.3702 56.0492 58.8631 58.75C59.2209 58.8629 59.6047 58.8629 59.9624 58.75C62.1923 58.0255 64.4065 57.2571 66.628 56.5064C68.3946 55.9095 70.1632 55.3178 72.1317 54.656C71.8984 54.8483 71.8482 54.9142 71.7792 54.9456C67.7845 56.7368 63.7817 58.5217 59.771 60.3004C59.4894 60.3978 59.1828 60.3952 58.9029 60.2931C55.2098 58.9873 51.525 57.6564 47.8371 56.3339C45.4649 55.4829 43.0907 54.633 40.6443 53.76C40.6443 56.1311 40.6631 58.4196 40.6296 60.7091C40.6223 61.2695 40.7939 61.5246 41.32 61.7149C47.1865 63.833 53.0416 65.9897 58.906 68.1193C59.2137 68.2233 59.5467 68.2255 59.8557 68.1256C65.7463 65.9949 71.6254 63.8392 77.514 61.7034C78.0087 61.5236 78.1718 61.2852 78.1656 60.7499C78.1635 60.6245 78.1624 60.5032 78.1614 60.383Z" fill="white"/>
<path d="M89.6049 89.3987C89.5997 89.4206 89.5924 89.4447 89.5871 89.4677C90.4741 89.8284 91.3872 90.1378 92.2438 90.5623C94.5835 91.7206 96.4274 93.4676 98.0078 95.5188C98.8446 96.6123 99.7148 97.686 100.571 98.768C100.642 98.8667 100.736 98.9464 100.845 99.0001C100.81 98.9039 100.784 98.8036 100.741 98.7105C99.3337 95.6076 97.9266 92.5037 96.5195 89.3987C96.4693 89.2858 96.4149 89.1739 96.3678 89.061C96.2695 88.8415 96.1681 88.786 95.9191 88.7996C94.9987 88.8488 94.2457 88.1797 94.1954 87.3214C94.1944 87.3148 94.1944 87.3081 94.1954 87.3015C94.1836 87.0853 94.2154 86.8689 94.289 86.6653C94.3625 86.4616 94.4763 86.2748 94.6236 86.116C94.7708 85.9572 94.9485 85.8297 95.1461 85.7409C95.3437 85.6522 95.5572 85.6041 95.7737 85.5995C96.6345 85.5587 97.3792 86.2822 97.4106 87.1949C97.4106 87.2367 97.4106 87.2785 97.4106 87.3214C97.4006 87.5159 97.3521 87.7066 97.2679 87.8822C97.1837 88.0579 97.0655 88.2152 96.9201 88.3449C96.7642 88.4923 96.7109 88.6062 96.8092 88.8205C96.896 89.014 96.9849 89.2063 97.0717 89.3987C98.4593 92.4437 99.8424 95.4916 101.221 98.5422C101.241 98.5968 101.256 98.6531 101.266 98.7105L101.401 98.6363C101.229 97.6961 101.057 96.7552 100.885 95.8136C100.571 94.0949 100.205 92.3855 100.205 90.6229C100.205 90.2047 100.218 89.798 100.248 89.3903C100.294 88.6919 100.39 87.9977 100.535 87.313C100.761 86.2407 101.122 85.2012 101.61 84.2195C101.629 84.1711 101.643 84.121 101.653 84.07C101.319 83.9069 100.992 83.7386 100.673 83.5619C98.0779 82.1349 95.9474 80.2332 94.9056 77.2275C92.886 78.1371 90.9134 79.0268 88.877 79.9457C89.5175 81.0614 89.9402 82.2886 90.1226 83.5619C90.2878 84.811 90.2656 86.0778 90.0568 87.3203C89.944 88.0208 89.7932 88.7146 89.6049 89.3987Z" fill="#646A74"/>
<path d="M92.2723 70.0452L85.3086 73.1867L87.0197 76.9504C87.3335 77.6372 86.7697 76.3597 87.0846 77.0455C87.3042 77.5212 87.5155 77.6027 88.0018 77.3842C89.8949 76.5339 91.787 75.6815 93.678 74.8271C94.2261 74.5793 94.2941 74.3995 94.0535 73.8663C93.2231 72.0284 93.2618 72.158 92.4282 70.3222C92.3842 70.2302 92.3257 70.1413 92.2723 70.0452Z" fill="#CAB4A9"/>
<path d="M62.9648 22.7467L84.9145 72.3011L91.9786 69.1909L70.0227 19.6365H70.0175L62.9648 22.7467Z" fill="white"/>
<path d="M62.252 21.1473L62.9642 22.7468H62.9705L70.0221 19.6408H70.0273L69.3412 18.0883L69.3213 18.0433H69.314L69.2157 18.0862L62.2572 21.1441C62.2572 21.1441 62.254 21.1462 62.252 21.1473Z" fill="white"/>
<path d="M61.9091 22.0433L62.065 22.3935C62.1008 22.4758 62.1524 22.5502 62.217 22.6125C62.2816 22.6748 62.3579 22.7238 62.4414 22.7566C62.525 22.7894 62.6142 22.8054 62.7039 22.8038C62.7936 22.8021 62.8822 22.7828 62.9644 22.7469H62.9707L70.0223 19.6409H70.0275C70.1911 19.5666 70.3188 19.431 70.3831 19.2633C70.4473 19.0956 70.4428 18.9093 70.3706 18.7449L70.2148 18.3936C70.1416 18.2285 70.0062 18.0989 69.8379 18.0331C69.6696 17.9673 69.4821 17.9707 69.3163 18.0424H69.309L69.2107 18.0852L62.2574 21.1442C62.0942 21.2189 61.9668 21.3546 61.9027 21.5221C61.8385 21.6897 61.8427 21.8757 61.9143 22.0402L61.9091 22.0433Z" fill="#754FFE"/>
<path d="M98.7347 98.1238H9.19049C7.98335 98.1237 6.78806 97.8859 5.67288 97.424C4.55769 96.9621 3.54446 96.2851 2.69103 95.4318C1.8376 94.5785 1.16069 93.5655 0.698964 92.4506C0.237234 91.3358 -0.000274494 90.1409 2.38069e-07 88.9343H40.0838C40.0836 89.3038 40.1564 89.6696 40.2978 90.0109C40.4392 90.3523 40.6465 90.6624 40.9079 90.9236C41.1693 91.1848 41.4796 91.3919 41.8212 91.5331C42.1627 91.6743 42.5287 91.7469 42.8983 91.7466H86.6178C87.1404 91.7469 87.6528 91.6014 88.0974 91.3266C88.5419 91.0518 88.901 90.6585 89.1342 90.191L89.2639 90.2432C89.5359 90.3541 89.8109 90.4596 90.0839 90.5652C90.6613 90.7879 91.2072 90.9981 91.7166 91.251C93.5553 92.1616 95.2058 93.5866 96.7621 95.6064C97.3405 96.3612 97.9398 97.1129 98.5182 97.8405C98.5872 97.9346 98.6605 98.0277 98.7347 98.1238Z" fill="white"/>
<path d="M88.9462 83.5409C88.9368 83.4771 88.9274 83.4144 88.917 83.3506H12.5911C11.426 83.3506 10.3087 82.888 9.48483 82.0646C8.66101 81.2411 8.19819 80.1243 8.19819 78.9597V22.4761C8.19819 21.3115 8.66101 20.1947 9.48483 19.3713C10.3087 18.5478 11.426 18.0852 12.5911 18.0852H59.762C59.7559 17.358 59.963 16.6449 60.3578 16.034C60.7526 15.4231 61.3178 14.9412 61.9835 14.6477L62.3464 14.4878H9.39682C8.02454 14.4878 6.70848 15.0327 5.73813 16.0026C4.76779 16.9725 4.22266 18.288 4.22266 19.6596V83.7197C4.22266 84.5754 4.56268 85.3961 5.16797 86.0014C5.77325 86.6066 6.59422 86.9467 7.45036 86.947H88.8521C88.8657 86.8769 88.8762 86.8069 88.8866 86.7379C89.0666 85.6812 89.0867 84.6035 88.9462 83.5409Z" fill="white"/>
<path d="M61.1036 18.0821C61.1079 18.4042 61.1773 18.7221 61.3076 19.0167L62.2489 21.1474L69.2022 18.0852L69.3005 18.0424H69.3078L68.3665 15.9117C68.1103 15.3344 67.6359 14.8819 67.047 14.6531C66.4581 14.4243 65.8025 14.4378 65.2235 14.6906L62.5271 15.8783C62.1002 16.0662 61.7378 16.3751 61.4848 16.7669C61.2318 17.1586 61.0992 17.6159 61.1036 18.0821Z" fill="white"/>
<path d="M69.4491 42.2277C69.5059 42.2277 69.5623 42.2189 69.6164 42.2015C69.7522 42.1573 69.8648 42.0609 69.9295 41.9337C69.9942 41.8065 70.0058 41.6588 69.9616 41.523C68.2222 36.1912 65.9766 32.3063 63.2865 29.9823C61.7365 28.6441 60.9939 27.3875 59.5149 24.8857C59.2325 24.408 58.5736 23.2893 58.9177 22.3265C59.0034 22.0554 59.173 21.8186 59.402 21.6501C60.0295 21.2172 61.2072 21.4932 62.1914 22.3056C62.3022 22.3902 62.4414 22.4287 62.58 22.4128C62.7185 22.3969 62.8454 22.328 62.9342 22.2205C63.0229 22.113 63.0665 21.9753 63.0557 21.8364C63.045 21.6974 62.9807 21.568 62.8765 21.4755C61.4865 20.3255 59.8433 20.0422 58.7974 20.7625C58.381 21.0575 58.0696 21.4775 57.9084 21.9616C57.3854 23.4012 58.2316 24.8251 58.5914 25.4335C60.1299 28.0357 60.9029 29.3425 62.5857 30.7967C65.1263 32.9922 67.2641 36.7119 68.9407 41.8565C68.976 41.9638 69.044 42.0573 69.1352 42.1239C69.2263 42.1904 69.3361 42.2267 69.4491 42.2277Z" fill="#754FFE"/>
<path d="M265.989 58.4123C265.915 59.5885 264.906 60.4876 263.728 60.4876H94.2086C93.662 60.4887 93.1346 60.2867 92.7286 59.9209C92.7238 59.9179 92.7192 59.9144 92.715 59.9105C92.6899 59.8875 92.6648 59.8624 92.6387 59.8373C92.4277 59.6374 92.2582 59.398 92.1398 59.1327L73.7274 17.6073C73.4889 17.069 73.474 16.458 73.6861 15.9087C73.8983 15.3595 74.32 14.917 74.8586 14.6785C75.3971 14.44 76.0084 14.4252 76.5579 14.6372C77.1074 14.8493 77.5501 15.2708 77.7887 15.8092L95.6289 56.0475H263.774C264.078 56.0476 264.378 56.11 264.657 56.2308C264.936 56.3516 265.187 56.5284 265.394 56.75C265.602 56.9717 265.762 57.2336 265.864 57.5195C265.967 57.8054 266.009 58.1093 265.989 58.4123Z" fill="white"/>
<path d="M121.561 74.4966V71.2557C121.561 71.0017 121.526 70.8376 121.456 70.7696C121.386 70.7017 121.224 70.6651 120.97 70.6651H119.674C119.166 70.6651 118.788 70.5414 118.54 70.2939C118.293 70.0465 118.169 69.6684 118.168 69.1596V65.8623C118.168 65.3542 118.292 64.9764 118.54 64.729C118.789 64.4816 119.166 64.3575 119.674 64.3568H121.348C121.856 64.3568 122.234 64.4809 122.481 64.729C122.729 64.9771 122.853 65.3549 122.854 65.8623V67.6918H121.538V66.0724C121.538 65.8184 121.503 65.6542 121.433 65.5863C121.363 65.5183 121.201 65.4817 120.947 65.4817H120.073C119.831 65.4817 119.672 65.5162 119.596 65.5863C119.519 65.6563 119.482 65.8184 119.482 66.0724V68.9495C119.482 69.191 119.519 69.3488 119.596 69.4252C119.672 69.5015 119.831 69.5402 120.073 69.5402H121.368C121.877 69.5402 122.255 69.6639 122.502 69.9113C122.75 70.1587 122.874 70.5365 122.875 71.0446V74.7036C122.875 75.2117 122.75 75.5895 122.502 75.8369C122.254 76.0843 121.876 76.208 121.368 76.208H119.711C119.202 76.208 118.823 76.0843 118.576 75.8369C118.328 75.5895 118.205 75.2124 118.207 74.7057V72.8762H119.521V74.4966C119.521 74.7381 119.56 74.8971 119.636 74.9734C119.713 75.0497 119.871 75.0873 120.112 75.0873H120.97C121.224 75.0873 121.388 75.0497 121.456 74.9734C121.524 74.8971 121.561 74.735 121.561 74.4966Z" fill="#754FFE"/>
<path opacity="0.8" d="M125.696 68.683V73.5412H124.4V68.4729C124.4 67.9648 124.524 67.587 124.772 67.3396C125.019 67.0922 125.398 66.9681 125.907 66.9674H126.936V68.0923H126.287C126.046 68.0923 125.887 68.1268 125.81 68.1969C125.734 68.2669 125.696 68.4331 125.696 68.683ZM125.696 72.4173V74.4967C125.696 74.7382 125.735 74.8972 125.81 74.9735C125.886 75.0498 126.046 75.0874 126.287 75.0874H126.878V76.2113H125.907C125.398 76.2113 125.02 76.0876 124.772 75.8401C124.523 75.5927 124.4 75.2146 124.4 74.7058V72.4173H125.696ZM128.06 74.4936V72.5689H129.356V74.7058C129.356 75.2139 129.232 75.5917 128.985 75.8391C128.737 76.0865 128.359 76.2102 127.851 76.2102H126.688V75.0843H127.469C127.723 75.0843 127.887 75.0467 127.955 74.9703C128.023 74.894 128.06 74.7351 128.06 74.4967V74.4936ZM128.06 73.5224V68.683C128.06 68.4289 128.025 68.2648 127.955 68.1969C127.886 68.1289 127.723 68.0923 127.469 68.0923H126.821V66.9695H127.851C128.358 66.9695 128.736 67.0936 128.985 67.3417C129.234 67.5898 129.357 67.9676 129.356 68.4749V73.5245L128.06 73.5224Z" fill="white"/>
<path opacity="0.8" d="M133.776 66.9692V68.0941H130.215V66.9692H133.776ZM132.443 65.2734V76.2078H131.127V64.9671C131.127 64.459 131.251 64.0809 131.499 63.8328C131.747 63.5847 132.125 63.461 132.633 63.4617H133.776V64.6807H133.039C132.797 64.6807 132.638 64.7162 132.562 64.7852C132.486 64.8542 132.443 65.0173 132.443 65.2713V65.2734Z" fill="white"/>
<path opacity="0.8" d="M137.44 66.9696V68.0945H133.971V66.9696H137.44ZM136.124 65.4652V74.4007C136.124 74.6422 136.162 74.8011 136.238 74.8774C136.315 74.9537 136.474 74.9914 136.715 74.9914H137.44V76.2104H136.315C135.806 76.2104 135.428 76.0867 135.181 75.8392C134.933 75.5918 134.81 75.2141 134.81 74.706V65.4631L136.124 65.4652Z" fill="white"/>
<path opacity="0.8" d="M142.184 71.9404H140.869V68.4727C140.869 67.9646 140.993 67.5868 141.24 67.3394C141.488 67.092 141.866 66.9679 142.374 66.9672H143.137C143.429 66.9546 143.716 67.0457 143.947 67.2244C144.156 67.3959 144.261 67.6976 144.261 68.1298V69.3111H144.185V68.7779C144.185 68.5242 144.134 68.3462 144.032 68.2437C143.93 68.1413 143.765 68.0907 143.536 68.0921H142.774C142.532 68.0921 142.373 68.1266 142.298 68.1967C142.223 68.2667 142.183 68.4288 142.183 68.6828L142.184 71.9404ZM140.869 71.2358H142.184V74.4966C142.184 74.7381 142.223 74.897 142.299 74.9733C142.375 75.0496 142.533 75.0872 142.775 75.0872H143.537C143.766 75.0872 143.932 75.0371 144.033 74.9346C144.134 74.8321 144.186 74.6555 144.186 74.4014V73.9059H144.262V75.0496C144.262 75.481 144.158 75.7825 143.948 75.9539C143.717 76.1326 143.43 76.2237 143.138 76.2111H142.375C141.867 76.2111 141.489 76.0874 141.241 75.84C140.994 75.5925 140.87 75.2144 140.869 74.7056V71.2358ZM145.5 76.208H144.186V66.9693H145.5V76.208Z" fill="white"/>
<path opacity="0.8" d="M148.533 78.8949H147.217V66.9694H148.533V78.8949ZM151.849 71.9406H150.534V68.6829C150.534 68.4289 150.499 68.2647 150.43 68.1968C150.361 68.1288 150.199 68.0922 149.945 68.0922H149.182C148.953 68.0922 148.787 68.1428 148.686 68.2438C148.582 68.3484 148.534 68.524 148.534 68.7781V69.4252H148.457V68.1299C148.457 67.6985 148.562 67.3967 148.771 67.2245C149.002 67.0458 149.289 66.9547 149.581 66.9673H150.343C150.851 66.9673 151.23 67.0914 151.478 67.3395C151.726 67.5876 151.85 67.9654 151.849 68.4728V71.9406ZM150.534 71.2161H151.849V74.7058C151.849 75.2139 151.725 75.5916 151.478 75.839C151.23 76.0865 150.852 76.2102 150.343 76.2102H149.581C149.289 76.2228 149.002 76.1317 148.771 75.953C148.562 75.7815 148.457 75.4801 148.457 75.0487V73.9792L148.534 73.9604V74.3984C148.534 74.6525 148.584 74.8302 148.686 74.9316C148.789 75.033 148.953 75.0842 149.182 75.0842H149.945C150.199 75.0842 150.363 75.0466 150.43 74.9703C150.497 74.894 150.534 74.735 150.534 74.4935V71.2161Z" fill="white"/>
<path opacity="0.8" d="M154.785 78.8949H153.469V66.9694H154.785V78.8949ZM158.101 71.9405H156.783V68.6829C156.783 68.4288 156.749 68.2647 156.679 68.1968C156.609 68.1288 156.446 68.0922 156.192 68.0922H155.43C155.202 68.0922 155.037 68.1427 154.934 68.2438C154.832 68.3449 154.781 68.5229 154.782 68.778V69.4252H154.706V68.1298C154.706 67.6984 154.811 67.3966 155.02 67.2245C155.251 67.046 155.538 66.9549 155.83 66.9673H156.593C157.101 66.9673 157.479 67.0914 157.727 67.3395C157.974 67.5876 158.098 67.9654 158.099 68.4728L158.101 71.9405ZM156.783 71.216H158.099V74.7057C158.099 75.2138 157.975 75.5916 157.727 75.839C157.478 76.0864 157.101 76.2101 156.593 76.2101H155.83C155.538 76.2226 155.251 76.1315 155.02 75.953C154.811 75.7815 154.706 75.4801 154.706 75.0486V73.9791L154.782 73.9603V74.3984C154.782 74.6528 154.833 74.8305 154.934 74.9316C155.039 75.0361 155.202 75.0842 155.43 75.0842H156.192C156.446 75.0842 156.611 75.0466 156.679 74.9702C156.747 74.8939 156.783 74.735 156.783 74.4935V71.216Z" fill="white"/>
<path opacity="0.8" d="M161.037 76.2084H159.723V66.9697H161.037V76.2105V76.2084ZM162.81 66.9697V68.1134H162.238C161.438 68.1134 161.037 68.5898 161.037 69.5426V69.9043H160.961V68.5138C160.966 68.276 161.021 68.042 161.123 67.827C161.231 67.5859 161.398 67.3762 161.609 67.2175C161.841 67.0474 162.123 66.9601 162.41 66.9697H162.81Z" fill="white"/>
<path opacity="0.8" d="M164.962 68.683V73.5412H163.666V68.4729C163.666 67.9648 163.79 67.587 164.037 67.3396C164.285 67.0922 164.663 66.9681 165.172 66.9674H166.201V68.0923H165.553C165.311 68.0923 165.153 68.1268 165.077 68.1969C165.001 68.2669 164.962 68.4331 164.962 68.683ZM164.962 72.4173V74.4967C164.962 74.7382 165.001 74.8972 165.077 74.9735C165.153 75.0498 165.311 75.0874 165.553 75.0874H166.144V76.2113H165.172C164.664 76.2113 164.286 76.0876 164.037 75.8401C163.789 75.5927 163.665 75.2146 163.666 74.7058V72.4173H164.962ZM167.326 74.4967V72.5689H168.623V74.7058C168.623 75.2139 168.499 75.5917 168.25 75.8391C168.002 76.0865 167.624 76.2102 167.117 76.2102H165.953V75.0843H166.735C166.989 75.0843 167.153 75.0467 167.221 74.9703C167.289 74.894 167.326 74.7351 167.326 74.4967ZM167.326 73.5255V68.683C167.326 68.4289 167.291 68.2648 167.221 68.1969C167.151 68.1289 166.989 68.0923 166.735 68.0923H166.091V66.9695H167.121C167.629 66.9695 168.007 67.0936 168.254 67.3417C168.502 67.5898 168.626 67.9676 168.627 68.4749V73.5245L167.326 73.5255Z" fill="white"/>
<path opacity="0.8" d="M171.461 71.9404H170.146V68.4726C170.146 67.9645 170.27 67.5868 170.518 67.3394C170.765 67.0919 171.143 66.9679 171.652 66.9672H172.414C172.706 66.9548 172.993 67.0458 173.225 67.2244C173.434 67.3958 173.538 67.698 173.538 68.1297V69.3111H173.462V68.7779C173.462 68.5242 173.411 68.3461 173.309 68.2437C173.205 68.1391 173.043 68.0921 172.814 68.0921H172.052C171.811 68.0921 171.652 68.1266 171.575 68.1966C171.499 68.2667 171.461 68.4287 171.461 68.6828V71.9404ZM170.146 71.2358H171.461V74.4965C171.461 74.738 171.499 74.8969 171.575 74.9733C171.652 75.0496 171.811 75.0872 172.052 75.0872H172.815C173.044 75.0872 173.208 75.037 173.31 74.9346C173.413 74.8321 173.463 74.6554 173.463 74.4014V73.9058H173.539V75.0496C173.539 75.4813 173.435 75.7814 173.226 75.9539C172.994 76.1324 172.707 76.2235 172.415 76.2111H171.653C171.144 76.2111 170.766 76.0873 170.519 75.8399C170.271 75.5925 170.147 75.2144 170.146 74.7056V71.2358ZM174.778 76.2079H173.463V66.9693H174.778V76.2079Z" fill="white"/>
<path opacity="0.8" d="M177.716 68.683V74.4967C177.716 74.7382 177.754 74.8971 177.83 74.9735C177.907 75.0498 178.065 75.0874 178.307 75.0874H178.764V76.2113H177.912C177.403 76.2113 177.025 76.0876 176.778 75.8401C176.53 75.5927 176.405 75.2146 176.4 74.7058V68.4749C176.4 67.9668 176.524 67.5891 176.773 67.3417C177.021 67.0942 177.401 66.9702 177.912 66.9695H178.903V68.0944H178.312C178.071 68.0944 177.912 68.1289 177.835 68.1989C177.759 68.269 177.716 68.4331 177.716 68.683ZM179.851 69.7117V68.683C179.851 68.4289 179.815 68.2648 179.746 68.1968C179.677 68.1289 179.514 68.0923 179.26 68.0923H178.611V66.9695H179.657C180.166 66.9695 180.544 67.0935 180.791 67.3417C181.039 67.5898 181.162 67.9675 181.162 68.4749V69.7138L179.851 69.7117ZM179.851 74.4936V73.4649H181.166V74.7058C181.166 75.2139 181.042 75.5917 180.794 75.8391C180.547 76.0865 180.169 76.2102 179.661 76.2102H178.615V75.0843H179.263C179.517 75.0843 179.681 75.0466 179.749 74.9703C179.817 74.894 179.851 74.7351 179.851 74.4967V74.4936Z" fill="white"/>
<path opacity="0.8" d="M184.003 76.2078H182.688V63.4617H184.003V76.2078ZM187.32 76.2078H186.005V68.6806C186.005 68.4265 185.97 68.2624 185.901 68.1944C185.832 68.1265 185.668 68.0899 185.414 68.0899H184.652C184.424 68.0899 184.259 68.1404 184.157 68.2415C184.052 68.346 184.004 68.5217 184.004 68.7757V69.3737H183.928V68.1296C183.928 67.6982 184.033 67.3964 184.242 67.2242C184.473 67.0456 184.76 66.9544 185.051 66.9671H185.814C186.322 66.9671 186.7 67.0911 186.949 67.3392C187.197 67.5874 187.321 67.9651 187.32 68.4725V76.2078Z" fill="white"/>
<path d="M177.476 93.6987V90.6282C177.476 90.3878 177.443 90.2341 177.377 90.1682C177.311 90.1024 177.157 90.0689 176.916 90.0689H175.687C175.206 90.0689 174.847 89.9515 174.612 89.7166C174.377 89.4817 174.26 89.1235 174.26 88.6419V85.517C174.26 85.0361 174.377 84.6779 174.612 84.4423C174.847 84.2067 175.206 84.0893 175.687 84.09H177.282C177.764 84.09 178.123 84.2074 178.358 84.4423C178.593 84.6772 178.71 85.0354 178.71 85.517V87.2514H177.463V85.7156C177.463 85.4752 177.43 85.3215 177.359 85.2556C177.288 85.1898 177.139 85.1563 176.898 85.1563H176.067C175.838 85.1563 175.687 85.1887 175.615 85.2556C175.543 85.3226 175.511 85.4752 175.511 85.7156V88.4432C175.511 88.6722 175.547 88.8227 175.615 88.8949C175.683 88.967 175.838 88.9994 176.067 88.9994H177.295C177.778 88.9994 178.136 89.1168 178.37 89.3517C178.605 89.5866 178.722 89.9448 178.723 90.4264V93.8942C178.723 94.3758 178.605 94.7341 178.37 94.9689C178.135 95.2038 177.777 95.3213 177.295 95.3213H175.726C175.245 95.3213 174.887 95.2038 174.651 94.9689C174.415 94.7341 174.298 94.3758 174.3 93.8942V92.165H175.546V93.6998C175.546 93.9287 175.582 94.0793 175.651 94.1514C175.72 94.2235 175.874 94.2559 176.103 94.2559H176.916C177.157 94.2559 177.311 94.2193 177.377 94.1514C177.443 94.0834 177.476 93.9277 177.476 93.6987Z" fill="#754FFE"/>
<path opacity="0.8" d="M182.827 86.5644V87.6297H179.539V86.5644H182.827ZM181.581 85.1373V93.6055C181.581 93.8344 181.616 93.985 181.685 94.0571C181.754 94.1293 181.908 94.1617 182.136 94.1617H182.827V95.3169H181.761C181.279 95.3169 180.92 95.1994 180.685 94.9646C180.45 94.7297 180.333 94.3714 180.333 93.8898V85.1373H181.581Z" fill="white"/>
<path opacity="0.8" d="M185.065 95.324H183.818V86.5642H185.065V95.324ZM186.746 86.5642V87.6483H186.203C185.445 87.6483 185.066 88.1013 185.065 89.0074V89.3419H184.993V88.0278C184.998 87.8026 185.05 87.5809 185.147 87.3775C185.249 87.149 185.407 86.9501 185.607 86.7994C185.826 86.6379 186.094 86.555 186.366 86.5642H186.746Z" fill="white"/>
<path opacity="0.8" d="M188.79 88.1922V92.7921H187.561V87.9831C187.561 87.5008 187.678 87.1425 187.913 86.9083C188.148 86.6742 188.507 86.5567 188.989 86.556H189.964V87.6213H189.349C189.121 87.6213 188.971 87.6548 188.899 87.7259C188.826 87.797 188.79 87.9496 188.79 88.1922ZM188.79 91.7321V93.7006C188.79 93.9296 188.825 94.0801 188.894 94.1523C188.963 94.2244 189.117 94.2568 189.345 94.2568H189.906V95.3221H188.984C188.502 95.3221 188.143 95.2047 187.909 94.9698C187.675 94.7349 187.557 94.3767 187.557 93.8951V91.73L188.79 91.7321ZM191.03 93.7006V91.8742H192.259V93.8972C192.259 94.3788 192.142 94.737 191.907 94.9719C191.672 95.2068 191.313 95.3242 190.831 95.3242H189.731V94.2558H190.473C190.713 94.2558 190.867 94.2192 190.933 94.1512C190.999 94.0833 191.03 93.9275 191.03 93.6986V93.7006ZM191.03 92.7796V88.1922C191.03 87.9517 190.997 87.798 190.926 87.7311C190.854 87.6642 190.706 87.6266 190.465 87.6266H189.85V86.5644H190.826C191.309 86.5644 191.667 86.6818 191.901 86.9167C192.136 87.1516 192.253 87.5098 192.254 87.9914V92.7775L191.03 92.7796Z" fill="white"/>
<path opacity="0.8" d="M195.04 95.3242H193.793V86.5643H195.04V95.3242ZM198.184 95.3242H196.937V88.1921C196.937 87.9516 196.905 87.798 196.832 87.7311C196.76 87.6641 196.613 87.6265 196.372 87.6265H195.649C195.433 87.6265 195.276 87.6756 195.18 87.7718C195.084 87.868 195.034 88.0363 195.034 88.2768V88.8915H194.962V87.6694C194.962 87.2603 195.062 86.9741 195.26 86.8111C195.48 86.642 195.752 86.5557 196.029 86.5675H196.752C197.233 86.5675 197.591 86.6849 197.827 86.9198C198.063 87.1547 198.18 87.5129 198.179 87.9945L198.184 95.3242Z" fill="white"/>
<path opacity="0.8" d="M200.968 91.278H199.721V87.9911C199.721 87.5088 199.838 87.1505 200.073 86.9163C200.308 86.6822 200.667 86.5647 201.149 86.564H201.871C202.148 86.5524 202.42 86.6387 202.639 86.8076C202.838 86.9707 202.937 87.2568 202.937 87.6659V88.8943H202.865V88.2796C202.865 88.0392 202.817 87.8708 202.721 87.7747C202.589 87.6664 202.421 87.6142 202.251 87.6293H201.527C201.299 87.6293 201.149 87.6628 201.076 87.7339C201.004 87.805 200.972 87.9545 200.972 88.1949L200.968 91.278ZM199.721 90.5963H200.968V93.7024C200.968 93.9313 201.004 94.0819 201.072 94.154C201.14 94.2261 201.295 94.2585 201.523 94.2585H202.247C202.463 94.2585 202.619 94.2105 202.716 94.1143C202.814 94.0181 202.861 93.8487 202.861 93.6083V93.1901L202.933 93.2079V94.2188C202.933 94.6286 202.834 94.9147 202.635 95.0771C202.416 95.2461 202.144 95.3323 201.867 95.3207H201.144C200.662 95.3207 200.304 95.2033 200.069 94.9684C199.835 94.7335 199.717 94.3753 199.717 93.8937L199.721 90.5963ZM202.865 96.2418V95.143H204.112V96.4435C204.112 96.9258 203.994 97.2841 203.759 97.5183C203.524 97.7524 203.166 97.8699 202.684 97.8706H199.992V96.8053H202.304C202.546 96.8053 202.7 96.7687 202.766 96.7007C202.832 96.6328 202.865 96.4739 202.865 96.2418ZM204.112 95.3573H202.865V86.564H204.112V95.3573Z" fill="white"/>
<path d="M211.736 89.0026V85.7157C211.736 85.4753 211.703 85.3216 211.632 85.2557C211.561 85.1898 211.412 85.1564 211.171 85.1564H208.262V84.09H211.532C212.014 84.09 212.373 84.2075 212.608 84.4424C212.842 84.6772 212.96 85.0355 212.96 85.5171V89.2012C212.96 89.6836 212.842 90.0418 212.608 90.276C212.373 90.5102 212.014 90.6276 211.532 90.6283H209.003V89.563H211.171C211.412 89.563 211.566 89.5264 211.632 89.4584C211.698 89.3905 211.736 89.2316 211.736 89.0026ZM208.267 84.089H209.498V95.3245H208.269L208.267 84.089ZM210.4 90.1526H211.682L213.544 95.3182H212.207L210.4 90.1526Z" fill="#754FFE"/>
<path d="M215.909 88.1923V93.7008C215.909 93.9298 215.946 94.0803 216.014 94.1525C216.082 94.2246 216.236 94.257 216.466 94.257H216.899V95.3223H216.086C215.604 95.3223 215.246 95.2049 215.011 94.97C214.776 94.7351 214.658 94.3769 214.658 93.8953V87.9916C214.658 87.5093 214.776 87.1511 215.011 86.9169C215.246 86.6827 215.604 86.5653 216.086 86.5646H217.027V87.6299H216.468C216.239 87.6299 216.088 87.6633 216.016 87.7344C215.944 87.8055 215.909 87.9498 215.909 88.1923ZM219.18 90.3052V91.3716H215.205V90.3052H219.18ZM217.933 91.1907V88.1923C217.933 87.9519 217.899 87.7982 217.834 87.7313C217.768 87.6644 217.614 87.6268 217.373 87.6268H216.758V86.5646H217.752C218.235 86.5646 218.593 86.682 218.827 86.9169C219.062 87.1518 219.179 87.51 219.18 87.9916V91.1886L217.933 91.1907ZM217.879 93.6998V92.9052H219.125V93.8984C219.125 94.38 219.008 94.7383 218.773 94.9731C218.538 95.208 218.18 95.3255 217.699 95.3255H216.757V94.256H217.318C217.559 94.256 217.712 94.2194 217.778 94.1514C217.844 94.0835 217.879 93.9277 217.879 93.6987V93.6998Z" fill="#754FFE"/>
<path d="M223.316 93.7176V92.0605C223.316 91.8201 223.283 91.6664 223.217 91.6005C223.151 91.5346 222.998 91.5012 222.757 91.5012H221.871C221.389 91.5012 221.03 91.3838 220.796 91.1489C220.562 90.914 220.444 90.5558 220.443 90.0742V87.9916C220.443 87.5093 220.561 87.1511 220.796 86.9169C221.031 86.6827 221.389 86.5653 221.871 86.5646H223.1C223.581 86.5646 223.94 86.682 224.175 86.9169C224.411 87.1518 224.528 87.51 224.528 87.9916V88.8771H223.302V88.1725C223.302 87.931 223.268 87.7783 223.203 87.7114C223.137 87.6445 222.983 87.6121 222.741 87.6121H222.236C222.007 87.6121 221.856 87.6456 221.784 87.7114C221.712 87.7773 221.68 87.931 221.68 88.1725V89.8881C221.68 90.117 221.716 90.2676 221.784 90.3397C221.852 90.4118 222.007 90.4442 222.236 90.4442H223.121C223.603 90.4442 223.961 90.5613 224.196 90.7955C224.431 91.0297 224.549 91.3879 224.549 91.8702V93.8932C224.549 94.3748 224.431 94.733 224.196 94.9679C223.961 95.2028 223.603 95.3202 223.121 95.3202H221.911C221.429 95.3202 221.071 95.2028 220.836 94.9679C220.601 94.733 220.481 94.3762 220.478 93.8974V93.0129H221.707V93.7176C221.707 93.9465 221.742 94.096 221.811 94.1692C221.88 94.2424 222.034 94.2737 222.263 94.2737H222.752C222.992 94.2737 223.146 94.2382 223.212 94.1692C223.278 94.1002 223.316 93.9423 223.316 93.7176Z" fill="#754FFE"/>
<path d="M225.992 86.5646H227.239V93.6987C227.239 93.9277 227.276 94.0782 227.344 94.1504C227.412 94.2225 227.567 94.2549 227.796 94.2549H228.518C228.735 94.2549 228.892 94.2068 228.988 94.1106C229.084 94.0145 229.132 93.8451 229.132 93.6046V92.991H229.204V94.2183C229.204 94.6281 229.105 94.9142 228.906 95.0766C228.687 95.2456 228.415 95.3318 228.139 95.3202H227.416C226.933 95.3202 226.575 95.2028 226.341 94.9679C226.106 94.733 225.989 94.3748 225.988 93.8932L225.992 86.5646ZM229.137 86.5646H230.383V95.3244H229.137V86.5646Z" fill="#754FFE"/>
<path d="M233.256 95.3239H232.01V83.2406H233.256V95.3239Z" fill="#754FFE"/>
<path d="M237.449 86.5645V87.6298H234.16V86.5645H237.449ZM236.202 85.1375V93.6056C236.202 93.8346 236.238 93.9851 236.306 94.0572C236.374 94.1294 236.529 94.1618 236.758 94.1618H237.444V95.317H236.379C235.897 95.317 235.538 95.1996 235.303 94.9647C235.068 94.7298 234.951 94.3716 234.951 93.89V85.1375H236.202Z" fill="#754FFE"/>
<path d="M241.134 93.7171V92.06C241.134 91.8196 241.102 91.6659 241.035 91.6C240.968 91.5342 240.815 91.5007 240.574 91.5007H239.688C239.207 91.5007 238.848 91.3833 238.613 91.1484C238.378 90.9135 238.26 90.5553 238.26 90.0737V87.9911C238.26 87.5088 238.377 87.1506 238.612 86.9164C238.847 86.6822 239.206 86.5648 239.687 86.5641H240.916C241.398 86.5641 241.757 86.6815 241.992 86.9164C242.227 87.1513 242.344 87.5095 242.344 87.9911V88.8766H241.115V88.172C241.115 87.9305 241.082 87.7779 241.016 87.711C240.95 87.644 240.796 87.6116 240.556 87.6116H240.049C239.82 87.6116 239.67 87.6451 239.597 87.711C239.525 87.7768 239.493 87.9305 239.493 88.172V89.8876C239.493 90.1165 239.53 90.2671 239.597 90.3392C239.665 90.4113 239.82 90.4438 240.049 90.4438H240.934C241.416 90.4438 241.774 90.5609 242.009 90.795C242.244 91.0292 242.362 91.3875 242.362 91.8698V93.8927C242.362 94.3743 242.244 94.7325 242.009 94.9674C241.774 95.2023 241.416 95.3197 240.934 95.3197H239.724C239.242 95.3197 238.884 95.2023 238.649 94.9674C238.414 94.7325 238.296 94.3743 238.296 93.8927V93.0083H239.525V93.7129C239.525 93.9418 239.561 94.0913 239.63 94.1645C239.699 94.2377 239.853 94.2691 240.082 94.2691H240.57C240.811 94.2691 240.965 94.2335 241.03 94.1645C241.096 94.0955 241.134 93.9418 241.134 93.7171Z" fill="#754FFE"/>
<g opacity="0.8">
<path d="M170.185 84.669V95.6337C170.185 95.7636 170.16 95.8923 170.11 96.0124C170.061 96.1325 169.988 96.2417 169.896 96.3336C169.804 96.4256 169.695 96.4985 169.575 96.5483C169.455 96.5981 169.326 96.6237 169.196 96.6237H168.859C168.596 96.6234 168.344 96.519 168.159 96.3334C167.973 96.1477 167.869 95.8961 167.869 95.6337V84.669C167.869 84.5392 167.895 84.4106 167.944 84.2907C167.994 84.1707 168.067 84.0618 168.159 83.97C168.251 83.8783 168.36 83.8055 168.48 83.7559C168.6 83.7063 168.729 83.6809 168.859 83.681H169.196C169.326 83.6809 169.455 83.7064 169.575 83.756C169.695 83.8056 169.804 83.8783 169.896 83.9701C169.987 84.0619 170.06 84.1708 170.11 84.2907C170.159 84.4107 170.185 84.5392 170.185 84.669Z" fill="white"/>
</g>
<g opacity="0.8">
<path d="M167.871 88.9943V91.3089H128.346C128.084 91.3089 127.832 91.2049 127.646 91.0197C127.461 90.8344 127.356 90.5832 127.355 90.3209V89.9833C127.356 89.7209 127.46 89.4693 127.646 89.2839C127.832 89.0984 128.083 88.9943 128.346 88.9943H167.871Z" fill="white"/>
</g>
<g opacity="0.8">
<path d="M125.216 88.994H121.858C121.44 88.994 121.102 89.3324 121.102 89.7499V90.5528C121.102 90.9702 121.44 91.3086 121.858 91.3086H125.216C125.634 91.3086 125.972 90.9702 125.972 90.5528V89.7499C125.972 89.3324 125.634 88.994 125.216 88.994Z" fill="white"/>
</g>
<g opacity="0.8">
<path d="M118.964 88.9944H118.16C117.743 88.9944 117.404 89.3328 117.404 89.7503V90.5532C117.404 90.9706 117.743 91.309 118.16 91.309H118.964C119.381 91.309 119.72 90.9706 119.72 90.5532V89.7503C119.72 89.3328 119.381 88.9944 118.964 88.9944Z" fill="white"/>
</g>
<g opacity="0.8">
<path d="M192.531 65.1768V77.5204C192.531 77.6503 192.505 77.7788 192.455 77.8988C192.405 78.0187 192.333 78.1276 192.241 78.2194C192.149 78.3111 192.04 78.3839 191.92 78.4335C191.8 78.4831 191.671 78.5085 191.541 78.5084H191.203C190.941 78.5081 190.69 78.4039 190.505 78.2187C190.319 78.0335 190.215 77.7824 190.215 77.5204V65.1768C190.215 64.9149 190.319 64.6637 190.505 64.4785C190.69 64.2933 190.941 64.1891 191.203 64.1888H191.541C191.671 64.1887 191.8 64.2142 191.92 64.2637C192.04 64.3133 192.149 64.3861 192.241 64.4778C192.333 64.5696 192.405 64.6785 192.455 64.7985C192.505 64.9184 192.531 65.047 192.531 65.1768Z" fill="white"/>
</g>
<g opacity="0.8">
<path d="M233.049 71.1797V71.5174C233.049 71.7793 232.944 72.0305 232.759 72.2157C232.574 72.4009 232.323 72.5051 232.061 72.5054H192.533V70.1918H232.061C232.323 70.192 232.574 70.2962 232.759 70.4814C232.944 70.6667 233.049 70.9178 233.049 71.1797Z" fill="white"/>
</g>
<g opacity="0.8">
<path d="M238.542 70.1904H235.184C234.766 70.1904 234.428 70.5288 234.428 70.9463V71.7492C234.428 72.1666 234.766 72.5051 235.184 72.5051H238.542C238.96 72.5051 239.299 72.1666 239.299 71.7492V70.9463C239.299 70.5288 238.96 70.1904 238.542 70.1904Z" fill="white"/>
</g>
<g opacity="0.8">
<path d="M242.241 70.1907H241.438C241.02 70.1907 240.682 70.5291 240.682 70.9465V71.7494C240.682 72.1669 241.02 72.5053 241.438 72.5053H242.241C242.659 72.5053 242.997 72.1669 242.997 71.7494V70.9465C242.997 70.5291 242.659 70.1907 242.241 70.1907Z" fill="white"/>
</g>
</g>
<defs>
<clipPath id="clip0_1499_5270">
<rect width="267" height="99" fill="white"/>
</clipPath>
</defs>
</svg>
