<svg width="127" height="47" viewBox="0 0 127 47" fill="none" xmlns="http://www.w3.org/2000/svg">
<g clip-path="url(#clip0_1050_5230)">
<path d="M51.0588 22.2192V18.4422C51.0588 18.1444 51.0028 17.9441 50.8907 17.8411C50.7787 17.7389 50.5728 17.6873 50.2743 17.6873H48.0032C46.9565 17.6873 46.2137 17.4403 45.7749 16.9463C45.3361 16.4523 45.1165 15.767 45.1162 14.8905V10.5571C45.1162 9.68123 45.3505 9.00077 45.8192 8.51569C46.2878 8.03062 47.0634 7.78824 48.146 7.78857H51.2304C52.2954 7.78857 53.0662 8.03095 53.5428 8.51569C54.0194 9.00044 54.2577 9.6809 54.2577 10.5571V13.0184H51.0031V11.0048C51.0031 10.707 50.9517 10.5065 50.8489 10.4032C50.7461 10.3 50.5358 10.2487 50.218 10.2494H49.1524C48.834 10.2494 48.6196 10.299 48.5057 10.4032C48.3917 10.5074 48.3375 10.7065 48.3375 11.0048V14.5565C48.3375 14.8357 48.3936 15.0315 48.5057 15.1436C48.6176 15.2558 48.832 15.3114 49.1524 15.3114H51.3668C52.4321 15.3114 53.1889 15.5491 53.6373 16.0246C54.0857 16.5001 54.3101 17.1761 54.3105 18.0526V22.6684C54.3105 23.5449 54.0722 24.2255 53.5956 24.7103C53.1189 25.195 52.3395 25.4374 51.2573 25.4374H48.2276C47.1437 25.4374 46.3643 25.195 45.8893 24.7103C45.4144 24.2255 45.1754 23.5444 45.1724 22.6669V20.2349H48.3962V22.2202C48.3962 22.5002 48.4523 22.696 48.5644 22.8079C48.6768 22.9195 48.8912 22.9756 49.2111 22.9756H50.2767C50.5752 22.9756 50.7812 22.9195 50.8931 22.8079C51.0051 22.6962 51.0588 22.4992 51.0588 22.2192Z" fill="#754FFE"/>
<path d="M59.7492 11.0048V18.6407H56.5254V10.5571C56.5254 9.68123 56.7683 9.00077 57.2542 8.51569C57.7401 8.03062 58.5157 7.78824 59.581 7.78857H61.4869V10.2494H60.5621C60.2443 10.2494 60.0288 10.3006 59.9153 10.4032C59.8019 10.5058 59.7465 10.7063 59.7492 11.0048ZM59.7492 17.5488V22.2192C59.7492 22.4992 59.8052 22.695 59.9173 22.8069C60.0294 22.9187 60.245 22.9746 60.5641 22.9746H61.4596V25.4359H59.5815C58.5159 25.4359 57.7403 25.1935 57.2547 24.7088C56.7692 24.2241 56.5262 23.5434 56.5259 22.6669V17.5488H59.7492ZM62.8337 22.2192V17.6888H66.0574V22.6669C66.0574 23.5434 65.8191 24.2241 65.3425 24.7088C64.8659 25.1935 64.0857 25.4359 63.0018 25.4359H60.9835V22.9746H62.0486C62.3663 22.9746 62.5766 22.9187 62.6794 22.8069C62.7822 22.695 62.8337 22.4992 62.8337 22.2192ZM62.8337 18.6397V11.0048C62.8337 10.707 62.7822 10.5065 62.6794 10.4032C62.5766 10.3 62.3663 10.2487 62.0486 10.2494H61.0924V7.78857H62.9988C64.0824 7.78857 64.8626 8.03095 65.3395 8.51569C65.8165 9.00044 66.0548 9.6809 66.0544 10.5571V18.6407L62.8337 18.6397Z" fill="#0C233B"/>
<path d="M68.6631 7.78857H71.9147V25.4359H68.6631V7.78857ZM77.2409 7.78857V10.2494H70.1207V7.78857H77.2409ZM76.2599 15.6191V17.9682H70.2899V15.6191H76.2599Z" fill="#0C233B"/>
<path d="M87.0529 7.78857V10.2494H77.6338V7.78857H87.0529ZM80.7173 8.54349H83.9411V25.4359H80.7173V8.54349Z" fill="#0C233B"/>
<path d="M93.0518 7.78857H96.2755V25.4359H93.0518V7.78857ZM94.4248 25.4359V22.9746H100.985V25.4359H94.4248Z" fill="#0C233B"/>
<path d="M110.236 21.6043H107.628L105.274 13.0739V25.4359H102.414V7.78857H105.946L108.918 18.2759L111.889 7.78857H115.422V25.4359H112.59V13.0461L110.236 21.6043Z" fill="#0C233B"/>
<path d="M123.748 22.2192V18.4422C123.748 18.1444 123.692 17.9441 123.58 17.8411C123.468 17.7382 123.262 17.687 122.963 17.6873H120.693C119.646 17.6873 118.903 17.4403 118.464 16.9463C118.025 16.4523 117.806 15.7675 117.808 14.892V10.5571C117.808 9.68123 118.04 9.00077 118.504 8.51569C118.968 8.03062 119.744 7.78824 120.831 7.78857H123.915C124.98 7.78857 125.751 8.03095 126.228 8.51569C126.705 9.00044 126.943 9.6809 126.943 10.5571V13.0184H123.691V11.0048C123.691 10.707 123.64 10.5065 123.537 10.4032C123.435 10.3 123.225 10.2487 122.906 10.2494H121.841C121.523 10.2494 121.309 10.299 121.194 10.4032C121.08 10.5074 121.026 10.7065 121.026 11.0048V14.5565C121.026 14.8357 121.082 15.0315 121.194 15.1436C121.307 15.2558 121.521 15.3114 121.841 15.3114H124.056C125.121 15.3114 125.878 15.5491 126.326 16.0246C126.775 16.5001 126.999 17.1761 126.999 18.0526V22.6684C126.999 23.5449 126.761 24.2255 126.284 24.7103C125.808 25.195 125.028 25.4374 123.946 25.4374H120.917C119.833 25.4374 119.053 25.195 118.576 24.7103C118.1 24.2255 117.861 23.5449 117.861 22.6684V20.2364H121.085V22.2217C121.085 22.5016 121.141 22.6975 121.253 22.8094C121.366 22.921 121.58 22.9771 121.9 22.9771H122.965C123.264 22.9771 123.469 22.9212 123.582 22.8094C123.695 22.6975 123.75 22.5008 123.748 22.2192Z" fill="#0C233B"/>
<path d="M17.126 30.8604C16.598 29.7052 16.3876 28.4307 16.5166 27.1677C16.3602 28.1264 16.3268 29.1011 16.4171 30.0682C16.4529 30.4519 16.5066 30.8127 16.5703 31.1462C16.3104 31.2182 16.0378 31.2322 15.7718 31.1874C15.7763 31.175 15.7793 31.1641 15.7828 31.1552C15.9191 30.7527 15.932 30.0231 15.343 28.5882C15.7474 29.7049 15.6271 30.3725 15.4281 30.7819C15.3853 30.8698 15.3335 30.9576 15.2788 31.0584C14.9514 30.9353 14.9241 30.7864 14.9549 30.2985C15.0146 29.3486 15.0713 28.3981 15.1251 27.4471C15.1504 26.9965 15.2952 26.6088 15.6405 26.2986C15.6627 26.2782 15.6818 26.2546 15.6972 26.2287C15.9828 26.184 16.2872 26.311 16.5862 26.4237C16.721 26.6952 16.9345 26.9553 16.9648 27.2347C17.0778 28.341 17.12 29.4548 17.2031 30.5651C17.2108 30.6169 17.2079 30.6698 17.1947 30.7205C17.1814 30.7713 17.1581 30.8188 17.126 30.8604Z" fill="#0C233B"/>
<path d="M37.1781 28.6665L33.5603 20.5159C33.446 20.5989 33.3136 20.6537 33.1739 20.6758C33.0343 20.6979 32.8914 20.6867 32.7569 20.6431C32.6224 20.5996 32.5002 20.5248 32.4002 20.4251C32.3003 20.3253 32.2254 20.2034 32.1818 20.0692C31.4211 17.7365 30.4674 16.0673 29.349 15.103C29.1517 14.9339 28.9645 14.7534 28.7883 14.5625L28.5759 14.4602C28.3441 14.3486 28.1635 14.3441 27.9291 14.4563C22.735 16.9614 17.5378 19.461 12.3376 21.9552C12.259 21.993 12.1854 22.0421 12.0635 22.1126C12.2331 22.1791 12.3446 22.2247 12.458 22.2659C13.4714 22.6347 14.4838 23.0074 15.5012 23.3663C15.7047 23.4378 15.7937 23.5316 15.7902 23.7604C15.7758 24.49 15.7902 25.2206 15.7783 25.9507C15.775 26.0486 15.7471 26.1442 15.6972 26.2286C15.9828 26.1834 16.2872 26.311 16.5862 26.4241C16.5802 26.4117 16.5738 26.3998 16.5683 26.3874C16.4902 26.2207 16.3728 26.0499 16.3653 25.8767C16.3405 25.2717 16.3713 24.6642 16.3494 24.0587C16.3385 23.7763 16.4409 23.6462 16.6917 23.538C18.2787 22.8526 19.8588 22.1483 21.4418 21.4534C22.5154 20.9816 23.5892 20.5114 24.6631 20.0429C24.672 20.0608 24.68 20.0786 24.6885 20.0965C22.201 21.3835 19.7165 22.6699 17.2051 23.9708C17.2383 23.9954 17.2734 24.0173 17.3101 24.0363C20.8718 25.3241 24.4347 26.6091 27.9988 27.8913C28.1689 27.9449 28.3515 27.9449 28.5217 27.8913C29.5823 27.5473 30.6355 27.1825 31.6922 26.8262C32.5325 26.5428 33.3738 26.2618 34.31 25.9477C34.1991 26.039 34.1752 26.0703 34.1424 26.0852C32.2423 26.9355 30.3384 27.7829 28.4306 28.6273C28.2967 28.6736 28.1508 28.6723 28.0177 28.6239C26.261 28.004 24.5084 27.3721 22.7542 26.7443C21.6259 26.3403 20.4965 25.9368 19.3329 25.5223C19.3329 26.648 19.3419 27.7344 19.3259 28.8214C19.3225 29.0874 19.404 29.2085 19.6543 29.2989C22.4447 30.3044 25.2297 31.3283 28.0192 32.3394C28.1655 32.3887 28.3239 32.3898 28.4709 32.3423C31.2728 31.3308 34.0693 30.3074 36.8702 29.2934C37.1055 29.208 37.1831 29.0949 37.1801 28.8408C37.1791 28.7812 37.1786 28.7236 37.1781 28.6665Z" fill="#0C233B"/>
<path d="M42.6216 42.4418C42.6192 42.4522 42.6157 42.4636 42.6132 42.4746C43.0351 42.6458 43.4694 42.7927 43.8768 42.9942C44.9897 43.5441 45.8668 44.3735 46.6185 45.3473C47.0165 45.8664 47.4305 46.3762 47.8379 46.8899C47.8716 46.9367 47.9164 46.9745 47.9682 47C47.9513 46.9544 47.9389 46.9067 47.9185 46.8626C47.2492 45.3895 46.5799 43.9159 45.9106 42.4418C45.8867 42.3882 45.8609 42.3351 45.8385 42.2815C45.7917 42.1773 45.7434 42.1509 45.625 42.1574C45.1872 42.1807 44.829 41.8631 44.8052 41.4556C44.8047 41.4525 44.8047 41.4493 44.8052 41.4462C44.7995 41.3435 44.8147 41.2408 44.8496 41.1441C44.8846 41.0474 44.9388 40.9587 45.0088 40.8834C45.0788 40.808 45.1634 40.7474 45.2574 40.7053C45.3513 40.6632 45.4529 40.6403 45.5559 40.6381C45.9653 40.6188 46.3195 40.9622 46.3345 41.3955C46.3345 41.4154 46.3345 41.4352 46.3345 41.4556C46.3297 41.548 46.3066 41.6385 46.2666 41.7219C46.2265 41.8053 46.1703 41.8799 46.1011 41.9415C46.027 42.0115 46.0016 42.0656 46.0484 42.1673C46.0897 42.2591 46.132 42.3505 46.1733 42.4418C46.8333 43.8874 47.4911 45.3344 48.1468 46.7827C48.1565 46.8086 48.1636 46.8353 48.1682 46.8626L48.2324 46.8273C48.1505 46.381 48.0687 45.9343 47.9872 45.4872C47.8379 44.6713 47.6638 43.8598 47.6638 43.023C47.6638 42.8245 47.6697 42.6314 47.6842 42.4378C47.7059 42.1063 47.7515 41.7767 47.8205 41.4516C47.9282 40.9425 48.1001 40.4491 48.3319 39.983C48.3408 39.96 48.3476 39.9362 48.3523 39.912C48.1936 39.8346 48.0379 39.7547 47.8862 39.6708C46.6519 38.9933 45.6385 38.0905 45.143 36.6636C44.1823 37.0954 43.244 37.5178 42.2754 37.954C42.5801 38.4837 42.7811 39.0663 42.8679 39.6708C42.9465 40.2638 42.9359 40.8652 42.8366 41.4551C42.7829 41.7876 42.7112 42.117 42.6216 42.4418Z" fill="#646A74"/>
<path d="M43.8895 33.2537L40.5771 34.7451L41.3911 36.5319C41.5403 36.858 41.2722 36.2515 41.4219 36.5771C41.5264 36.8029 41.6269 36.8416 41.8582 36.7379C42.7587 36.3342 43.6586 35.9295 44.5581 35.5239C44.8188 35.4062 44.8511 35.3209 44.7367 35.0677C44.3417 34.1952 44.3601 34.2567 43.9636 33.3852C43.9427 33.3415 43.9149 33.2993 43.8895 33.2537Z" fill="#CAB4A9"/>
<path d="M29.9492 10.7988L40.3897 34.3247L43.7498 32.8481L33.3063 9.32227H33.3038L29.9492 10.7988Z" fill="#0C233B"/>
<path d="M29.6104 10.0395L29.9491 10.7989H29.9521L33.3063 9.3243H33.3087L32.9824 8.58726L32.9729 8.56592H32.9695L32.9227 8.58627L29.6128 10.038C29.6128 10.038 29.6113 10.039 29.6104 10.0395Z" fill="#231F20"/>
<path d="M29.4474 10.465L29.5216 10.6312C29.5386 10.6703 29.5632 10.7056 29.5939 10.7352C29.6246 10.7648 29.6609 10.788 29.7006 10.8036C29.7404 10.8192 29.7828 10.8268 29.8255 10.826C29.8682 10.8252 29.9103 10.816 29.9494 10.799H29.9524L33.3065 9.32442H33.309C33.3868 9.28918 33.4476 9.22478 33.4781 9.14516C33.5087 9.06555 33.5065 8.97713 33.4722 8.89907L33.3981 8.73231C33.3633 8.6539 33.2988 8.59239 33.2188 8.56116C33.1388 8.52992 33.0496 8.5315 32.9707 8.56554H32.9672L32.9205 8.58589L29.6131 10.0381C29.5355 10.0736 29.4749 10.138 29.4444 10.2175C29.4139 10.2971 29.4159 10.3854 29.4499 10.4635L29.4474 10.465Z" fill="#754FFE"/>
<path d="M46.9637 46.5839H4.37151C3.79732 46.5838 3.22878 46.4709 2.69834 46.2516C2.16789 46.0324 1.68594 45.711 1.28 45.3059C0.874064 44.9007 0.55209 44.4198 0.332466 43.8905C0.112842 43.3613 -0.000130564 42.794 1.13239e-07 42.2212H19.0661C19.066 42.3966 19.1006 42.5703 19.1679 42.7323C19.2351 42.8944 19.3337 43.0416 19.4581 43.1656C19.5824 43.2896 19.73 43.3879 19.8925 43.455C20.0549 43.522 20.229 43.5564 20.4048 43.5563H41.2002C41.4488 43.5564 41.6926 43.4874 41.904 43.3569C42.1154 43.2265 42.2862 43.0397 42.3972 42.8178L42.4589 42.8426C42.5882 42.8952 42.7191 42.9453 42.8489 42.9955C43.1235 43.1012 43.3832 43.2009 43.6255 43.3211C44.5001 43.7533 45.2852 44.4298 46.0254 45.3887C46.3005 45.7471 46.5856 46.1039 46.8607 46.4494C46.8936 46.4941 46.9284 46.5382 46.9637 46.5839Z" fill="#2B3A53"/>
<path d="M42.308 39.6607C42.3035 39.6304 42.2991 39.6007 42.2941 39.5704H5.98926C5.4351 39.5704 4.90363 39.3508 4.51177 38.9598C4.11992 38.5689 3.89977 38.0387 3.89977 37.4858V10.6704C3.89977 10.1175 4.11992 9.58727 4.51177 9.19634C4.90363 8.80541 5.4351 8.58579 5.98926 8.58579H28.4264C28.4235 8.24054 28.522 7.902 28.7098 7.61199C28.8976 7.32197 29.1664 7.09318 29.4831 6.95387L29.6557 6.87793H4.46991C3.81718 6.87793 3.19118 7.13661 2.72963 7.59708C2.26808 8.05754 2.00879 8.68206 2.00879 9.33325V39.7456C2.00879 40.1519 2.17052 40.5415 2.45843 40.8288C2.74634 41.1161 3.13684 41.2776 3.54406 41.2777H42.2633C42.2697 41.2445 42.2747 41.2112 42.2797 41.1785C42.3653 40.6768 42.3748 40.1652 42.308 39.6607Z" fill="#0C233B"/>
<path d="M29.0645 8.58439C29.0665 8.7373 29.0995 8.88823 29.1615 9.0281L29.6093 10.0396L32.9166 8.58588L32.9634 8.56553H32.9669L32.5191 7.55402C32.3973 7.27993 32.1716 7.06509 31.8915 6.95647C31.6114 6.84784 31.2995 6.85426 31.0241 6.97431L29.7416 7.53813C29.5385 7.62735 29.3662 7.77402 29.2458 7.95998C29.1255 8.14595 29.0624 8.36304 29.0645 8.58439Z" fill="#0C233B"/>
<path d="M33.0333 20.0474C33.0603 20.0474 33.0871 20.0432 33.1129 20.035C33.1775 20.014 33.231 19.9683 33.2618 19.9079C33.2926 19.8475 33.2981 19.7773 33.2771 19.7129C32.4497 17.1816 31.3816 15.3373 30.102 14.234C29.3647 13.5987 29.0115 13.0021 28.3081 11.8144C28.1737 11.5876 27.8603 11.0565 28.024 10.5994C28.0647 10.4707 28.1454 10.3583 28.2543 10.2783C28.5528 10.0728 29.113 10.2038 29.5811 10.5894C29.6338 10.6296 29.7001 10.6479 29.766 10.6404C29.8318 10.6328 29.8922 10.6001 29.9344 10.5491C29.9766 10.498 29.9974 10.4327 29.9922 10.3667C29.9871 10.3007 29.9566 10.2393 29.907 10.1954C29.2458 9.64941 28.4643 9.51491 27.9668 9.85687C27.7687 9.99693 27.6206 10.1964 27.5439 10.4262C27.2951 11.1096 27.6976 11.7856 27.8688 12.0745C28.6006 13.3098 28.9682 13.9302 29.7687 14.6206C30.9771 15.6629 31.994 17.4288 32.7915 19.8712C32.8083 19.9221 32.8406 19.9665 32.884 19.9981C32.9273 20.0297 32.9796 20.047 33.0333 20.0474Z" fill="#754FFE"/>
<path d="M126.519 27.731C126.484 28.2894 126.004 28.7162 125.444 28.7162H44.811C44.551 28.7167 44.3002 28.6209 44.1071 28.4472C44.1048 28.4458 44.1026 28.4441 44.1006 28.4422C44.0886 28.4313 44.0767 28.4194 44.0643 28.4075C43.9639 28.3126 43.8833 28.1989 43.827 28.073L35.069 8.35893C34.9556 8.10337 34.9485 7.8133 35.0494 7.55254C35.1503 7.29178 35.3509 7.08168 35.6071 6.96848C35.8632 6.85527 36.154 6.84823 36.4154 6.94889C36.6768 7.04956 36.8873 7.24969 37.0008 7.50525L45.4866 26.6083H125.466C125.61 26.6084 125.753 26.638 125.886 26.6953C126.018 26.7527 126.138 26.8366 126.236 26.9418C126.335 27.0471 126.411 27.1714 126.46 27.3071C126.509 27.4429 126.529 27.5872 126.519 27.731Z" fill="#0C233B"/>
<path d="M57.8209 35.3671V33.8285C57.8209 33.7079 57.8045 33.6299 57.7712 33.5977C57.7378 33.5654 57.6607 33.548 57.5398 33.548H56.9234C56.6816 33.548 56.5019 33.4893 56.3841 33.3719C56.2664 33.2544 56.2074 33.0749 56.207 32.8333V31.2679C56.207 31.0267 56.2661 30.8474 56.3841 30.7299C56.5022 30.6125 56.682 30.5536 56.9234 30.5532H57.7194C57.9612 30.5532 58.141 30.6121 58.2587 30.7299C58.3764 30.8477 58.4355 31.027 58.4358 31.2679V32.1365H57.81V31.3677C57.81 31.2471 57.7935 31.1692 57.7602 31.1369C57.7269 31.1046 57.6498 31.0873 57.5289 31.0873H57.113C56.998 31.0873 56.9224 31.1036 56.8861 31.1369C56.8498 31.1702 56.8319 31.2471 56.8319 31.3677V32.7336C56.8319 32.8482 56.8498 32.9232 56.8861 32.9594C56.9224 32.9956 56.998 33.014 57.113 33.014H57.7294C57.9712 33.014 58.1509 33.0727 58.2687 33.1902C58.3864 33.3077 58.4454 33.487 58.4458 33.7282V35.4654C58.4458 35.7066 58.3867 35.8859 58.2687 36.0034C58.1506 36.1208 57.9708 36.1796 57.7294 36.1796H56.9408C56.6987 36.1796 56.5188 36.1208 56.4011 36.0034C56.2833 35.8859 56.2248 35.7069 56.2254 35.4663V34.5978H56.8508V35.3671C56.8508 35.4817 56.8692 35.5572 56.9055 35.5934C56.9418 35.6296 57.017 35.6475 57.1319 35.6475H57.5398C57.6607 35.6475 57.7388 35.6296 57.7712 35.5934C57.8035 35.5572 57.8209 35.4802 57.8209 35.3671Z" fill="#754FFE"/>
<path opacity="0.8" d="M59.7883 32.607V34.9134H59.1719V32.5072C59.1719 32.266 59.2307 32.0866 59.3485 31.9692C59.4662 31.8517 59.6462 31.7928 59.8883 31.7925H60.3778V32.3265H60.0694C59.9544 32.3265 59.8788 32.3429 59.8425 32.3762C59.8062 32.4094 59.7883 32.4883 59.7883 32.607ZM59.7883 34.3798V35.367C59.7883 35.4817 59.8067 35.5571 59.8425 35.5933C59.8783 35.6296 59.9544 35.6474 60.0694 35.6474H60.3504V36.181H59.8883C59.6465 36.181 59.4666 36.1223 59.3485 36.0048C59.2304 35.8873 59.1715 35.7078 59.1719 35.4663V34.3798H59.7883ZM60.9126 35.3655V34.4518H61.529V35.4663C61.529 35.7075 61.4701 35.8868 61.3524 36.0043C61.2347 36.1218 61.0549 36.1805 60.8131 36.1805H60.2599V35.6459H60.6315C60.7524 35.6459 60.8305 35.6281 60.8629 35.5919C60.8952 35.5556 60.9126 35.4802 60.9126 35.367V35.3655ZM60.9126 34.9044V32.607C60.9126 32.4863 60.8957 32.4084 60.8629 32.3762C60.83 32.3439 60.7524 32.3265 60.6315 32.3265H60.3231V31.7935H60.8131C61.0542 31.7935 61.234 31.8524 61.3524 31.9702C61.4708 32.088 61.5297 32.2673 61.529 32.5082V34.9054L60.9126 34.9044Z" fill="#0C233A"/>
<path opacity="0.8" d="M63.6315 31.7933V32.3274H61.9375V31.7933H63.6315ZM62.9972 30.9883V36.1794H62.3713V30.8429C62.3713 30.6017 62.4304 30.4222 62.5484 30.3044C62.6665 30.1866 62.8463 30.1278 63.0877 30.1282H63.6315V30.7069H63.2807C63.1658 30.7069 63.0902 30.7238 63.0539 30.7565C63.0176 30.7893 62.9972 30.8667 62.9972 30.9873V30.9883Z" fill="#0C233A"/>
<path opacity="0.8" d="M65.3738 31.7936V32.3276H63.7236V31.7936H65.3738ZM64.748 31.0794V35.3215C64.748 35.4361 64.7659 35.5115 64.8022 35.5478C64.8385 35.584 64.9141 35.6019 65.0291 35.6019H65.3738V36.1806H64.8385C64.5967 36.1806 64.417 36.1219 64.2992 36.0044C64.1815 35.8869 64.1226 35.7076 64.1226 35.4664V31.0784L64.748 31.0794Z" fill="#0C233A"/>
<path opacity="0.8" d="M67.6302 34.1533H67.0049V32.507C67.0049 32.2658 67.0638 32.0865 67.1815 31.969C67.2992 31.8515 67.479 31.7926 67.7208 31.7923H68.0835C68.2224 31.7863 68.359 31.8296 68.469 31.9144C68.5685 31.9958 68.6183 32.1391 68.6183 32.3442V32.9051H68.582V32.6519C68.582 32.5315 68.5577 32.4469 68.5093 32.3983C68.4609 32.3497 68.3823 32.3257 68.2735 32.3263H67.9108C67.7959 32.3263 67.7203 32.3427 67.6845 32.376C67.6486 32.4092 67.6297 32.4862 67.6297 32.6068L67.6302 34.1533ZM67.0049 33.8188H67.6302V35.3668C67.6302 35.4815 67.6486 35.5569 67.685 35.5932C67.7213 35.6294 67.7964 35.6473 67.9113 35.6473H68.274C68.3829 35.6473 68.4616 35.6234 68.5098 35.5748C68.5581 35.5262 68.5824 35.4423 68.5824 35.3217V35.0864H68.6188V35.6294C68.6188 35.8342 68.569 35.9773 68.4695 36.0587C68.3595 36.1435 68.2229 36.1868 68.084 36.1808H67.7213C67.4795 36.1808 67.2997 36.1221 67.182 36.0046C67.0643 35.8871 67.0052 35.7076 67.0049 35.4661V33.8188ZM69.2078 36.1793H68.5824V31.7933H69.2078V36.1793Z" fill="#0C233A"/>
<path opacity="0.8" d="M70.6503 37.4551H70.0244V31.7935H70.6503V37.4551ZM72.2278 34.1536H71.6025V32.607C71.6025 32.4864 71.5856 32.4085 71.5527 32.3762C71.5199 32.344 71.4428 32.3266 71.3219 32.3266H70.9592C70.8501 32.3266 70.7715 32.3506 70.7234 32.3986C70.6736 32.4482 70.6508 32.5316 70.6508 32.6522V32.9594H70.6144V32.3445C70.6144 32.1396 70.6642 31.9964 70.7637 31.9146C70.8735 31.8298 71.01 31.7865 71.1488 31.7925H71.5114C71.7532 31.7925 71.9331 31.8514 72.0512 31.9692C72.1693 32.087 72.2282 32.2664 72.2278 32.5072V34.1536ZM71.6025 33.8096H72.2278V35.4663C72.2278 35.7076 72.169 35.8869 72.0512 36.0044C71.9335 36.1218 71.7535 36.1806 71.5114 36.1806H71.1488C71.01 36.1865 70.8735 36.1433 70.7637 36.0585C70.6642 35.9771 70.6144 35.834 70.6144 35.6291V35.1214L70.6508 35.1125V35.3204C70.6508 35.441 70.6746 35.5254 70.7234 35.5735C70.7721 35.6217 70.8503 35.646 70.9592 35.646H71.3219C71.4428 35.646 71.5209 35.6281 71.5527 35.5919C71.5846 35.5557 71.6025 35.4802 71.6025 35.3656V33.8096Z" fill="#0C233A"/>
<path opacity="0.8" d="M73.6239 37.4551H72.998V31.7935H73.6239V37.4551ZM75.2015 34.1535H74.5746V32.607C74.5746 32.4864 74.5582 32.4085 74.5249 32.3762C74.4915 32.3439 74.4144 32.3266 74.2935 32.3266H73.9309C73.8224 32.3266 73.7438 32.3506 73.695 32.3985C73.6463 32.4465 73.6222 32.5311 73.6229 32.6522V32.9594H73.5866V32.3444C73.5866 32.1396 73.6363 31.9963 73.7358 31.9146C73.8459 31.8299 73.9825 31.7866 74.1214 31.7925H74.4841C74.7259 31.7925 74.9056 31.8514 75.0234 31.9692C75.1411 32.087 75.2001 32.2663 75.2005 32.5072L75.2015 34.1535ZM74.5746 33.8096H75.2005V35.4663C75.2005 35.7075 75.1414 35.8869 75.0234 36.0043C74.9053 36.1218 74.7255 36.1805 74.4841 36.1805H74.1214C73.9825 36.1864 73.8459 36.1432 73.7358 36.0584C73.6363 35.977 73.5866 35.8339 73.5866 35.6291V35.1214L73.6229 35.1124V35.3204C73.6229 35.4412 73.6469 35.5256 73.695 35.5735C73.7448 35.6232 73.8224 35.646 73.9309 35.646H74.2935C74.4144 35.646 74.4925 35.6281 74.5249 35.5919C74.5572 35.5557 74.5746 35.4802 74.5746 35.3656V33.8096Z" fill="#0C233A"/>
<path opacity="0.8" d="M76.598 36.1796H75.9727V31.7936H76.598V36.1806V36.1796ZM77.4413 31.7936V32.3365H77.1691C76.7884 32.3365 76.598 32.5627 76.598 33.015V33.1867H76.5617V32.5266C76.5641 32.4137 76.5904 32.3026 76.6388 32.2005C76.6901 32.0861 76.7697 31.9865 76.8701 31.9112C76.9802 31.8304 77.1142 31.789 77.2507 31.7936H77.4413Z" fill="#0C233A"/>
<path opacity="0.8" d="M78.465 32.607V34.9134H77.8486V32.5072C77.8486 32.266 77.9075 32.0866 78.0252 31.9692C78.143 31.8517 78.3229 31.7928 78.565 31.7925H79.0546V32.3265H78.7461C78.6312 32.3265 78.5561 32.3429 78.5198 32.3762C78.4834 32.4094 78.465 32.4883 78.465 32.607ZM78.465 34.3798V35.367C78.465 35.4817 78.4834 35.5571 78.5198 35.5933C78.5561 35.6296 78.6312 35.6474 78.7461 35.6474H79.0272V36.181H78.565C78.3232 36.181 78.1433 36.1223 78.0252 36.0048C77.9072 35.8873 77.8483 35.7078 77.8486 35.4663V34.3798H78.465ZM79.5894 35.367V34.4518H80.2063V35.4663C80.2063 35.7075 80.1472 35.8868 80.0292 36.0043C79.9111 36.1218 79.7313 36.1805 79.4899 36.1805H78.9367V35.6459H79.3083C79.4292 35.6459 79.5073 35.6281 79.5396 35.5919C79.572 35.5556 79.5894 35.4802 79.5894 35.367ZM79.5894 34.9059V32.607C79.5894 32.4863 79.573 32.4084 79.5396 32.3762C79.5063 32.3439 79.4292 32.3265 79.3083 32.3265H79.0023V31.7935H79.4919C79.7336 31.7935 79.9134 31.8524 80.0312 31.9702C80.1489 32.088 80.2079 32.2673 80.2083 32.5082V34.9054L79.5894 34.9059Z" fill="#0C233A"/>
<path opacity="0.8" d="M81.557 34.1533H80.9316V32.507C80.9316 32.2658 80.9905 32.0864 81.1082 31.969C81.226 31.8515 81.4058 31.7926 81.6475 31.7923H82.0102C82.1491 31.7864 82.2857 31.8296 82.3958 31.9144C82.4953 31.9958 82.545 32.1392 82.545 32.3442V32.905H82.5087V32.6519C82.5087 32.5315 82.4845 32.4469 82.4361 32.3983C82.3863 32.3487 82.3092 32.3263 82.2003 32.3263H81.8381C81.7232 32.3263 81.6475 32.3427 81.6112 32.376C81.5749 32.4092 81.557 32.4861 81.557 32.6068V34.1533ZM80.9316 33.8188H81.557V35.3668C81.557 35.4815 81.5749 35.5569 81.6112 35.5931C81.6475 35.6294 81.7232 35.6472 81.8381 35.6472H82.2008C82.3097 35.6472 82.3878 35.6234 82.4366 35.5748C82.4853 35.5261 82.5092 35.4423 82.5092 35.3217V35.0864H82.5455V35.6294C82.5455 35.8344 82.4958 35.9768 82.3963 36.0587C82.2862 36.1434 82.1496 36.1867 82.0107 36.1808H81.648C81.4063 36.1808 81.2265 36.1221 81.1087 36.0046C80.991 35.8871 80.932 35.7076 80.9316 35.4661V33.8188ZM83.1346 36.1793H82.5092V31.7933H83.1346V36.1793Z" fill="#0C233A"/>
<path opacity="0.8" d="M84.5321 32.6069V35.367C84.5321 35.4817 84.55 35.5571 84.5863 35.5933C84.6226 35.6296 84.6983 35.6474 84.8132 35.6474H85.0306V36.181H84.6251C84.3833 36.181 84.2036 36.1222 84.0858 36.0048C83.9681 35.8873 83.9082 35.7078 83.9062 35.4663V32.5082C83.9062 32.267 83.9653 32.0876 84.0834 31.9701C84.2014 31.8527 84.382 31.7938 84.6251 31.7935H85.0968V32.3275H84.8157C84.7007 32.3275 84.6251 32.3439 84.5888 32.3771C84.5525 32.4104 84.5321 32.4883 84.5321 32.6069ZM85.5475 33.0953V32.6069C85.5475 32.4863 85.5306 32.4084 85.4977 32.3761C85.4649 32.3439 85.3873 32.3265 85.2664 32.3265H84.958V31.7935H85.4554C85.6972 31.7935 85.877 31.8524 85.9947 31.9701C86.1125 32.0879 86.1713 32.2673 86.1713 32.5082V33.0963L85.5475 33.0953ZM85.5475 35.3655V34.8771H86.1728V35.4663C86.1728 35.7075 86.114 35.8868 85.9962 36.0043C85.8785 36.1217 85.6987 36.1805 85.4569 36.1805H84.9594V35.6459H85.2679C85.3888 35.6459 85.4669 35.6281 85.4992 35.5918C85.5316 35.5556 85.5475 35.4802 85.5475 35.367V35.3655Z" fill="#0C233A"/>
<path opacity="0.8" d="M87.5223 36.1794H86.8965V30.1282H87.5223V36.1794ZM89.0999 36.1794H88.4745V32.6058C88.4745 32.4852 88.4576 32.4073 88.4248 32.375C88.392 32.3428 88.3144 32.3254 88.1935 32.3254H87.8308C87.7223 32.3254 87.6439 32.3494 87.5955 32.3974C87.5457 32.447 87.5228 32.5304 87.5228 32.651V32.9349H87.4865V32.3443C87.4865 32.1394 87.5363 31.9962 87.6358 31.9144C87.7456 31.8296 87.882 31.7864 88.0208 31.7924H88.3835C88.6253 31.7924 88.8052 31.8512 88.9233 31.969C89.0414 32.0868 89.1002 32.2662 89.0999 32.5071V36.1794Z" fill="#0C233A"/>
<path d="M84.4175 44.4831V43.0254C84.4175 42.9113 84.4016 42.8383 84.3702 42.807C84.3389 42.7758 84.2658 42.7599 84.1513 42.7599H83.5668C83.3376 42.7599 83.1671 42.7041 83.0554 42.5926C82.9436 42.4811 82.8877 42.311 82.8877 42.0824V40.5989C82.8877 40.3706 82.9436 40.2005 83.0554 40.0886C83.1671 39.9768 83.3376 39.9211 83.5668 39.9214H84.3255C84.5546 39.9214 84.7251 39.9771 84.8369 40.0886C84.9487 40.2002 85.0045 40.3702 85.0045 40.5989V41.4223H84.4115V40.6932C84.4115 40.579 84.3956 40.5061 84.3618 40.4748C84.3279 40.4435 84.2573 40.4276 84.1424 40.4276H83.7474C83.6384 40.4276 83.5668 40.443 83.5325 40.4748C83.4981 40.5066 83.4827 40.579 83.4827 40.6932V41.9881C83.4827 42.0968 83.5001 42.1683 83.5325 42.2025C83.5648 42.2367 83.6384 42.2521 83.7474 42.2521H84.3314C84.5609 42.2521 84.7314 42.3079 84.8429 42.4194C84.9543 42.5309 85.0102 42.701 85.0105 42.9296V44.5759C85.0105 44.8046 84.9546 44.9746 84.8429 45.0862C84.7311 45.1977 84.5606 45.2534 84.3314 45.2534H83.5852C83.3563 45.2534 83.1859 45.1977 83.0738 45.0862C82.9617 44.9746 82.9059 44.8046 82.9066 44.5759V43.755H83.4996V44.4836C83.4996 44.5923 83.5165 44.6638 83.5494 44.698C83.5822 44.7323 83.6553 44.7477 83.7643 44.7477H84.1513C84.2658 44.7477 84.3389 44.7303 84.3702 44.698C84.4016 44.6658 84.4175 44.5918 84.4175 44.4831Z" fill="#754FFE"/>
<path opacity="0.8" d="M86.9626 41.0962V41.6019H85.3984V41.0962H86.9626ZM86.3695 40.4187V44.4389C86.3695 44.5476 86.3865 44.6191 86.4193 44.6533C86.4521 44.6876 86.5253 44.703 86.6337 44.703H86.9626V45.2514H86.4551C86.2259 45.2514 86.0555 45.1957 85.9437 45.0842C85.8319 44.9727 85.776 44.8026 85.776 44.5739V40.4187H86.3695Z" fill="#0C233A"/>
<path opacity="0.8" d="M88.0276 45.2547H87.4346V41.096H88.0276V45.2547ZM88.8271 41.096V41.6107H88.5689C88.2083 41.6107 88.0279 41.8258 88.0276 42.2559V42.4148H87.9933V41.7909C87.9954 41.684 88.0204 41.5787 88.0664 41.4822C88.1149 41.3737 88.1902 41.2792 88.2853 41.2077C88.3897 41.131 88.5169 41.0917 88.6465 41.096H88.8271Z" fill="#0C233A"/>
<path opacity="0.8" d="M89.7985 41.8688V44.0526H89.2139V41.7695C89.2139 41.5406 89.2698 41.3705 89.3816 41.2593C89.4933 41.1481 89.6638 41.0924 89.893 41.092H90.3572V41.5978H90.0646C89.9562 41.5978 89.8845 41.6137 89.8502 41.6474C89.8159 41.6812 89.7985 41.7536 89.7985 41.8688ZM89.7985 43.5493V44.4839C89.7985 44.5926 89.8154 44.6641 89.8482 44.6983C89.881 44.7326 89.9542 44.748 90.0626 44.748H90.3293V45.2537H89.891C89.6615 45.2537 89.491 45.198 89.3796 45.0865C89.2681 44.975 89.2122 44.8049 89.2119 44.5762V43.5484L89.7985 43.5493ZM90.8641 44.4839V43.6168H91.4487V44.5772C91.4487 44.8059 91.3928 44.976 91.281 45.0875C91.1692 45.199 90.9988 45.2547 90.7696 45.2547H90.2462V44.7475H90.5989C90.7134 44.7475 90.7865 44.7301 90.8178 44.6978C90.8492 44.6656 90.8641 44.5916 90.8641 44.4829V44.4839ZM90.8641 44.0467V41.8688C90.8641 41.7546 90.8482 41.6817 90.8144 41.6499C90.7805 41.6181 90.7099 41.6003 90.5955 41.6003H90.3029V41.096H90.7671C90.9966 41.096 91.1671 41.1518 91.2785 41.2633C91.39 41.3748 91.4458 41.5449 91.4462 41.7735V44.0457L90.8641 44.0467Z" fill="#0C233A"/>
<path opacity="0.8" d="M92.7717 45.2549H92.1787V41.0962H92.7717V45.2549ZM94.2672 45.2549H93.6742V41.869C93.6742 41.7548 93.6588 41.6819 93.6244 41.6501C93.5901 41.6183 93.52 41.6005 93.4055 41.6005H93.0618C92.9588 41.6005 92.8842 41.6238 92.8384 41.6694C92.7926 41.7151 92.7692 41.795 92.7692 41.9092V42.201H92.7349V41.6208C92.7349 41.4266 92.7822 41.2908 92.8767 41.2133C92.9811 41.133 93.1106 41.0921 93.2424 41.0977H93.5861C93.815 41.0977 93.9855 41.1534 94.0976 41.2649C94.2097 41.3765 94.2654 41.5465 94.2647 41.7752L94.2672 45.2549Z" fill="#0C233A"/>
<path opacity="0.8" d="M95.5911 43.3339H94.9981V41.7734C94.9981 41.5445 95.054 41.3744 95.1657 41.2632C95.2775 41.152 95.448 41.0963 95.6772 41.096H96.0209C96.1525 41.0904 96.2818 41.1314 96.3861 41.2116C96.4806 41.289 96.5279 41.4248 96.5279 41.6191V42.2023H96.4936V41.9104C96.4936 41.7963 96.4707 41.7164 96.4249 41.6707C96.3624 41.6193 96.2822 41.5945 96.2015 41.6017H95.8573C95.7488 41.6017 95.6772 41.6176 95.6428 41.6513C95.6085 41.6851 95.5931 41.7561 95.5931 41.8702L95.5911 43.3339ZM94.9981 43.0103H95.5911V44.4849C95.5911 44.5936 95.6085 44.665 95.6408 44.6993C95.6732 44.7335 95.7468 44.7489 95.8553 44.7489H96.1995C96.3025 44.7489 96.3767 44.7261 96.4229 44.6804C96.4692 44.6348 96.4916 44.5543 96.4916 44.4402V44.2417L96.5259 44.2501V44.73C96.5259 44.9246 96.4786 45.0604 96.3841 45.1375C96.2798 45.2177 96.1505 45.2587 96.019 45.2532H95.6752C95.4457 45.2532 95.2752 45.1974 95.1637 45.0859C95.0523 44.9744 94.9964 44.8043 94.9961 44.5757L94.9981 43.0103ZM96.4936 45.6904V45.1688H97.0866V45.7862C97.0866 46.0152 97.0307 46.1853 96.9189 46.2964C96.8071 46.4076 96.6367 46.4634 96.4075 46.4637H95.1269V45.958H96.2269C96.3418 45.958 96.415 45.9406 96.4463 45.9083C96.4776 45.8761 96.4936 45.8006 96.4936 45.6904ZM97.0866 45.2705H96.4936V41.096H97.0866V45.2705Z" fill="#0C233A"/>
<path d="M100.713 42.2536V40.6932C100.713 40.579 100.697 40.5061 100.663 40.4748C100.63 40.4435 100.559 40.4276 100.445 40.4276H99.0605V39.9214H100.616C100.845 39.9214 101.016 39.9771 101.128 40.0887C101.239 40.2002 101.295 40.3702 101.295 40.5989V42.3479C101.295 42.5769 101.239 42.747 101.128 42.8582C101.016 42.9693 100.845 43.0251 100.616 43.0254H99.4133V42.5197H100.445C100.559 42.5197 100.632 42.5023 100.663 42.47C100.695 42.4378 100.713 42.3623 100.713 42.2536ZM99.063 39.9209H99.6486V45.2549H99.064L99.063 39.9209ZM100.077 42.7996H100.687L101.573 45.2519H100.937L100.077 42.7996Z" fill="#754FFE"/>
<path d="M102.699 41.869V44.4841C102.699 44.5928 102.716 44.6643 102.748 44.6985C102.781 44.7328 102.854 44.7482 102.963 44.7482H103.169V45.2539H102.783C102.553 45.2539 102.383 45.1982 102.271 45.0866C102.159 44.9751 102.104 44.8051 102.104 44.5764V41.7737C102.104 41.5447 102.159 41.3746 102.271 41.2635C102.383 41.1523 102.553 41.0965 102.783 41.0962H103.23V41.6019H102.964C102.855 41.6019 102.784 41.6178 102.749 41.6516C102.715 41.6853 102.699 41.7538 102.699 41.869ZM104.254 42.872V43.3783H102.364V42.872H104.254ZM103.661 43.2924V41.869C103.661 41.7548 103.645 41.6819 103.614 41.6501C103.583 41.6183 103.509 41.6005 103.395 41.6005H103.102V41.0962H103.575C103.805 41.0962 103.975 41.1519 104.087 41.2635C104.198 41.375 104.254 41.545 104.254 41.7737V43.2914L103.661 43.2924ZM103.635 44.4836V44.1064H104.228V44.5779C104.228 44.8066 104.172 44.9766 104.061 45.0881C103.949 45.1996 103.779 45.2554 103.55 45.2554H103.102V44.7477H103.369C103.483 44.7477 103.556 44.7303 103.588 44.698C103.619 44.6658 103.635 44.5918 103.635 44.4831V44.4836Z" fill="#754FFE"/>
<path d="M106.222 44.492V43.7054C106.222 43.5912 106.206 43.5183 106.175 43.487C106.143 43.4557 106.07 43.4398 105.956 43.4398H105.535C105.305 43.4398 105.135 43.3841 105.023 43.2726C104.912 43.1611 104.856 42.991 104.855 42.7624V41.7737C104.855 41.5447 104.911 41.3746 105.023 41.2635C105.135 41.1523 105.305 41.0965 105.535 41.0962H106.119C106.348 41.0962 106.518 41.1519 106.631 41.2635C106.743 41.375 106.799 41.545 106.798 41.7737V42.1941H106.215V41.8595C106.215 41.7449 106.199 41.6724 106.168 41.6407C106.137 41.6089 106.063 41.5935 105.948 41.5935H105.708C105.599 41.5935 105.528 41.6094 105.493 41.6407C105.459 41.6719 105.444 41.7449 105.444 41.8595V42.674C105.444 42.7827 105.461 42.8542 105.493 42.8884C105.526 42.9227 105.599 42.9381 105.708 42.9381H106.129C106.358 42.9381 106.529 42.9936 106.64 43.1048C106.752 43.216 106.808 43.3861 106.808 43.615V44.5754C106.808 44.8041 106.752 44.9741 106.64 45.0857C106.529 45.1972 106.358 45.2529 106.129 45.2529H105.553C105.324 45.2529 105.154 45.1972 105.042 45.0857C104.93 44.9741 104.874 44.8047 104.872 44.5774V44.1575H105.456V44.492C105.456 44.6007 105.473 44.6717 105.506 44.7065C105.539 44.7412 105.612 44.7561 105.721 44.7561H105.953C106.068 44.7561 106.141 44.7392 106.172 44.7065C106.204 44.6737 106.222 44.5988 106.222 44.492Z" fill="#754FFE"/>
<path d="M107.494 41.0962H108.087V44.4831C108.087 44.5918 108.105 44.6633 108.137 44.6975C108.169 44.7318 108.243 44.7472 108.352 44.7472H108.696C108.799 44.7472 108.873 44.7243 108.919 44.6787C108.965 44.633 108.988 44.5526 108.988 44.4384V44.1471H109.022V44.7298C109.022 44.9244 108.975 45.0602 108.88 45.1373C108.776 45.2175 108.647 45.2584 108.515 45.2529H108.171C107.942 45.2529 107.771 45.1972 107.66 45.0857C107.548 44.9741 107.493 44.8041 107.492 44.5754L107.494 41.0962ZM108.99 41.0962H109.583V45.2549H108.99V41.0962Z" fill="#754FFE"/>
<path d="M110.949 45.2546H110.356V39.5181H110.949V45.2546Z" fill="#754FFE"/>
<path d="M112.944 41.0962V41.6019H111.38V41.0962H112.944ZM112.351 40.4187V44.4389C112.351 44.5476 112.368 44.6191 112.401 44.6533C112.433 44.6876 112.507 44.703 112.616 44.703H112.942V45.2514H112.435C112.206 45.2514 112.035 45.1957 111.924 45.0842C111.812 44.9727 111.756 44.8026 111.756 44.5739V40.4187H112.351Z" fill="#754FFE"/>
<path d="M114.696 44.4918V43.7051C114.696 43.591 114.681 43.518 114.649 43.4867C114.617 43.4555 114.544 43.4396 114.43 43.4396H114.009C113.779 43.4396 113.609 43.3838 113.497 43.2723C113.385 43.1608 113.329 42.9908 113.329 42.7621V41.7734C113.329 41.5445 113.385 41.3744 113.497 41.2632C113.609 41.152 113.779 41.0963 114.008 41.0959H114.593C114.822 41.0959 114.992 41.1517 115.104 41.2632C115.216 41.3747 115.272 41.5448 115.272 41.7734V42.1938H114.687V41.8593C114.687 41.7446 114.671 41.6722 114.64 41.6404C114.609 41.6087 114.536 41.5933 114.421 41.5933H114.18C114.071 41.5933 114 41.6091 113.965 41.6404C113.931 41.6717 113.916 41.7446 113.916 41.8593V42.6738C113.916 42.7825 113.933 42.8539 113.965 42.8882C113.998 42.9224 114.071 42.9378 114.18 42.9378H114.601C114.83 42.9378 115.001 42.9934 115.113 43.1046C115.224 43.2158 115.28 43.3858 115.28 43.6148V44.5752C115.28 44.8038 115.224 44.9739 115.113 45.0854C115.001 45.1969 114.83 45.2527 114.601 45.2527H114.026C113.796 45.2527 113.626 45.1969 113.514 45.0854C113.402 44.9739 113.347 44.8038 113.347 44.5752V44.1553H113.931V44.4898C113.931 44.5985 113.948 44.6695 113.981 44.7042C114.014 44.739 114.087 44.7539 114.196 44.7539H114.428C114.543 44.7539 114.616 44.737 114.647 44.7042C114.678 44.6715 114.696 44.5985 114.696 44.4918Z" fill="#754FFE"/>
<g opacity="0.8">
<path d="M80.9491 40.1963V45.4018C80.9492 45.4635 80.9372 45.5246 80.9136 45.5816C80.89 45.6386 80.8554 45.6904 80.8118 45.7341C80.7681 45.7777 80.7162 45.8124 80.6591 45.836C80.602 45.8596 80.5408 45.8718 80.479 45.8718H80.3183C80.1934 45.8717 80.0737 45.8221 79.9855 45.734C79.8972 45.6458 79.8477 45.5264 79.8477 45.4018V40.1963C79.8477 40.1347 79.8598 40.0737 79.8835 40.0167C79.9072 39.9598 79.9418 39.9081 79.9855 39.8645C80.0292 39.8209 80.0811 39.7864 80.1382 39.7629C80.1953 39.7393 80.2565 39.7272 80.3183 39.7273H80.479C80.5407 39.7272 80.6019 39.7393 80.659 39.7629C80.716 39.7864 80.7679 39.821 80.8116 39.8645C80.8552 39.9081 80.8899 39.9598 80.9135 40.0168C80.9371 40.0737 80.9492 40.1347 80.9491 40.1963Z" fill="#0C233A"/>
</g>
<g opacity="0.8">
<path d="M79.8487 42.2498V43.3486H61.0483C60.9235 43.3486 60.8038 43.2992 60.7155 43.2113C60.6272 43.1234 60.5774 43.0041 60.5771 42.8796V42.7193C60.5773 42.5947 60.627 42.4753 60.7153 42.3872C60.8037 42.2992 60.9234 42.2498 61.0483 42.2498H79.8487Z" fill="#0C233A"/>
</g>
<g opacity="0.8">
<path d="M59.5597 42.2495H57.9622C57.7636 42.2495 57.6025 42.4102 57.6025 42.6084V42.9895C57.6025 43.1877 57.7636 43.3484 57.9622 43.3484H59.5597C59.7583 43.3484 59.9194 43.1877 59.9194 42.9895V42.6084C59.9194 42.4102 59.7583 42.2495 59.5597 42.2495Z" fill="#0C233A"/>
</g>
<g opacity="0.8">
<path d="M56.5855 42.2498H56.2034C56.0048 42.2498 55.8438 42.4104 55.8438 42.6086V42.9898C55.8438 43.188 56.0048 43.3486 56.2034 43.3486H56.5855C56.7842 43.3486 56.9452 43.188 56.9452 42.9898V42.6086C56.9452 42.4104 56.7842 42.2498 56.5855 42.2498Z" fill="#0C233A"/>
</g>
<g opacity="0.8">
<path d="M91.578 30.9424V36.8025C91.578 36.8642 91.5658 36.9252 91.5422 36.9821C91.5185 37.0391 91.4839 37.0908 91.4401 37.1344C91.3964 37.1779 91.3446 37.2125 91.2875 37.236C91.2304 37.2595 91.1692 37.2716 91.1074 37.2716H90.9467C90.822 37.2714 90.7025 37.222 90.6144 37.134C90.5263 37.0461 90.4767 36.9269 90.4766 36.8025V30.9424C90.4767 30.8181 90.5263 30.6988 90.6144 30.6109C90.7025 30.523 90.822 30.4735 90.9467 30.4734H91.1074C91.1692 30.4733 91.2304 30.4854 91.2875 30.5089C91.3446 30.5325 91.3964 30.567 91.4401 30.6106C91.4839 30.6541 91.5185 30.7059 91.5422 30.7628C91.5658 30.8197 91.578 30.8808 91.578 30.9424Z" fill="#0C233A"/>
</g>
<g opacity="0.8">
<path d="M110.851 33.7923V33.9526C110.851 34.0769 110.801 34.1962 110.713 34.2841C110.625 34.372 110.505 34.4215 110.38 34.4216H91.5791V33.3232H110.38C110.505 33.3234 110.625 33.3728 110.713 33.4608C110.801 33.5487 110.851 33.6679 110.851 33.7923Z" fill="#0C233A"/>
</g>
<g opacity="0.8">
<path d="M113.464 33.3228H111.867C111.668 33.3228 111.507 33.4834 111.507 33.6816V34.0628C111.507 34.261 111.668 34.4216 111.867 34.4216H113.464C113.663 34.4216 113.824 34.261 113.824 34.0628V33.6816C113.824 33.4834 113.663 33.3228 113.464 33.3228Z" fill="#0C233A"/>
</g>
<g opacity="0.8">
<path d="M115.223 33.3228H114.841C114.642 33.3228 114.481 33.4834 114.481 33.6816V34.0628C114.481 34.261 114.642 34.4216 114.841 34.4216H115.223C115.422 34.4216 115.583 34.261 115.583 34.0628V33.6816C115.583 33.4834 115.422 33.3228 115.223 33.3228Z" fill="#0C233A"/>
</g>
</g>
<defs>
<clipPath id="clip0_1050_5230">
<rect width="127" height="47" fill="white"/>
</clipPath>
</defs>
</svg>
