<svg width="24" height="25" viewBox="0 0 24 25" fill="none" xmlns="http://www.w3.org/2000/svg">
<path fill-rule="evenodd" clip-rule="evenodd" d="M13.7929 14.2929C14.1834 13.9024 14.8166 13.9024 15.2071 14.2929L20.7071 19.7929C21.0976 20.1834 21.0976 20.8166 20.7071 21.2071C20.3166 21.5976 19.6834 21.5976 19.2929 21.2071L13.7929 15.7071C13.4024 15.3166 13.4024 14.6834 13.7929 14.2929Z" fill="#754FFE"/>
<path fill-rule="evenodd" clip-rule="evenodd" d="M10 5.5C7.23858 5.5 5 7.73858 5 10.5C5 13.2614 7.23858 15.5 10 15.5C12.7614 15.5 15 13.2614 15 10.5C15 7.73858 12.7614 5.5 10 5.5ZM3 10.5C3 6.63401 6.13401 3.5 10 3.5C13.866 3.5 17 6.63401 17 10.5C17 14.366 13.866 17.5 10 17.5C6.13401 17.5 3 14.366 3 10.5Z" fill="#754FFE"/>
</svg>
