<svg width="80" height="80" viewBox="0 0 80 80" fill="none" xmlns="http://www.w3.org/2000/svg">
<path d="M40.2099 79.7644C62.0558 79.7644 79.7654 62.0548 79.7654 40.2089C79.7654 18.3629 62.0558 0.65332 40.2099 0.65332C18.3639 0.65332 0.654297 18.3629 0.654297 40.2089C0.654297 62.0548 18.3639 79.7644 40.2099 79.7644Z" fill="#32BA7C"/>
<path d="M30.1035 58.0522L50.4428 78.3915C67.2882 73.8994 79.7663 58.5513 79.7663 40.2085V39.0855L63.7944 24.3613L30.1035 58.0522Z" fill="#0AA06E"/>
<path d="M41.208 49.0683C42.9549 50.8152 42.9549 53.81 41.208 55.5569L37.5893 59.1755C35.8424 60.9225 32.8477 60.9225 31.1007 59.1755L15.2536 43.2036C13.5066 41.4567 13.5066 38.4619 15.2536 36.715L18.8722 33.0963C20.6191 31.3494 23.6139 31.3494 25.3608 33.0963L41.208 49.0683Z" fill="white"/>
<path d="M55.0589 21.4918C56.8058 19.7449 59.8006 19.7449 61.5475 21.4918L65.1661 25.1105C66.9131 26.8574 66.9131 29.8522 65.1661 31.5991L37.7143 58.9261C35.9674 60.6731 32.9727 60.6731 31.2257 58.9261L27.6071 55.3075C25.8601 53.5605 25.8601 50.5658 27.6071 48.8189L55.0589 21.4918Z" fill="white"/>
</svg>
