<svg width="20" height="24" viewBox="0 0 20 24" fill="none" xmlns="http://www.w3.org/2000/svg">
<path d="M18.3252 24C18.7668 24 19.1903 23.8314 19.5026 23.5314C19.8148 23.2313 19.9903 22.8243 19.9903 22.4V6.4968C19.9891 6.0727 19.8138 5.66618 19.5024 5.3656L14.4065 0.4688C14.0937 0.169609 13.6707 0.00113768 13.2294 0L1.67481 0C1.23321 0 0.8097 0.168571 0.497445 0.468629C0.185189 0.768687 0.00976563 1.17565 0.00976562 1.6V22.4C0.00976563 22.8243 0.185189 23.2313 0.497445 23.5314C0.8097 23.8314 1.23321 24 1.67481 24H18.3252ZM18.5691 5.6H14.9951C14.7743 5.6 14.5626 5.51571 14.4065 5.36569C14.2503 5.21566 14.1626 5.01217 14.1626 4.8V1.3656L18.5691 5.6ZM0.842286 22.4V1.6C0.842286 1.38783 0.929998 1.18434 1.08613 1.03431C1.24225 0.884285 1.45401 0.8 1.67481 0.8H13.2294C13.2631 0.801217 13.2968 0.804423 13.3301 0.8096V4.8C13.3301 5.22435 13.5055 5.63131 13.8178 5.93137C14.13 6.23143 14.5535 6.4 14.9951 6.4H19.1477C19.1531 6.43204 19.1565 6.46437 19.1577 6.4968V22.4C19.1577 22.6122 19.07 22.8157 18.9139 22.9657C18.7578 23.1157 18.546 23.2 18.3252 23.2H1.67481C1.45401 23.2 1.24225 23.1157 1.08613 22.9657C0.929998 22.8157 0.842286 22.6122 0.842286 22.4Z" fill="#2B3A53"/>
<path d="M3.7561 10.4016H16.2439C16.3543 10.4016 16.4602 10.3594 16.5382 10.2844C16.6163 10.2094 16.6602 10.1076 16.6602 10.0016C16.6602 9.89548 16.6163 9.79373 16.5382 9.71872C16.4602 9.6437 16.3543 9.60156 16.2439 9.60156H3.7561C3.6457 9.60156 3.53983 9.6437 3.46176 9.71872C3.3837 9.79373 3.33984 9.89548 3.33984 10.0016C3.33984 10.1076 3.3837 10.2094 3.46176 10.2844C3.53983 10.3594 3.6457 10.4016 3.7561 10.4016ZM3.7561 13.6016H16.2439C16.3543 13.6016 16.4602 13.5594 16.5382 13.4844C16.6163 13.4094 16.6602 13.3076 16.6602 13.2016C16.6602 13.0955 16.6163 12.9937 16.5382 12.9187C16.4602 12.8437 16.3543 12.8016 16.2439 12.8016H3.7561C3.6457 12.8016 3.53983 12.8437 3.46176 12.9187C3.3837 12.9937 3.33984 13.0955 3.33984 13.2016C3.33984 13.3076 3.3837 13.4094 3.46176 13.4844C3.53983 13.5594 3.6457 13.6016 3.7561 13.6016ZM3.7561 16.8016H16.2439C16.3543 16.8016 16.4602 16.7594 16.5382 16.6844C16.6163 16.6094 16.6602 16.5076 16.6602 16.4016C16.6602 16.2955 16.6163 16.1937 16.5382 16.1187C16.4602 16.0437 16.3543 16.0016 16.2439 16.0016H3.7561C3.6457 16.0016 3.53983 16.0437 3.46176 16.1187C3.3837 16.1937 3.33984 16.2955 3.33984 16.4016C3.33984 16.5076 3.3837 16.6094 3.46176 16.6844C3.53983 16.7594 3.6457 16.8016 3.7561 16.8016ZM3.7561 20.0016H12.0813C12.1917 20.0016 12.2976 19.9594 12.3756 19.8844C12.4537 19.8094 12.4976 19.7077 12.4976 19.6016C12.4976 19.4955 12.4537 19.3937 12.3756 19.3187C12.2976 19.2437 12.1917 19.2016 12.0813 19.2016H3.7561C3.6457 19.2016 3.53983 19.2437 3.46176 19.3187C3.3837 19.3937 3.33984 19.4955 3.33984 19.6016C3.33984 19.7077 3.3837 19.8094 3.46176 19.8844C3.53983 19.9594 3.6457 20.0016 3.7561 20.0016Z" fill="#2B3A53"/>
</svg>
