<svg width="54" height="46" viewBox="0 0 54 46" fill="none" xmlns="http://www.w3.org/2000/svg">
<path d="M53.3542 5.54868V32.2536C53.3542 33.7443 52.7548 35.174 51.6879 36.2282C50.6209 37.2823 49.1738 37.8745 47.6649 37.8745H21.7616L11.4039 45.4606C11.2656 45.5621 11.1014 45.6236 10.9297 45.6382C10.7581 45.6528 10.5857 45.6201 10.4318 45.5435C10.2779 45.4669 10.1485 45.3496 10.0582 45.2047C9.96785 45.0597 9.92008 44.8928 9.9202 44.7225V37.8745H7.09163C5.58274 37.8745 4.13564 37.2823 3.0687 36.2282C2.00175 35.174 1.40234 33.7443 1.40234 32.2536V5.54868C1.40234 2.44414 3.94806 -0.0722656 8.66277 -0.0722656H49.2374C50.8059 -0.0722656 53.3542 2.44414 53.3542 5.54868Z" fill="#754FFE"/>
<g opacity="0.3">
<path d="M30.957 3.64327H29.9721C29.7064 3.63397 29.4548 3.52317 29.2702 3.33421C29.0856 3.14524 28.9824 2.89286 28.9824 2.63023C28.9824 2.3676 29.0856 2.11522 29.2702 1.92625C29.4548 1.73728 29.7064 1.62648 29.9721 1.61719H30.957C31.2226 1.62648 31.4743 1.73728 31.6589 1.92625C31.8435 2.11522 31.9466 2.3676 31.9466 2.63023C31.9466 2.89286 31.8435 3.14524 31.6589 3.33421C31.4743 3.52317 31.2226 3.63397 30.957 3.64327ZM44.6511 3.64327H35.2911C35.0254 3.63397 34.7738 3.52317 34.5892 3.33421C34.4046 3.14524 34.3014 2.89286 34.3014 2.63023C34.3014 2.3676 34.4046 2.11522 34.5892 1.92625C34.7738 1.73728 35.0254 1.62648 35.2911 1.61719H44.6511C44.9168 1.62648 45.1684 1.73728 45.353 1.92625C45.5376 2.11522 45.6408 2.3676 45.6408 2.63023C45.6408 2.89286 45.5376 3.14524 45.353 3.33421C45.1684 3.52317 44.9168 3.63397 44.6511 3.64327Z" fill="white"/>
</g>
<g opacity="0.3">
<path d="M4.21026 28.7845C3.93859 28.7842 3.67815 28.6774 3.48605 28.4876C3.29396 28.2978 3.18589 28.0405 3.18555 27.7721V21.5516C3.19496 21.2891 3.3071 21.0405 3.49837 20.8581C3.68963 20.6757 3.94508 20.5738 4.2109 20.5738C4.47673 20.5738 4.73218 20.6757 4.92344 20.8581C5.11471 21.0405 5.22685 21.2891 5.23626 21.5516V27.7721C5.23626 28.331 4.77726 28.7845 4.21026 28.7845ZM4.21026 18.5753C3.93837 18.575 3.67774 18.4681 3.4856 18.278C3.29347 18.0879 3.18555 17.8303 3.18555 17.5617V16.5073C3.19496 16.2449 3.3071 15.9963 3.49837 15.8139C3.68963 15.6315 3.94508 15.5295 4.2109 15.5295C4.47673 15.5295 4.73218 15.6315 4.92344 15.8139C5.11471 15.9963 5.22685 16.2449 5.23626 16.5073V17.5617C5.23626 18.1206 4.77726 18.5753 4.21026 18.5753Z" fill="white"/>
</g>
<path d="M53.3539 5.54746V32.2549C53.3539 33.7453 52.7547 35.1747 51.6879 36.2286C50.6212 37.2825 49.1745 37.8746 47.6659 37.8746H21.7614L11.4114 45.467C11.2719 45.568 11.107 45.6289 10.9347 45.643C10.7624 45.6571 10.5895 45.6239 10.4351 45.547C10.2808 45.47 10.151 45.3525 10.06 45.2072C9.96911 45.0619 9.92062 44.8947 9.91992 44.7239V42.8845L18.9392 36.2728C19.2439 36.0492 19.6142 35.9285 19.9935 35.9285H45.3144C46.8229 35.9285 48.2697 35.3364 49.3364 34.2825C50.4031 33.2287 51.0024 31.7993 51.0024 30.3088V3.60268C51.0024 2.42768 50.6334 1.3327 50.0046 0.427002C51.0042 0.86929 51.8525 1.58835 52.4469 2.49712C53.0413 3.4059 53.3564 4.46544 53.3539 5.54746Z" fill="#754FFE"/>
<path d="M6.87109 29.0625V8.73943C6.87109 6.85816 8.41524 5.3313 11.8931 5.3313H44.7225C46.2744 5.37957 47.8854 6.85816 47.8854 8.73943V29.0638C47.8854 29.9674 47.5221 30.8341 46.8755 31.4732C46.2288 32.1123 45.3518 32.4716 44.4371 32.4719H10.3207C9.40578 32.4719 8.52837 32.1128 7.88145 31.4737C7.23453 30.8345 6.87109 29.9664 6.87109 29.0625Z" fill="white"/>
<path d="M47.8873 8.74336V29.0601C47.888 29.5073 47.7993 29.9503 47.6264 30.3636C47.4535 30.777 47.1997 31.1525 46.8796 31.4688C46.5595 31.785 46.1794 32.0358 45.761 32.2066C45.3426 32.3775 44.8943 32.4651 44.4416 32.4644H10.3187C9.58476 32.4663 8.86936 32.2367 8.27666 31.8089C7.68396 31.3812 7.24491 30.7778 7.02344 30.0864C7.22915 30.1271 7.44772 30.1411 7.66629 30.1411H41.7763C42.2296 30.1402 42.6784 30.0512 43.0969 29.879C43.5154 29.7068 43.8955 29.4549 44.2154 29.1376C44.5354 28.8203 44.789 28.4439 44.9617 28.0297C45.1344 27.6156 45.2229 27.1719 45.222 26.724V6.4048C45.222 6.05293 45.1667 5.70234 45.0703 5.37842C45.8627 5.52746 46.5777 5.945 47.0919 6.55903C47.6062 7.17307 47.8875 7.94639 47.8873 8.74336Z" fill="#E4E3FF"/>
<path d="M36.2392 17.916C36.2392 22.7443 32.2741 26.6618 27.373 26.6618C25.0254 26.6611 22.7743 25.7395 21.1143 24.0995C19.4544 22.4594 18.5215 20.2353 18.5208 17.916C18.5008 16.7541 18.7151 15.5999 19.1513 14.5207C19.5875 13.4415 20.2368 12.4589 21.0614 11.6302C21.886 10.8015 22.8693 10.1434 23.954 9.69408C25.0388 9.24481 26.2032 9.01343 27.3794 9.01343C28.5556 9.01343 29.72 9.24481 30.8047 9.69408C31.8895 10.1434 32.8728 10.8015 33.6974 11.6302C34.522 12.4589 35.1713 13.4415 35.6075 14.5207C36.0437 15.5999 36.2593 16.7541 36.2392 17.916Z" fill="#ECB200"/>
<path opacity="0.3" d="M20.828 18.2196H20.8075C20.7352 18.2171 20.6642 18.2006 20.5985 18.1709C20.5327 18.1413 20.4735 18.0991 20.4243 18.0469C20.3751 17.9946 20.3368 17.9332 20.3117 17.8663C20.2865 17.7993 20.275 17.7282 20.2777 17.6568C20.3134 16.5941 20.5936 15.5533 21.0971 14.6135C21.6005 13.6737 22.314 12.8595 23.1835 12.2328C23.3015 12.1599 23.4431 12.1337 23.5798 12.1597C23.7166 12.1856 23.8383 12.2617 23.9206 12.3726C24.003 12.4835 24.0398 12.6211 24.0237 12.7577C24.0077 12.8944 23.9399 13.0199 23.834 13.1093C23.0994 13.6395 22.4966 14.3279 22.0711 15.1224C21.6457 15.9169 21.4087 16.7966 21.3783 17.6949C21.3733 17.8358 21.3131 17.9692 21.2105 18.0671C21.1078 18.165 20.9707 18.2196 20.828 18.2196ZM25.4515 11.6815C25.4221 11.5404 25.4504 11.3935 25.5301 11.2729C25.6098 11.1523 25.7345 11.0677 25.877 11.0374C26.314 10.9462 26.7586 10.8952 27.2052 10.885C27.4983 10.9447 27.7606 11.1137 27.7683 11.4134C27.7702 11.4847 27.7578 11.5556 27.732 11.6221C27.7061 11.6886 27.6672 11.7495 27.6176 11.8011C27.5679 11.8528 27.5084 11.8943 27.4425 11.9232C27.3766 11.9522 27.3056 11.968 27.2335 11.9698C26.8539 11.9802 26.4761 12.0244 26.1046 12.1019C25.9618 12.1313 25.813 12.1038 25.6906 12.0253C25.5683 11.9467 25.4823 11.8236 25.4515 11.6827V11.6815Z" fill="white"/>
<path d="M36.2373 17.9162C36.2373 22.7445 32.2722 26.662 27.3711 26.662C25.9584 26.66 24.5668 26.3244 23.3121 25.6832C22.0574 25.042 20.976 24.1136 20.1582 22.9756C21.7161 24.192 23.6433 24.8543 25.6289 24.8556C30.5313 24.8556 34.4965 20.9381 34.4965 16.1098C34.4965 14.2171 33.8819 12.4667 32.8572 11.0364C33.9121 11.8545 34.7646 12.8992 35.3503 14.0912C35.9359 15.2831 36.2393 16.5912 36.2373 17.9162Z" fill="#ECB200"/>
<path d="M30.9843 19.1191L27.1028 21.821C26.8785 21.9771 26.6151 22.0693 26.3414 22.0877C26.0677 22.106 25.7941 22.0497 25.5506 21.925C25.307 21.8002 25.1028 21.6117 24.9603 21.3801C24.8177 21.1485 24.7423 20.8827 24.7422 20.6117V15.2079C24.7423 14.9369 24.8177 14.671 24.9603 14.4395C25.1028 14.2079 25.307 14.0194 25.5506 13.8946C25.7941 13.7699 26.0677 13.7136 26.3414 13.7319C26.6151 13.7502 26.8785 13.8425 27.1028 13.9986L30.9843 16.7005C31.8303 17.2899 31.8303 18.5297 30.9843 19.1191Z" fill="white"/>
<path d="M30.9742 19.115L27.1119 21.8207C26.9043 21.9651 26.6633 22.0555 26.411 22.0837C26.1588 22.1118 25.9034 22.0767 25.6685 21.9817C25.4336 21.8866 25.2267 21.7347 25.0668 21.5398C24.907 21.345 24.7994 21.1135 24.7539 20.8667C25.2258 21.1106 25.8095 21.1335 26.3032 20.7778L30.1873 18.0722C30.7042 17.7165 30.9073 17.1182 30.7942 16.5859L30.9742 16.6965C31.8266 17.296 31.8266 18.5383 30.9742 19.115Z" fill="#E4E3FF"/>
<path opacity="0.2" d="M2.04986 8.67732C1.91772 8.73273 1.76872 8.73402 1.63563 8.6809C1.50253 8.62777 1.39625 8.52459 1.34015 8.39405L0.868288 7.294C0.812365 7.16328 0.811292 7.01597 0.865302 6.88447C0.919313 6.75297 1.02398 6.64806 1.15629 6.59281C1.28859 6.53756 1.4377 6.5365 1.57079 6.58986C1.70389 6.64322 1.81008 6.74663 1.866 6.87735L2.33657 7.97613C2.39266 8.10668 2.39396 8.2539 2.34019 8.38539C2.28642 8.51689 2.18199 8.6219 2.04986 8.67732ZM0.882432 5.9526C0.750296 6.008 0.601294 6.00929 0.468199 5.95617C0.335105 5.90304 0.228819 5.79986 0.172717 5.66932L0.00171687 5.27173C-0.0542059 5.14101 -0.0552805 4.9937 -0.00127004 4.8622C0.0527404 4.73071 0.157412 4.62579 0.289717 4.57054C0.422022 4.51529 0.571124 4.51423 0.704221 4.56759C0.837319 4.62095 0.943508 4.72437 0.999431 4.85508L1.16915 5.25141C1.22523 5.38195 1.22653 5.52917 1.17276 5.66066C1.11899 5.79216 1.01456 5.89717 0.882432 5.9526Z" fill="white"/>
</svg>
