<svg width="55" height="54" viewBox="0 0 55 54" fill="none" xmlns="http://www.w3.org/2000/svg">
<g clip-path="url(#clip0_1369_5330)">
<path d="M38.1367 42.4382C38.1799 41.1058 37.1021 39.9993 35.7763 39.9993H35.7714V39.9984H35.9687C37.2558 39.9972 38.2981 38.9528 38.2973 37.6658C38.2965 36.3787 37.2521 35.3429 35.9651 35.3438H26.2685C25.9983 35.3438 25.8066 35.0797 25.8907 34.8231L26.7407 32.2287C27.4642 30.021 27.3355 28.5176 27.3355 25.9315C27.3355 24.4105 26.1025 23.1777 24.5814 23.1777C23.1997 23.1777 22.0316 24.2012 21.8508 25.571C21.651 27.0867 21.5159 29.782 19.0106 32.1945L17.2418 33.8969C16.2569 34.8456 14.9427 35.3756 13.5752 35.3756H11.252V50.6627C11.884 50.6623 13.1538 50.6623 13.1546 50.6623C16.5308 50.6602 16.2222 54.0035 20.4212 53.9998H34.7118C35.9971 53.9998 37.0391 52.9575 37.0391 51.6721C37.0391 50.3862 35.9971 49.3444 34.7118 49.3444H35.1217C36.3865 49.3444 37.4667 48.3605 37.5087 47.0961C37.5528 45.7745 36.4944 44.6889 35.1827 44.6889H35.7488C37.0148 44.6889 38.096 43.7039 38.1367 42.4382Z" fill="#FFCDBF"/>
<path d="M34.7114 51.2833H20.4208C16.2217 51.2875 16.5303 47.9437 13.1541 47.9458L11.252 47.9465V50.6628C11.8835 50.6624 13.1533 50.6624 13.1541 50.6624C16.5303 50.6603 16.2217 54.0036 20.4208 53.9999H34.7114C35.9967 53.9999 37.0386 52.9576 37.0386 51.6722C37.039 51.1843 36.885 50.7088 36.5986 50.3138C36.1764 50.9002 35.4891 51.2833 34.7114 51.2833Z" fill="#FFBEAB"/>
<path d="M10.5907 34.002H1.77455C1.10957 34.002 0.570312 34.5413 0.570312 35.2063V51.1311C0.570312 51.7964 1.10926 52.3358 1.77455 52.3358H10.5907C11.2556 52.3358 11.7949 51.7964 11.7949 51.1311V35.2063C11.7949 34.5413 11.2556 34.002 10.5907 34.002Z" fill="#754FFE"/>
<path d="M3.82993 51.1316V35.2062C3.82993 34.5412 4.36919 34.002 5.03459 34.002H1.77455C1.10957 34.002 0.570312 34.5412 0.570312 35.2062V51.131C0.570312 51.7963 1.10926 52.3357 1.77455 52.3357H5.03417C4.36919 52.3357 3.82993 51.7963 3.82993 51.1315V51.1316Z" fill="#754FFE"/>
<path d="M13.2704 12.6097C13.5991 12.2954 13.4178 11.7486 12.9634 11.6835L9.45292 11.1842C9.36466 11.1719 9.28067 11.1385 9.20808 11.0867C9.1355 11.035 9.07647 10.9666 9.03601 10.8872L7.46589 7.77131C7.26276 7.3679 6.67572 7.3679 6.47217 7.77131L4.90247 10.8872C4.86199 10.9666 4.8029 11.0352 4.73024 11.0869C4.65757 11.1386 4.57348 11.172 4.48513 11.1842L0.975029 11.6835C0.520565 11.7482 0.338947 12.2953 0.668115 12.6097L3.20801 15.0351C3.27207 15.0958 3.32015 15.1714 3.34796 15.2552C3.37578 15.339 3.38249 15.4284 3.36748 15.5154L2.76758 18.94C2.69016 19.3832 3.16519 19.7216 3.57178 19.5122L6.71158 17.8952C6.79134 17.8543 6.87965 17.8331 6.96924 17.8331C7.05883 17.8331 7.14714 17.8543 7.2269 17.8952L10.3667 19.5122C10.7733 19.7215 11.2484 19.3832 11.1709 18.9399L10.571 15.5155C10.5559 15.4284 10.5625 15.339 10.5904 15.2552C10.6182 15.1714 10.6663 15.0958 10.7305 15.0351L13.2704 12.6097Z" fill="#FECA57"/>
<path d="M7.20035 14.8883C7.21548 14.8014 7.20888 14.712 7.18113 14.6282C7.15338 14.5444 7.10535 14.4687 7.0413 14.4079L4.50098 11.9826C4.24933 11.7424 4.29742 11.3659 4.53768 11.1734C4.52039 11.1776 4.50309 11.1813 4.48495 11.1838L0.974842 11.6835C0.520378 11.7482 0.339182 12.2953 0.667928 12.6093L3.20783 15.0346C3.27191 15.0954 3.32 15.171 3.34782 15.2548C3.37564 15.3386 3.38233 15.4279 3.3673 15.5149L2.76781 18.9398C2.68998 19.3831 3.16501 19.7213 3.57159 19.5121L6.67058 17.916L7.20035 14.8883ZM4.80842 11.0569L8.31842 10.5572C8.40384 10.5452 8.4853 10.5135 8.55627 10.4645C8.62725 10.4155 8.68579 10.3506 8.72722 10.2749L7.46602 7.77131C7.26247 7.3679 6.67543 7.3679 6.4723 7.77131L4.90218 10.8872C4.86604 10.9579 4.81485 11.0199 4.75221 11.0688C4.77035 11.0643 4.78901 11.0597 4.80842 11.0569Z" fill="#F4B537"/>
<path d="M49.4249 12.6097C49.7537 12.2954 49.5719 11.7486 49.1176 11.6835L45.6075 11.1842C45.427 11.1582 45.2708 11.0474 45.19 10.8872L43.6205 7.77131C43.4173 7.3679 42.8299 7.3679 42.6267 7.77131L41.0566 10.8872C41.0162 10.9666 40.9572 11.0351 40.8846 11.0869C40.812 11.1386 40.728 11.172 40.6397 11.1842L37.1296 11.6835C36.6747 11.7482 36.4934 12.2953 36.8223 12.6097L39.3622 15.0351C39.4263 15.0958 39.4744 15.1714 39.5022 15.2552C39.53 15.339 39.5366 15.4284 39.5215 15.5154L38.9221 18.9399C38.8443 19.3831 39.3198 19.7214 39.7258 19.5121L42.8656 17.895C42.9455 17.8542 43.0339 17.8329 43.1235 17.8329C43.2132 17.8329 43.3016 17.8542 43.3815 17.895L46.5208 19.5121C46.9274 19.7213 47.4025 19.3831 47.325 18.9398L46.7251 15.5154C46.71 15.4284 46.7167 15.339 46.7445 15.2552C46.7723 15.1714 46.8205 15.0957 46.8846 15.0351L49.4249 12.6097Z" fill="#FECA57"/>
<path d="M43.355 14.8883C43.37 14.8013 43.3634 14.7119 43.3355 14.6281C43.3077 14.5443 43.2596 14.4687 43.1955 14.4079L40.6556 11.9826C40.404 11.7424 40.4521 11.3659 40.6919 11.1734C40.6746 11.1777 40.6572 11.1811 40.6396 11.1838L37.1295 11.6835C36.675 11.7482 36.4933 12.2953 36.8222 12.6093L39.3625 15.0346C39.4265 15.0954 39.4745 15.171 39.5022 15.2548C39.5299 15.3386 39.5365 15.428 39.5214 15.5149L38.922 18.9398C38.8445 19.3831 39.3197 19.7213 39.7262 19.5121L42.8252 17.916L43.355 14.8883ZM40.9625 11.0569L44.4728 10.5572C44.5582 10.5453 44.6397 10.5136 44.7106 10.4646C44.7816 10.4156 44.8401 10.3506 44.8814 10.2749L43.6204 7.77131C43.4172 7.3679 42.8298 7.3679 42.6266 7.77131L41.0569 10.8872C41.0208 10.958 40.9694 11.0201 40.9065 11.0688C40.9251 11.0643 40.9432 11.0597 40.9625 11.0569Z" fill="#F4B537"/>
<path d="M35.2346 8.31217C35.7665 7.80413 35.4727 6.91956 34.7381 6.81494L29.0621 6.00705C28.7705 5.96539 28.5179 5.78619 28.3878 5.52716L25.8495 0.48892C25.5207 -0.163299 24.5712 -0.163299 24.2427 0.48892L21.7045 5.52716C21.5739 5.78619 21.3217 5.96549 21.0296 6.00705L15.3542 6.81494C14.6191 6.91956 14.3258 7.80423 14.8573 8.31206L18.9644 12.2334C19.1757 12.4353 19.2721 12.7257 19.2223 13.0104L18.2524 18.5475C18.1272 19.2644 18.8956 19.811 19.5527 19.4729L24.6292 16.8583C24.7582 16.7921 24.9011 16.7576 25.0461 16.7576C25.1911 16.7576 25.334 16.7921 25.463 16.8583L30.5395 19.4729C31.1966 19.8111 31.9651 19.2644 31.8393 18.5475L30.87 13.0104C30.8201 12.7257 30.9165 12.4353 31.1274 12.2334L35.2346 8.31217Z" fill="#FECA57"/>
<path d="M24.8632 5.38045C25.1549 5.33879 25.407 5.15918 25.5376 4.90047L26.8049 2.38525L25.8495 0.48892C25.5207 -0.163299 24.5712 -0.163299 24.2427 0.48892L21.7045 5.52716C21.6314 5.67012 21.5209 5.79056 21.3848 5.87563L24.8632 5.38045ZM22.086 17.9209L23.0554 12.3834C23.0797 12.2427 23.069 12.0983 23.0241 11.9628C22.9792 11.8273 22.9015 11.705 22.7979 11.6068L18.6908 7.68505C18.2582 7.27225 18.3719 6.61022 18.8243 6.32102L15.3542 6.81493C14.6191 6.91956 14.3258 7.80423 14.8573 8.31206L18.9644 12.2334C19.1757 12.4353 19.2721 12.7257 19.2223 13.0104L18.2524 18.5475C18.1272 19.2644 18.8952 19.811 19.5527 19.4729L22.0786 18.1718C22.0688 18.0883 22.0713 18.0037 22.086 17.9209Z" fill="#F4B537"/>
<path d="M30.9824 43.602C30.9824 44.2023 31.469 44.6889 32.0688 44.6889H35.7486C36.9888 44.6889 38.0484 43.7434 38.1304 42.5156H32.0692C31.469 42.5156 30.9824 43.0022 30.9824 43.602ZM30.9824 38.9115C30.9824 39.5119 31.469 39.9984 32.0688 39.9984H35.9682C37.2017 39.9971 38.2078 39.0376 38.2894 37.8252H32.0689C31.469 37.8252 30.9824 38.3117 30.9824 38.9115ZM37.5025 47.1711H32.0688C31.469 47.1711 30.9824 47.6576 30.9824 48.2574C30.9824 48.8578 31.469 49.3443 32.0688 49.3443H35.1216C36.3613 49.3443 37.4206 48.3989 37.5025 47.1711Z" fill="#FFBEAB"/>
</g>
<defs>
<clipPath id="clip0_1369_5330">
<rect width="54" height="54" fill="white" transform="translate(0.5)"/>
</clipPath>
</defs>
</svg>
