<svg width="51" height="56" viewBox="0 0 51 56" fill="none" xmlns="http://www.w3.org/2000/svg">
<path d="M3.24805 53.5753V55.005C3.24805 55.5167 3.65806 55.9337 4.1697 55.9337H46.8286C47.3402 55.9337 47.7537 55.5132 47.7502 55.005V53.5753C47.7502 45.9637 42.0451 39.7189 34.7665 39.2668H16.2318C8.95669 39.7189 3.24805 45.9602 3.24805 53.5753Z" fill="#754FFE"/>
<path d="M20.8673 33.2183C20.7454 33.2174 20.6244 33.2405 20.5114 33.2863C20.3984 33.3321 20.2955 33.3997 20.2086 33.4853C20.1217 33.5709 20.0525 33.6728 20.005 33.7851C19.9575 33.8974 19.9326 34.018 19.9316 34.1399V42.9044C19.9351 43.4161 20.3522 43.8296 20.8673 43.8296H30.1329C30.2549 43.83 30.3757 43.8065 30.4886 43.7602C30.6014 43.714 30.704 43.646 30.7906 43.5601C30.8772 43.4741 30.946 43.372 30.993 43.2595C31.0401 43.147 31.0646 43.0264 31.0651 42.9044V34.1434C31.0646 34.0215 31.0401 33.9008 30.993 33.7883C30.946 33.6758 30.8772 33.5737 30.7906 33.4878C30.704 33.4019 30.6014 33.3339 30.4886 33.2876C30.3757 33.2414 30.2549 33.2178 30.1329 33.2183H20.8673Z" fill="#FFCCAA"/>
<path d="M20.8677 33.2183C20.622 33.2173 20.386 33.3138 20.2113 33.4865C20.0365 33.6593 19.9374 33.8942 19.9355 34.1399V36.8208C21.5515 37.9999 23.5001 38.6353 25.5005 38.6353C27.5009 38.6353 29.4496 37.9999 31.0655 36.8208V34.1399C31.0636 33.8942 30.9645 33.6593 30.7898 33.4865C30.6151 33.3138 30.379 33.2173 30.1333 33.2183H20.8677Z" fill="#FFB889"/>
<path d="M16.2318 39.2668C8.95669 39.7189 3.24805 45.9637 3.24805 53.5753V55.005C3.24805 55.5167 3.65806 55.9337 4.1697 55.9337H6.02702C5.78134 55.9328 5.54603 55.8345 5.37263 55.6605C5.19922 55.4864 5.10186 55.2507 5.10187 55.005V53.5753C5.10187 45.9637 10.814 39.7189 18.0891 39.2668H16.2318Z" fill="white"/>
<path d="M18.3518 36.7367L15.5658 39.5157C15.3935 39.6896 15.2969 39.9245 15.2969 40.1693C15.2969 40.4141 15.3935 40.6489 15.5658 40.8228L22.0629 47.3095C22.4239 47.6704 23.0091 47.6704 23.3701 47.3095L25.5007 45.1893L27.6279 47.3095C27.9888 47.6704 28.5741 47.6704 28.935 47.3095L35.4252 40.8228C35.5974 40.6489 35.6941 40.4141 35.6941 40.1693C35.6941 39.9245 35.5974 39.6896 35.4252 39.5157L32.6462 36.7367C32.5599 36.6504 32.4575 36.5819 32.3448 36.5351C32.232 36.4884 32.1112 36.4643 31.9891 36.4643C31.867 36.4643 31.7462 36.4884 31.6334 36.5351C31.5207 36.5819 31.4183 36.6504 31.332 36.7367L25.5007 42.568L19.6589 36.7367C19.5721 36.6496 19.4689 36.5805 19.3552 36.5336C19.2415 36.4867 19.1196 36.4628 18.9966 36.4634C18.7542 36.4669 18.5228 36.565 18.3518 36.7367Z" fill="#FBD326"/>
<path d="M25.034 0.417162L0.92385 13.2467C0.780502 13.3156 0.660276 13.4247 0.577817 13.5607C0.495358 13.6967 0.454223 13.8537 0.459423 14.0127C0.464622 14.1716 0.515931 14.3256 0.607102 14.4559C0.698272 14.5862 0.825368 14.6872 0.972911 14.7466L14.9694 21.1596L15.3865 20.3957H35.6068L36.0203 21.1631L50.0238 14.7466C50.1714 14.6872 50.2985 14.5862 50.3896 14.4559C50.4808 14.3256 50.5321 14.1716 50.5373 14.0127C50.5425 13.8537 50.5014 13.6967 50.4189 13.5607C50.3364 13.4247 50.2162 13.3156 50.0729 13.2467L25.9627 0.420667C25.8188 0.345442 25.6589 0.306152 25.4966 0.306152C25.3343 0.306152 25.1744 0.345442 25.0305 0.420667L25.034 0.417162Z" fill="#754FFE"/>
<path d="M16.3631 23.2832C14.4252 23.2832 12.9043 24.9583 12.9043 26.9278C12.9043 28.8902 14.4252 30.5723 16.3596 30.5723C16.6284 30.5685 16.8957 30.5308 17.1551 30.4602V23.3848C16.8951 23.3186 16.6314 23.2845 16.3631 23.2832Z" fill="#FFB889"/>
<path d="M38.0926 26.9278C38.0926 28.8902 36.5717 30.5723 34.6373 30.5723C34.3685 30.5685 34.1012 30.5308 33.8418 30.4602V23.3848C34.1018 23.3186 34.369 23.2845 34.6373 23.2832C36.5717 23.2832 38.0926 24.9583 38.0926 26.9278Z" fill="#FFCCAA"/>
<path d="M25.5023 14.0845C22.6182 14.0845 20.0179 14.3438 18.0695 14.8029C17.0953 15.0342 16.2823 15.304 15.6375 15.672C14.9997 16.0364 14.3969 16.5971 14.3864 17.4312C14.3303 17.7045 13.6925 21.0722 16.2893 23.662L16.5626 23.9353H34.4385L34.7083 23.662C37.3016 21.0687 36.6708 17.7045 36.6182 17.4312C36.6042 16.5971 36.0015 16.0364 35.3637 15.672C34.5992 15.2691 33.7816 14.9765 32.9351 14.8029C30.9867 14.3438 28.3829 14.0845 25.5023 14.0845Z" fill="#356287"/>
<path d="M18.0685 14.8029C17.0943 15.0342 16.2813 15.304 15.6365 15.672C15.0022 16.0364 14.3959 16.5971 14.3819 17.4312C14.3294 17.7045 13.6916 21.0722 16.2883 23.662L16.5616 23.9353H18.419L18.1421 23.662C15.5489 21.0722 16.1832 17.7045 16.2357 17.4312C16.2498 16.5971 16.856 16.0364 17.4938 15.672C18.1351 15.304 18.9481 15.0342 19.9224 14.8029C21.657 14.3929 23.9209 14.1546 26.4265 14.102C26.1181 14.0985 25.8167 14.0845 25.5013 14.0845C22.6172 14.0845 20.017 14.3438 18.0685 14.8029Z" fill="#2C5170"/>
<path d="M23.2055 17.0772C22.9598 17.0753 22.7234 17.1709 22.548 17.343C22.3726 17.5151 22.2726 17.7496 22.2698 17.9953C22.2633 18.9908 21.8631 19.9432 21.1565 20.6445C20.45 21.3458 19.4946 21.739 18.4991 21.738H16.9431C16.6987 21.7399 16.4648 21.838 16.2922 22.0112C16.1197 22.1844 16.0224 22.4187 16.0215 22.6632V27.317C16.0215 32.5455 20.2618 36.7788 25.5008 36.7788C26.7446 36.7802 27.9765 36.5366 29.126 36.0618C30.2756 35.587 31.3204 34.8903 32.2007 34.0117C33.0809 33.133 33.7795 32.0895 34.2564 30.9408C34.7333 29.7922 34.9793 28.5608 34.9802 27.317V22.6632C34.9793 22.4181 34.8815 22.1833 34.7082 22.01C34.5349 21.8367 34.3001 21.7389 34.0551 21.738H28.6057C26.3524 21.738 24.453 20.0909 24.1096 17.8622C24.0757 17.6457 23.9664 17.4482 23.8009 17.3045C23.6355 17.1608 23.4246 17.0803 23.2055 17.0772Z" fill="#FFCCAA"/>
<path d="M7.88467 9.5459L6.02734 10.5341V23.4793H7.88467V9.5459Z" fill="#EEEEEE"/>
<path d="M6.03023 21.6257C5.78453 21.6257 5.54886 21.7231 5.3748 21.8965C5.20074 22.0699 5.10249 22.3052 5.10156 22.5509V30.9229C5.10156 31.438 5.51858 31.855 6.03023 31.8515H7.88405C8.39569 31.8515 8.8092 31.4345 8.8057 30.9229V22.5474C8.80387 22.3035 8.70617 22.0702 8.53373 21.8977C8.36128 21.7253 8.12792 21.6276 7.88405 21.6257H6.03023Z" fill="#FFCA28"/>
<path d="M25.5007 8.64551C22.6166 8.64551 20.0163 8.91184 18.0714 9.35339C17.2321 9.52146 16.4189 9.80077 15.6534 10.1839C15.3376 10.3453 15.0529 10.5612 14.8123 10.8217C14.5388 11.1186 14.3819 11.5045 14.3708 11.9081V17.3399C14.3708 17.3679 14.3813 17.3925 14.3848 17.4205V17.431C14.3568 17.5572 14.2096 18.3632 14.3147 19.432C15.0156 18.7451 15.3625 18.3772 15.9688 17.9532C16.4804 17.5957 17.2304 17.1121 18.8669 16.6811C19.9883 16.3832 21.4181 16.1414 23.0792 16.0152C23.8572 15.9697 24.6562 15.9416 25.4972 15.9416C26.3383 15.9416 27.1443 15.9697 27.9187 16.0117C29.5833 16.1414 31.0096 16.3832 32.131 16.6811C33.7641 17.1121 34.5175 17.5957 35.0291 17.9532C35.6354 18.3737 35.9823 18.7451 36.6867 19.432C36.7559 18.7661 36.7323 18.0939 36.6166 17.4345L36.6131 17.4205C36.6131 17.3925 36.6271 17.3679 36.6271 17.3364V11.9081C36.616 11.5045 36.4591 11.1186 36.1856 10.8217C35.945 10.5612 35.6603 10.3453 35.3445 10.1839C34.5791 9.80073 33.7659 9.52142 32.9265 9.35339C30.9816 8.91184 28.3813 8.64901 25.4972 8.64901L25.5007 8.64551Z" fill="#FBD326"/>
<path d="M6.03023 21.6257C5.78453 21.6257 5.54886 21.7231 5.3748 21.8965C5.20074 22.0699 5.10249 22.3052 5.10156 22.5509V30.9264C5.10156 31.438 5.51858 31.855 6.03023 31.855H7.88405C7.7618 31.855 7.64075 31.8309 7.52785 31.784C7.41495 31.7371 7.31242 31.6684 7.22614 31.5818C7.13986 31.4952 7.07153 31.3924 7.02507 31.2793C6.9786 31.1663 6.95492 31.0451 6.95538 30.9229V22.5474C6.95538 22.0393 7.37241 21.6257 7.88405 21.6257H6.03023Z" fill="#ECB200"/>
<path d="M15.6569 10.1803C15.3412 10.3418 15.0565 10.5577 14.8158 10.8181C14.5405 11.1156 14.3824 11.5028 14.3708 11.908V17.3363C14.3708 17.3678 14.3813 17.3924 14.3848 17.4204V17.4309C14.3568 17.5571 14.2096 18.3596 14.3147 19.4284C15.0156 18.7416 15.3625 18.3771 15.9688 17.9531L16.1861 17.8059L16.2351 17.4309V17.4204C16.2351 17.3924 16.2246 17.3678 16.2246 17.3363V11.908C16.2246 11.477 16.4279 11.088 16.6662 10.8216C16.9076 10.5596 17.1935 10.3425 17.5107 10.1803C18.152 9.83691 18.9545 9.57759 19.9287 9.35331C21.6564 8.96082 23.9237 8.7085 26.4259 8.65944C26.1175 8.65276 25.8091 8.64925 25.5007 8.64893C22.6166 8.64893 20.0163 8.91175 18.0714 9.35331C17.2334 9.52056 16.4214 9.79868 15.6569 10.1803Z" fill="#FBD326"/>
<path d="M16.9431 21.7378C16.6987 21.7396 16.4648 21.8378 16.2922 22.011C16.1197 22.1842 16.0224 22.4185 16.0215 22.663V27.3168C16.0215 31.473 18.7093 34.9914 22.4415 36.2635C20.8412 35.3878 19.5059 34.0978 18.5755 32.5287C17.6451 30.9595 17.1539 29.169 17.1534 27.3448V22.337C17.1534 22.1198 17.227 21.9095 17.3567 21.7413L16.9431 21.7378Z" fill="#FFB889"/>
<path d="M12.5585 50.3754C12.4272 50.3701 12.2962 50.3926 12.1743 50.4416C12.0523 50.4906 11.9421 50.5649 11.851 50.6597C11.76 50.7544 11.69 50.8674 11.6458 50.9912C11.6017 51.1149 11.5843 51.2467 11.5948 51.3777V55.9229H13.4416V51.3777C13.4516 51.2534 13.4365 51.1285 13.3972 51.0102C13.3578 50.8919 13.2951 50.7827 13.2127 50.6892C13.1303 50.5957 13.0299 50.5197 12.9175 50.4658C12.8051 50.4119 12.683 50.3812 12.5585 50.3754ZM38.5225 50.3754C38.3909 50.3695 38.2595 50.3917 38.1372 50.4405C38.0148 50.4893 37.9042 50.5635 37.8127 50.6583C37.7212 50.7531 37.651 50.8663 37.6066 50.9903C37.5622 51.1143 37.5447 51.2464 37.5553 51.3777V55.9229H39.4021V51.3777C39.4121 51.2537 39.3971 51.129 39.358 51.0109C39.3189 50.8929 39.2565 50.7839 39.1744 50.6904C39.0924 50.5969 38.9924 50.5209 38.8804 50.4668C38.7684 50.4127 38.6467 50.3816 38.5225 50.3754Z" fill="white"/>
</svg>
