<svg width="481" height="309" viewBox="0 0 481 309" fill="none" xmlns="http://www.w3.org/2000/svg">
<path d="M460.764 159.119C452.764 150.833 443.303 142.751 440.836 131.5C436.567 112.031 454.822 95.4307 460.797 76.4161C464.929 63.2683 462.798 48.2986 455.16 36.8268C447.522 25.355 434.533 17.6141 420.809 16.355C397.195 14.1884 374.085 30.1004 350.824 25.4922C332.198 21.8025 317.48 5.52522 298.573 3.78151C276.324 1.72969 257.864 20.0956 236.619 27.0106C211.206 35.2815 183.654 26.6376 158.67 17.1522C133.685 7.66673 107.398 -2.91617 81.0619 1.6234C51.7467 6.6767 27.1675 32.221 23.2466 61.7092C19.3609 90.9331 51.9499 114.392 24.2088 149.482C15.5398 160.448 9.77344 175.715 13.6057 189.158C17.3293 202.219 33.1752 210.48 33.2902 224.062C33.381 234.783 23.2719 243.314 22.4577 254.005C21.7587 263.182 28.3587 271.666 36.4693 276.015C44.5799 280.363 53.9905 281.427 63.1407 282.413C63.1407 282.413 152.908 288.528 199.172 287.604C272.132 286.146 345.092 284.688 418.051 283.231C425.55 283.081 433.23 282.896 440.217 280.17C447.203 277.443 453.47 271.607 454.534 264.183C456.345 251.548 443.139 240.583 444.359 227.878C445.917 211.655 468.762 205.396 473.11 189.688C476.182 178.587 468.764 167.406 460.764 159.119Z" fill="url(#paint0_linear_1453_6687)"/>
<path d="M0.0319166 147.038C0.499462 166.132 6.76031 276.649 89.0586 277.341C89.0586 277.341 99.6095 201.344 1.89335 145.322C1.03832 144.832 0.00119543 145.791 0.0319166 147.038Z" fill="#BDD0FB"/>
<path d="M9.87449 160.686C11.6819 166.072 13.7012 171.402 15.8055 176.688C17.9154 181.974 20.1408 187.213 22.483 192.399C24.8254 197.585 27.2842 202.717 29.8623 207.788C32.4508 212.853 35.1814 217.844 38.0423 222.756C40.8928 227.675 43.9602 232.463 47.1609 237.153C50.3503 241.852 53.8083 246.362 57.4509 250.703L58.8311 252.32C59.2919 252.858 59.7438 253.404 60.2337 253.916L63.1184 257.033C65.1182 259.034 67.0987 261.059 69.2409 262.902C73.4672 266.646 78.0029 270.047 82.9053 272.805L82.9134 272.81C83.3312 273.045 83.4792 273.574 83.2441 273.991C83.0091 274.409 82.4799 274.557 82.0624 274.322L82.057 274.319C77.0387 271.448 72.4363 267.941 68.1674 264.103C66.0028 262.211 64.0098 260.145 61.9983 258.102L59.1018 254.925C58.6098 254.403 58.157 253.849 57.6953 253.301L56.3126 251.658C52.6651 247.245 49.2131 242.673 46.0372 237.92C42.85 233.175 39.8014 228.338 36.9737 223.376C34.1357 218.42 31.4314 213.39 28.8714 208.289C26.322 203.182 23.8937 198.017 21.5833 192.801C19.2729 187.584 17.081 182.316 15.0052 177.004C12.9338 171.687 10.9531 166.342 9.17463 160.911C9.1114 160.718 9.21656 160.51 9.40964 160.447C9.60159 160.384 9.80834 160.488 9.87247 160.679L9.87449 160.686Z" fill="#DCE5FE"/>
<path d="M1.96055 256.718C10.5764 253.629 45.4548 245.103 64.8704 300.304C64.8704 300.304 13.7079 280.415 1.00797 259.357C0.41776 258.377 0.884185 257.104 1.96055 256.718Z" fill="#BDD0FB"/>
<path d="M95.2817 247.122C95.2817 247.122 8.00882 193.478 27.2304 48.7031C27.5509 46.2894 30.5546 45.3608 32.1848 47.1695C47.3609 64.0052 99.0095 130.153 95.2817 247.122Z" fill="#9C81FF"/>
<path d="M41.7432 80.4353C45.6069 92.6637 49.4672 104.892 53.2683 117.14C55.169 123.264 57.0612 129.391 58.8982 135.534L61.6595 144.747L64.3641 153.977L69.7176 172.454L72.359 181.703L74.9349 190.971C78.3573 203.332 81.705 215.715 84.7477 228.178C84.7901 228.352 84.6838 228.527 84.5102 228.569C84.3405 228.61 84.1687 228.508 84.1218 228.34L81.5354 219.081L78.9008 209.834C77.1262 203.675 75.3831 197.507 73.5726 191.358L68.1789 172.901L62.7383 154.456L60.0008 145.238L57.2917 136.012C55.4612 129.869 53.6879 123.708 51.8928 117.554C48.3079 105.244 44.737 92.9281 41.081 80.639C41.0263 80.4557 41.1303 80.2629 41.3135 80.2082C41.4952 80.1539 41.686 80.2559 41.7432 80.4353Z" fill="#DCE5FE"/>
<path d="M353.858 240.076C366.08 208.145 418.606 71.4603 440.127 24.2922C442.382 19.3504 449.473 19.582 451.413 24.6557C465.473 61.4299 493.233 171.727 357.722 243.486C355.476 244.676 352.949 242.45 353.858 240.076Z" fill="#9C81FF"/>
<path d="M358.712 240.504C358.486 240.504 358.26 240.416 358.09 240.242C357.756 239.898 357.763 239.349 358.106 239.015C376.678 220.911 392.784 199.025 405.977 173.965C416.538 153.904 425.267 131.776 431.921 108.194C443.257 68.0214 444.646 37.1591 444.659 36.8521C444.679 36.3731 445.084 35.9973 445.562 36.0211C446.041 36.0408 446.413 36.4451 446.393 36.9239C446.38 37.2327 444.987 68.2609 433.604 108.62C426.919 132.325 418.145 154.574 407.526 174.748C394.246 199.98 378.026 222.021 359.317 240.257C359.149 240.422 358.93 240.504 358.712 240.504Z" fill="#DCE5FE"/>
<path d="M399.409 249.617C397.392 250.393 395.238 248.857 395.286 246.696C395.552 234.774 399.354 201.132 431.876 175.887C459.339 154.569 472.205 140.4 477.6 133.563C478.741 132.117 481.064 132.968 481.005 134.809C480.351 155.117 472.503 221.492 399.409 249.617Z" fill="#BDD0FB"/>
<path d="M397.703 247.473C397.573 247.473 397.441 247.443 397.316 247.381C396.888 247.167 396.713 246.646 396.927 246.217C397.164 245.744 420.948 198.585 457.799 167.216C458.164 166.906 458.712 166.949 459.022 167.314C459.332 167.679 459.289 168.227 458.924 168.537C422.349 199.672 398.715 246.522 398.48 246.992C398.328 247.296 398.022 247.473 397.703 247.473Z" fill="#DCE5FE"/>
<path d="M408.037 277.924C408.037 281.397 405.193 284.239 401.716 284.239H59.9263C56.4501 284.239 53.6058 281.397 53.6058 277.924L50.7617 81.5071C50.7617 78.0342 54.8535 71.2541 62.3524 71.7635L396.387 63.1203C400.749 63.0075 404.966 64.6862 408.055 67.7651C411.144 70.8437 412.834 75.0529 412.731 79.4106L408.037 277.924Z" fill="url(#paint1_linear_1453_6687)"/>
<path d="M401.795 271.866C401.795 275.155 399.104 277.846 395.816 277.846H68.1673C64.8785 277.846 62.1876 275.155 62.1876 271.866L59.5039 93.5569C59.8201 82.8266 69.2275 78.9701 74.93 79.198L395.072 70.609C398.136 70.5267 401.099 71.7074 403.269 73.8722C405.44 76.037 406.633 78.9997 406.556 82.064L401.795 271.866Z" fill="#9C81FF"/>
<path d="M65.7281 186.714C65.4915 186.714 65.298 186.524 65.2944 186.287L65.0821 171.826C65.0787 171.586 65.27 171.389 65.5097 171.386C65.7342 171.394 65.9463 171.574 65.9499 171.813L66.1623 186.274C66.1656 186.514 65.9743 186.711 65.7346 186.714C65.7324 186.714 65.7304 186.714 65.7281 186.714Z" fill="#9C81FF"/>
<path d="M65.2079 151.278C64.9714 151.278 64.7778 151.088 64.7743 150.85L63.9609 95.4661C63.9778 91.7821 65.1122 88.8393 67.3329 86.7113C71.3766 82.8366 77.7066 83.0323 77.9743 83.0422L180.213 80.2988C180.454 80.2845 180.652 80.4811 180.658 80.7208C180.665 80.9606 180.476 81.1599 180.236 81.1662L77.9729 83.9096C77.6888 83.9004 71.7128 83.7156 67.9332 87.338C65.8887 89.297 64.8442 92.0301 64.8288 95.4617L65.6421 150.837C65.6454 151.077 65.4542 151.274 65.2145 151.278C65.2124 151.278 65.2102 151.278 65.2079 151.278Z" fill="#9C81FF"/>
<g opacity="0.32">
<path d="M76.6244 261.975C76.9675 247.237 76.8397 116.733 75.9941 105.462C75.1485 94.1913 92.7022 92.0771 119.653 90.8088C146.603 89.5402 373.993 84.5186 379.848 84.0438C393.008 82.9767 395.732 102.647 394.415 145.351C393.426 177.433 391.787 230.284 391.032 254.589C390.808 261.825 384.893 267.567 377.652 267.587C322.933 267.738 113.21 268.339 99.2485 268.754C83.182 269.233 76.4886 267.818 76.6244 261.975Z" fill="#9C81FF"/>
</g>
<path d="M434.082 300.544H34.4915C33.5659 300.544 32.8086 299.787 32.8086 298.861V284.969C32.8086 284.043 33.5659 283.286 34.4915 283.286H434.082C435.008 283.286 435.765 284.043 435.765 284.969V298.861C435.765 299.787 435.008 300.544 434.082 300.544Z" fill="url(#paint2_linear_1453_6687)"/>
<path d="M236.879 249.466C277.76 249.466 310.902 216.325 310.902 175.443C310.902 134.561 277.76 101.42 236.879 101.42C195.997 101.42 162.855 134.561 162.855 175.443C162.855 216.325 195.997 249.466 236.879 249.466Z" fill="#9C81FF"/>
<path d="M231.202 200.229C230.482 200.502 229.702 200.475 228.997 200.152L178.07 176.823L181.687 206.503C182.193 210.656 184.759 214.075 188.227 215.203C219.969 225.531 249.68 227.846 275.603 215.206C277.966 214.054 279.786 211.766 280.629 208.948L289.891 177.981L231.202 200.229Z" fill="#FFD400"/>
<path d="M157.761 154.641L237.935 121.578C238.636 121.289 239.401 121.288 240.103 121.574L319.393 153.912C322.342 155.114 322.296 159.991 319.325 161.118L231.204 194.523C230.484 194.796 229.704 194.769 228.999 194.446L157.656 161.765C154.845 160.477 154.913 155.815 157.761 154.641Z" fill="#FFD400"/>
<path d="M315.452 180.243C315.452 180.243 298.047 204.404 314.312 219.837C314.896 220.392 315.767 220.216 316.143 219.454L322.319 206.907C326.904 197.592 315.452 180.243 315.452 180.243Z" fill="#FFD500"/>
<path d="M315.385 184.128H313.633V167.883L316.945 166.758L315.385 184.128Z" fill="url(#paint3_linear_1453_6687)"/>
<path d="M388.982 25.9301C388.979 25.7899 388.975 25.6612 388.973 25.5497C388.966 25.2351 389.096 24.9351 389.332 24.727C390.716 23.508 395.896 19.3306 403.172 18.0831C403.564 18.0161 403.902 18.1959 404.09 18.4771C403.483 18.5446 402.671 18.6915 401.574 18.9682C397.976 19.8771 392.732 22.3368 388.982 25.9301Z" fill="#4042E2"/>
<path d="M401.573 18.9681C402.669 18.6914 403.482 18.5445 404.088 18.4771C404.277 18.76 404.314 19.1453 404.102 19.4843C403.982 19.6752 403.835 19.8815 403.655 20.1028C402.505 21.5153 393.229 30.853 393.229 30.853C393.229 30.853 390.309 31.1811 389.422 30.6559C389.135 30.4857 389.02 27.4571 388.98 25.9297C392.73 22.3367 397.974 19.877 401.573 18.9681Z" fill="url(#paint4_linear_1453_6687)"/>
<path d="M389.238 35.7232L389.292 30.1093C389.296 29.6339 389.602 29.2096 390.057 29.0686C390.755 28.8517 391.829 28.6526 392.799 29.0269C393.369 29.2464 393.748 29.7922 393.79 30.401L394.159 35.6481L389.238 35.7232Z" fill="url(#paint5_linear_1453_6687)"/>
<path d="M411.55 30.9645C411.619 30.744 411.75 30.5604 411.918 30.4236C413.094 30.6676 415.542 31.3401 420.553 33.1634C426.362 35.2771 428.051 37.0905 428.534 38.0563C426.029 38.7638 420.342 39.8276 412.215 38.1586L410.613 37.389C410.613 37.389 410.763 33.4672 411.55 30.9645Z" fill="url(#paint6_linear_1453_6687)"/>
<path d="M420.553 33.1633C415.542 31.34 413.094 30.6675 411.918 30.4235C412.179 30.2105 412.53 30.1145 412.882 30.1912C415.771 30.8211 424.498 32.9638 429.034 36.7131C429.487 37.0874 429.347 37.8164 428.783 37.9839C428.704 38.0074 428.621 38.0316 428.534 38.0561C428.051 37.0905 426.362 35.277 420.553 33.1633Z" fill="#4042E2"/>
<path d="M407.57 40.7512L411.036 36.6783C411.373 36.2818 411.917 36.1287 412.41 36.2959C412.957 36.4812 413.682 36.8597 414.379 37.6331C414.705 37.9937 414.764 38.524 414.538 38.9537L411.999 43.7596L407.57 40.7512Z" fill="url(#paint7_linear_1453_6687)"/>
<path d="M394.928 33.8227C394.928 33.8227 390.755 32.9803 388.427 33.7606C388.427 33.7606 385.195 52.0812 385.664 57.9862L394.679 59.9084C394.679 59.9084 395.133 39.2364 394.928 33.8227Z" fill="#4042E2"/>
<path d="M357.551 65.6197C357.551 65.6197 387.072 67.5598 399.069 66.847C400.244 66.777 401.292 66.0922 401.828 65.0443C404.446 59.925 412.299 44.5629 412.989 43.0963C412.989 43.0963 409.884 40.4516 407.577 40.0686C407.577 40.0686 396.521 52.1346 396.004 58.3397C396.004 58.3397 370.739 50.8116 368.237 50.8567C365.734 50.902 358.028 54.2524 358.028 54.2524L357.551 65.6197Z" fill="#4042E2"/>
<path d="M308.678 62.6799C309.093 59.2093 315.497 55.8947 315.497 55.8947L317.542 51.5245C318.964 46.6741 321.929 42.4202 325.989 39.4091L328.816 37.3118C331.595 35.2508 335.998 36.0141 338.793 38.0522C344.999 42.5777 354.202 50.153 357.344 52.7585C358.019 53.3186 358.951 53.4514 359.757 53.1036L360.287 52.8746C360.789 52.6583 361.336 53.0675 361.27 53.6097L359.808 65.8888L338.347 65.4363C335.773 65.4118 328.32 65.0752 327.156 62.7799L325.218 57.8892C320.529 61.8004 314.537 64.461 311.333 65.2226C309.856 65.5737 308.487 64.2742 308.678 62.6799Z" fill="url(#paint8_linear_1453_6687)"/>
<path d="M324.06 30.6721L330.597 37.1449C331.033 37.5763 331.068 38.2742 330.669 38.7404C328.611 41.146 326.852 42.4009 325.399 42.4827C324.782 42.5175 324.202 42.1867 323.876 41.6622L320.422 36.0986L324.06 30.6721Z" fill="url(#paint9_linear_1453_6687)"/>
<path d="M310.441 62.1295L304.786 59.8665L298.137 65.0527L309.953 65.2095L310.441 62.1295Z" fill="url(#paint10_linear_1453_6687)"/>
<path d="M312.734 28.971C312.734 28.971 313.582 36.2671 316.037 38.532C318.493 40.7966 323.335 39.1551 325.017 33.6769L321.859 24.2524L312.734 28.971Z" fill="url(#paint11_linear_1453_6687)"/>
<path d="M322.168 30.3344C321.979 30.4012 321.783 30.2629 321.755 30.0416C321.672 29.3679 321.462 28.0344 321.019 27.1233C321.019 27.1233 321.264 26.1693 318.876 27.591C316.488 29.0127 312.902 31.1004 310.814 29.8169C308.779 28.5656 306.764 22.3465 312.163 23.5466C312.369 23.5923 312.56 23.4087 312.547 23.1726C312.49 22.1529 312.602 19.8098 314.709 19.0774C316.681 18.3922 317.748 19.4051 318.185 20.0146C318.314 20.1939 318.556 20.1926 318.682 20.0103C319.279 19.1472 320.895 17.3133 323.238 18.5083C325.168 19.4925 325.456 20.8449 325.416 21.6856C325.403 21.9581 325.646 22.1449 325.866 22.033C326.463 21.7296 327.42 21.5782 328.322 22.8824C329.57 24.6855 327.748 26.2214 327.202 26.6234C327.112 26.6893 327.056 26.7995 327.054 26.9201C327.04 27.8514 326.873 31.9133 325.05 34.1878C324.892 34.3849 324.604 34.3239 324.515 34.0781L323.164 30.3293C323.101 30.1552 322.93 30.0646 322.772 30.1207L322.168 30.3344Z" fill="url(#paint12_linear_1453_6687)"/>
<path d="M322.133 31.0927C322.133 31.0927 323.017 27.2012 324.292 28.4794C325.567 29.7578 323.918 32.529 322.438 33.0461L322.133 31.0927Z" fill="url(#paint13_linear_1453_6687)"/>
<path d="M331.607 45.3204C331.607 45.3204 331.427 37.4795 334.649 37.3528C338.649 37.1954 345.049 40.1545 341.113 51.6059C338.939 57.9327 335.708 62.6115 326.944 64.5231C326.549 61.3028 325.112 59.0476 324.047 57.7734C327.634 55.2971 330.69 51.4137 331.607 45.3204Z" fill="url(#paint14_linear_1453_6687)"/>
<path d="M324.448 57.7999C324.51 57.8006 324.573 57.7825 324.628 57.7443C328.759 54.8924 331.075 50.9592 331.916 45.367C331.919 45.3493 331.92 45.3314 331.92 45.3132C331.872 43.2179 332.273 37.7598 334.661 37.6659C335.815 37.6215 337.024 37.8495 338.064 38.3119C338.223 38.3819 338.408 38.3108 338.478 38.1527C338.548 37.9946 338.477 37.8094 338.319 37.739C337.192 37.2387 335.885 36.9927 334.636 37.0396C331.214 37.1744 331.281 44.6961 331.292 45.3C330.475 50.6953 328.244 54.4863 324.272 57.2288C324.13 57.3272 324.094 57.5223 324.192 57.6647C324.253 57.7517 324.349 57.7988 324.448 57.7999Z" fill="url(#paint15_linear_1453_6687)"/>
<path d="M329.732 64.0757C329.766 64.0759 329.8 64.0708 329.834 64.0596C337.113 61.625 339.699 56.6842 341.41 51.7081C341.797 50.5808 342.098 49.4943 342.305 48.4783C342.339 48.3088 342.23 48.1435 342.06 48.109C341.89 48.0742 341.725 48.1841 341.691 48.3536C341.489 49.3427 341.195 50.4027 340.817 51.504C339.159 56.3286 336.657 61.1168 329.636 63.4651C329.472 63.52 329.383 63.6974 329.438 63.8615C329.481 63.9918 329.602 64.0743 329.732 64.0757Z" fill="url(#paint16_linear_1453_6687)"/>
<path d="M308.805 65.1546L308.847 62.1143C308.847 62.1143 317.367 62.3843 324.044 57.7737C325.11 59.0478 326.546 61.303 326.941 64.5234C322.506 65.4908 316.656 65.7504 308.805 65.1546Z" fill="url(#paint17_linear_1453_6687)"/>
<path d="M293.013 43.1491L309.082 43.7474C310.268 43.7916 311.321 44.5159 311.787 45.6068L316.946 57.6921C317.729 59.526 316.337 61.5509 314.344 61.4767L298.659 60.8928C297.895 60.8643 297.226 60.3721 296.972 59.6509L291.754 44.8596C291.452 44.0051 292.107 43.1153 293.013 43.1491Z" fill="url(#paint18_linear_1453_6687)"/>
<path d="M304.033 51.6476C304.341 52.7426 304.045 53.7837 303.372 53.9732C302.698 54.1627 301.902 53.4287 301.594 52.3338C301.287 51.2388 301.583 50.1979 302.256 50.0084C302.93 49.8187 303.726 50.5528 304.033 51.6476Z" fill="#9C81FF"/>
<path d="M293.703 53.4935C293.703 53.4935 295.544 51.1185 297.076 51.0376C298.608 50.9566 298.194 54.2591 297.022 56.7096C295.85 59.1601 294.255 55.8913 293.703 53.4935Z" fill="url(#paint19_linear_1453_6687)"/>
<path d="M74.0667 271.575H71.3906V300.516H74.0667V271.575Z" fill="#9C81FF"/>
<path d="M61.0117 301.074H84.4509V300.077C84.4509 299.666 84.1172 299.332 83.7057 299.332H61.7569C61.3454 299.332 61.0117 299.666 61.0117 300.077V301.074Z" fill="#9C81FF"/>
<path d="M57.5312 270.57C57.5312 272.153 58.8262 273.448 60.4092 273.448H84.1235C85.7064 273.448 87.0014 272.153 87.0014 270.57V267.968C87.0014 266.385 85.7064 265.09 84.1235 265.09H60.4092C58.8262 265.09 57.5312 266.386 57.5312 267.968V270.57Z" fill="#9C81FF"/>
<path d="M92.4898 252.278C92.4898 252.278 96.4665 252.894 100.937 255.883C101.641 256.353 102.027 257.173 101.921 258.013C101.386 262.254 99.1843 275.98 91.9258 289.386C91.543 290.093 91.4332 290.916 91.602 291.702L92.8632 297.57L95.2018 299.763H89.178L85.1672 288.909L86.8822 288.367C88.2119 287.947 89.1241 286.724 89.1484 285.329L89.3497 273.686C89.178 268.499 92.5304 264.92 92.5304 264.92L82.9102 264.452L92.4898 252.278Z" fill="url(#paint20_linear_1453_6687)"/>
<path d="M97.5511 300.822C98.0996 301.54 91.6466 302.487 88.3866 300.917C88.3866 300.917 83.8672 293.054 83.8672 289.005C83.8672 289.005 84.226 288.18 86.8797 288.367C86.8797 288.367 88.3971 297.677 89.9993 298.72C91.6017 299.763 94.4821 298.825 94.4821 298.825C94.4821 298.825 96.7418 299.763 97.5511 300.822Z" fill="#4042E2"/>
<path d="M84.125 265.09C84.1761 265.001 94.4825 263.851 94.4825 263.851C94.4825 263.851 94.1453 266.985 95.1994 271.298C96.2536 275.612 111.386 294.302 111.386 294.302L109.799 299.332C114.705 301.04 119.53 301.314 124.279 300.202L114.446 294.302C114.446 294.302 105.243 262.941 99.6065 257.346L89.2756 253.772L84.125 265.09Z" fill="url(#paint21_linear_1453_6687)"/>
<path d="M61.012 246.843C61.012 246.843 55.0741 255.675 54.5868 259.703C54.0995 263.732 56.2135 265.369 62.4438 265.639C68.6744 265.909 85.3071 265.904 85.3071 265.904L99.503 253.772C99.503 253.772 89.1576 250.081 86.4678 249.037C83.7782 247.993 61.012 246.843 61.012 246.843Z" fill="#FFD400"/>
<path d="M110.4 297.638C110.4 297.638 108.692 299.292 109.846 301.133C109.846 301.133 123.377 303.531 127.051 302.443C127.051 302.443 126.288 300.702 122.151 298.72L122.457 298.954C122.843 299.251 122.616 299.869 122.13 299.841C119.404 299.686 113.762 299.186 110.4 297.638Z" fill="#4042E2"/>
<path d="M77.0694 245.673C77.0694 245.673 83.9844 239.089 87.3879 234.728C89.2278 232.37 89.8055 229.267 88.9547 226.4C87.4007 221.165 84.6391 215.742 84.3871 214.898C84.0009 213.604 76.2475 213.658 76.2475 213.658C76.2475 213.658 60.9905 223.56 54.9961 240.333L61.7283 242.429C61.7283 242.429 65.712 235.746 69.6479 231.497C69.6479 231.497 62.8372 240.494 62.5972 244.177L77.0694 245.673Z" fill="#FFD400"/>
<path d="M85.3248 207.669C85.2438 207.937 83.22 214.646 83.0617 214.785C82.9034 214.925 78.6237 215.155 76.6094 213.778L80.0268 206.624L85.3248 207.669Z" fill="url(#paint22_linear_1453_6687)"/>
<path d="M90.568 198.298C90.568 198.298 92.5692 201.722 91.3957 207.437C90.2222 213.152 87.2766 213.992 85.2106 212.865C83.1445 211.737 80.3847 209.608 79.4763 204.67C78.5679 199.731 87.8607 193.989 90.568 198.298Z" fill="url(#paint23_linear_1453_6687)"/>
<path d="M83.1508 203.897C83.1508 203.897 85.5706 196.062 91.1083 200.091L91.7238 201.958C91.7238 201.958 96.3008 200.034 94.2232 195.927C92.1458 191.82 86.1285 189.591 81.3952 192.989C76.6619 196.386 75.3353 199.874 76.0807 203.751C76.826 207.629 79.595 205.936 79.595 205.936C79.595 205.936 79.8114 202.993 81.1263 202.316C82.4413 201.638 82.675 203.818 82.675 203.818L83.1508 203.897Z" fill="#9C81FF"/>
<path d="M82.0216 204.126C82.0216 204.126 83.289 200.106 80.8512 200.261C78.4135 200.416 79.8594 204.108 80.5102 205.441L82.0216 204.126Z" fill="url(#paint24_linear_1453_6687)"/>
<path d="M91.1568 246.162L86.0764 241.265L79.0482 244.234C79.0482 244.234 72.0525 245.318 68.0486 244.234C64.0448 243.151 64.0448 243.151 64.0448 243.151L54.9968 240.334L53.5758 244.35C53.215 245.37 53.5776 246.502 54.4593 247.128C55.2422 247.684 56.1598 248.296 56.7446 248.552C57.9362 249.073 86.1174 248.191 86.1174 248.191L91.1568 246.162Z" fill="url(#paint25_linear_1453_6687)"/>
<path d="M81.2848 194.345C82.4899 193.981 82.7213 192.374 81.7255 191.605C78.5105 189.12 72.8408 186.728 66.4447 193.017C59.2398 200.1 55.2546 203.431 53.15 203.242C51.768 203.118 50.8462 204.623 51.681 205.732C52.2982 206.551 53.4001 207.328 55.2835 207.883C69.8117 212.166 74.2165 196.476 81.2848 194.345Z" fill="#9C81FF"/>
<path d="M71.9325 248.471C71.9549 248.472 71.9776 248.473 72.0002 248.473L101.471 248.44C102.2 248.44 102.79 247.849 102.789 247.12C102.788 246.391 102.195 245.789 101.468 245.802L71.9973 245.835C71.2688 245.835 70.679 246.427 70.6797 247.155C70.6804 247.861 71.2356 248.436 71.9325 248.471Z" fill="url(#paint26_linear_1453_6687)"/>
<path d="M127.965 221.713H103.421C101.61 221.713 99.9625 222.758 99.1902 224.396L87.8438 248.455H118.345C119.511 248.455 120.56 247.742 120.989 246.657L129.787 224.394C130.296 223.107 129.348 221.713 127.965 221.713Z" fill="url(#paint27_linear_1453_6687)"/>
<path d="M110.675 234.049C110.143 235.702 110.536 237.307 111.552 237.634C112.569 237.961 113.824 236.887 114.356 235.234C114.888 233.582 114.495 231.977 113.479 231.65C112.462 231.323 111.207 232.397 110.675 234.049Z" fill="#9C81FF"/>
<path d="M148.023 306.533C148.165 306.533 148.31 306.504 148.449 306.443C148.997 306.202 149.249 305.552 149.014 304.992L126.379 251.156C126.144 250.596 125.51 250.337 124.962 250.578C124.414 250.819 124.161 251.469 124.397 252.029L147.031 305.865C147.206 306.282 147.605 306.533 148.023 306.533Z" fill="#9C81FF"/>
<path d="M122.525 306.533C122.943 306.533 123.341 306.283 123.516 305.865L146.151 252.029C146.386 251.468 146.133 250.819 145.586 250.578C145.039 250.337 144.404 250.596 144.168 251.156L121.533 304.992C121.298 305.552 121.551 306.202 122.098 306.442C122.238 306.504 122.382 306.533 122.525 306.533Z" fill="#9C81FF"/>
<path d="M58.8906 306.533C59.0327 306.533 59.1774 306.504 59.3164 306.443C59.864 306.202 60.117 305.552 59.8813 304.992L37.2467 251.156C37.0112 250.596 36.3771 250.337 35.8288 250.578C35.2814 250.819 35.0283 251.469 35.2639 252.029L57.8983 305.865C58.0741 306.282 58.4721 306.533 58.8906 306.533Z" fill="#9C81FF"/>
<path d="M33.3915 306.533C33.8097 306.533 34.2077 306.283 34.3835 305.865L57.0179 252.029C57.2534 251.468 57.0004 250.819 56.453 250.578C55.9059 250.337 55.2708 250.596 55.0352 251.156L32.4006 304.992C32.1651 305.552 32.4181 306.202 32.9654 306.442C33.1045 306.504 33.2491 306.533 33.3915 306.533Z" fill="#9C81FF"/>
<path d="M30.7409 249.547C30.672 249.213 30.7657 248.868 30.9967 248.605C31.2277 248.343 31.5719 248.191 31.935 248.191H154.915C155.393 248.191 155.837 248.419 156.095 248.796C156.352 249.173 156.386 249.647 156.186 250.053L154.853 252.757C154.548 253.376 153.887 253.772 153.16 253.772H32.7788C32.102 253.772 31.5201 253.322 31.3916 252.7L30.7409 249.547Z" fill="url(#paint28_linear_1453_6687)"/>
<path d="M455.946 212.706C455.946 212.706 467.865 219.309 468.851 230.484C469.837 241.659 468.933 288.04 445.032 299.456C421.132 310.872 389.495 308.241 377.385 306.993C365.275 305.745 358.561 297.515 357.061 291.848C355.561 286.181 353.139 265.073 365.878 258.264C378.617 251.455 391.997 241.023 405.367 230.866C418.737 220.708 441.65 204.127 455.946 212.706Z" fill="url(#paint29_linear_1453_6687)"/>
<path d="M369.635 262.116C369.635 262.116 372.852 262.286 373.246 268.905C373.246 268.905 365.787 275.592 355.71 277.183C354.954 277.303 356.768 272.019 357.041 271.304C358.338 267.899 362.425 265.705 369.635 262.116Z" fill="url(#paint30_linear_1453_6687)"/>
<path d="M405.863 254.334H402.634C400.398 254.334 398.262 253.432 396.706 251.827C391.359 246.309 377.994 233.32 367.429 229.741C365.711 229.158 363.834 229.985 363.064 231.628C360.859 236.334 357.765 247.284 365.091 263.858C365.903 265.694 368.206 266.474 369.876 265.359C370.351 265.042 370.694 264.623 370.905 264.103L370.1 244.731C370.1 244.731 387.873 260.275 390.962 263.275C394.051 266.275 409.754 264.446 405.863 254.334Z" fill="#9C81FF"/>
<path d="M340.233 302.647C343.077 300.154 347.61 297.357 354.153 296.555L356.366 297.909C356.366 297.909 354.955 299.99 352.377 302.189C350.008 303.565 346.35 305.429 343.317 305.833C340.368 306.225 339.933 304.444 340.233 302.647Z" fill="url(#paint31_linear_1453_6687)"/>
<path d="M357.039 271.304C358.791 271.871 359.562 274.354 364.009 272.712C368.311 271.124 371.51 269.075 373.155 267.894C373.192 268.214 373.223 268.548 373.244 268.905C373.244 268.905 365.379 276.386 355.302 277.977C354.546 278.097 353.946 277.342 354.219 276.626C354.709 275.342 355.591 273.394 357.039 271.304Z" fill="url(#paint32_linear_1453_6687)"/>
<path d="M338.09 304.776C338.651 304.139 339.367 303.406 340.233 302.647C339.934 304.443 340.369 306.225 343.317 305.833C346.35 305.429 350.009 303.565 352.378 302.189C349.409 304.721 344.89 307.409 339.188 307.251C337.921 307.216 337.253 305.727 338.09 304.776Z" fill="url(#paint33_linear_1453_6687)"/>
<path d="M403.409 233.544C403.409 233.544 398.188 248.581 388.012 237.136L387.044 236.706L379.75 231.721L380.563 234.608C381.012 236.204 382.17 237.505 383.704 238.136L384.665 238.531C386.493 242.332 390.411 248.091 396.445 249.183C405.5 250.822 410.144 238.588 410.144 238.588L403.409 233.544Z" fill="url(#paint34_linear_1453_6687)"/>
<path d="M405.615 259.246L373.825 259.59C373.825 259.59 355.671 274.611 352.378 297.514C352.378 297.514 351.831 299.198 355.113 299.486C355.113 299.486 366.089 292.318 373.246 279.643C382.021 264.103 399.406 271.098 399.406 271.098C405.119 266.98 413.19 266.141 419.271 264.769L405.615 259.246Z" fill="#9C81FF"/>
<path d="M403.03 258.966C403.03 258.966 406.921 248.387 407.758 238.108C407.758 238.108 404.911 235.661 403.131 234.606C402.555 234.264 402.338 233.541 402.629 232.937C403.937 230.227 411.849 219.585 412.442 219.437C415.663 218.633 428.875 212.351 438.18 225.079C442.174 230.541 437.388 247.356 419.271 264.769L415.533 265.484L403.03 258.966Z" fill="#FFD400"/>
<path d="M420.996 205.033L426.699 218.348C426.807 218.709 426.673 219.101 426.362 219.314C425.223 220.094 422.246 221.645 418.162 220.138C417.695 219.965 417.375 219.529 417.335 219.033L416.344 209.639L420.996 205.033Z" fill="url(#paint35_linear_1453_6687)"/>
<path d="M407.76 238.325C407.641 238.325 407.544 238.228 407.543 238.109C407.527 233.334 409.364 227.018 409.382 226.955C409.416 226.84 409.537 226.774 409.651 226.807C409.766 226.841 409.832 226.962 409.799 227.077C409.78 227.14 407.961 233.396 407.977 238.107C407.977 238.227 407.881 238.324 407.761 238.325L407.76 238.325Z" fill="url(#paint36_linear_1453_6687)"/>
<path d="M419.822 242.209C419.793 242.209 419.763 242.204 419.734 242.191C419.625 242.142 419.576 242.014 419.624 241.904C419.656 241.832 422.859 234.579 423.429 230.048C423.444 229.929 423.547 229.844 423.671 229.859C423.79 229.874 423.874 229.983 423.859 230.102C423.281 234.696 420.053 242.007 420.021 242.08C419.985 242.161 419.905 242.209 419.822 242.209Z" fill="url(#paint37_linear_1453_6687)"/>
<path d="M428.98 249.787L427.764 248.755C427.673 248.677 427.661 248.54 427.739 248.449C427.816 248.358 427.953 248.347 428.045 248.424L428.992 249.229C434.936 244.547 437.029 235.469 437.049 235.377C437.076 235.261 437.193 235.187 437.309 235.213C437.425 235.239 437.499 235.355 437.473 235.472C437.452 235.566 435.291 244.937 429.119 249.681L428.98 249.787Z" fill="url(#paint38_linear_1453_6687)"/>
<path d="M376.112 227.882L375.601 228.582C375.352 228.923 375.435 229.401 375.783 229.639L387.272 237.488C387.577 237.696 387.987 237.651 388.239 237.382C388.539 237.061 388.498 236.552 388.152 236.283L377.174 227.733C376.841 227.474 376.361 227.541 376.112 227.882Z" fill="url(#paint39_linear_1453_6687)"/>
<path d="M391.993 257.646C391.993 257.646 411.227 257.646 420.998 242.467L426.738 247.714C426.738 247.714 415.249 267.399 393.618 260.022C393.618 260.022 388.624 261.053 385.808 260.272C384.228 259.833 383.37 258.42 382.921 257.264C382.663 256.599 383.311 255.942 383.985 256.174C385.977 256.86 389.515 257.903 391.993 257.646Z" fill="url(#paint40_linear_1453_6687)"/>
<path d="M406.141 201.62C406.132 201.839 410.478 215.625 410.478 215.625L418.297 212.976L416.119 199.298C416.119 199.298 406.284 197.963 406.141 201.62Z" fill="url(#paint41_linear_1453_6687)"/>
<path d="M413.993 201.826C414.328 201.977 414.573 202.273 414.659 202.631L416.345 209.639C416.37 209.746 416.382 209.853 416.377 209.962C416.35 210.565 416.11 212.476 414.137 212.133C412.455 211.841 410.906 211.596 409.828 211.926C409.198 212.118 408.855 212.795 409.055 213.422C409.468 214.714 410.353 217.304 411.463 219.495C411.741 220.044 412.398 220.281 412.967 220.046C414.468 219.427 417.364 218.129 419.503 216.539C419.854 216.278 420.032 215.847 419.969 215.413C419.689 213.507 418.926 208.161 418.943 206.619C418.959 205.186 420.563 204.145 421.335 203.727C421.628 203.568 421.84 203.297 421.924 202.974C422.173 202.006 422.34 200.042 419.84 199.448C419.218 199.301 418.837 198.665 418.972 198.041C419.213 196.922 419.126 195.352 417.081 194.681C415.011 194.001 413.614 195.129 412.849 196.088C412.511 196.513 411.923 196.694 411.424 196.481C411.202 196.386 410.94 196.378 410.65 196.566C410.104 196.921 409.397 196.798 409.038 196.254C408.424 195.322 407.311 194.42 405.39 194.96C401.865 195.949 401.874 199.968 403.064 202.2C404.254 204.431 408.015 203.141 409.825 201.765C411.154 200.754 413.07 201.407 413.993 201.826Z" fill="url(#paint42_linear_1453_6687)"/>
<path d="M419.54 209.215C419.54 209.215 417.633 205.237 419.043 204.067C420.453 202.897 422.753 203.188 422.571 206.233C422.345 210.019 419.54 209.215 419.54 209.215Z" fill="url(#paint43_linear_1453_6687)"/>
<path d="M279.648 225.73C279.577 225.863 277.453 227.36 277.453 227.36C277.453 227.36 275.976 235.492 278.684 239.496C281.393 243.499 290.622 236.371 290.622 236.371C290.622 236.371 295.813 235.559 298.42 225.352C299.019 223.01 295.278 224.79 291.11 225.221C285.735 225.777 279.648 225.73 279.648 225.73Z" fill="url(#paint44_linear_1453_6687)"/>
<path d="M270.903 248.764C272.546 247.635 274.363 246.783 276.288 246.259C277.012 246.062 280.917 247.197 283.331 247.142C286.645 247.066 290.018 245.557 292.75 246.238C295.463 246.914 297.684 247.797 298.966 248.709C302.804 251.439 305.058 256.529 306.431 261.572C303.831 264.241 300.559 265.427 300.559 265.427L299.954 289.935L285.462 297.35L268.921 289.045L269.513 265.095C269.513 265.095 264.261 262.649 263.875 261.759C263.49 260.87 266.269 251.95 270.903 248.764Z" fill="url(#paint45_linear_1453_6687)"/>
<path d="M264.123 261.652C264.123 261.652 257.084 281.166 273.135 289.187C276.468 288.744 275.186 283.209 275.186 283.209C275.186 283.209 268.211 281.666 270.306 265.387C268.378 263.801 264.123 261.652 264.123 261.652Z" fill="url(#paint46_linear_1453_6687)"/>
<path d="M306.094 261.652C306.094 261.652 310.938 282.023 297.082 289.187C293.749 288.744 295.031 283.209 295.031 283.209C295.031 283.209 300.652 280.441 299.911 265.387C301.839 263.801 306.094 261.652 306.094 261.652Z" fill="url(#paint47_linear_1453_6687)"/>
<path d="M298.235 290.557H271.005C269.754 290.557 268.73 289.534 268.73 288.283V271.37C268.73 270.119 269.754 269.095 271.005 269.095H298.235C299.486 269.095 300.51 270.119 300.51 271.37V288.283C300.51 289.534 299.486 290.557 298.235 290.557Z" fill="url(#paint48_linear_1453_6687)"/>
<path d="M286.494 274.907C286.662 276.046 286.052 277.08 284.913 277.248C283.775 277.417 282.715 276.63 282.547 275.492C282.378 274.353 282.899 273.222 284.038 273.054C285.177 272.885 286.325 273.769 286.494 274.907Z" fill="#4042E2"/>
<path d="M314.45 296.92C310.813 296.085 302.408 296.534 302.408 296.534L302.066 297.46L301.5 302.062C301.5 302.062 309.505 303.505 313.451 303.501C313.853 303.501 314.222 303.441 314.558 303.336C314.678 303.228 314.796 303.116 314.907 302.995C316.581 301.166 316.097 298.48 314.45 296.92Z" fill="#4042E2"/>
<path d="M299.992 296.275L301.416 296.335C302.18 296.368 302.901 296.741 303.415 297.369C303.929 297.998 304.194 298.829 304.149 299.677C304.113 300.353 303.836 300.984 303.378 301.432C302.921 301.881 302.322 302.108 301.713 302.065L299.535 301.91L299.992 296.275Z" fill="url(#paint49_linear_1453_6687)"/>
<path d="M252.13 296.477C255.787 295.754 264.178 296.461 264.178 296.461L264.497 297.397L264.948 302.014C264.948 302.014 256.91 303.211 252.966 303.087C252.563 303.074 252.197 303.002 251.863 302.887C251.746 302.776 251.631 302.66 251.523 302.535C249.895 300.656 250.445 297.986 252.13 296.477Z" fill="#4042E2"/>
<path d="M266.601 296.276L265.176 296.293C264.411 296.302 263.681 296.652 263.152 297.265C262.622 297.878 262.337 298.701 262.361 299.549C262.38 300.225 262.641 300.866 263.087 301.328C263.533 301.79 264.126 302.036 264.736 302.011L266.917 301.923L266.601 296.276Z" fill="url(#paint50_linear_1453_6687)"/>
<path d="M315.467 282.493C313.818 278.697 309.784 278.081 306.35 279.855C306.291 279.934 284.547 291.078 265.371 295.962C265.92 297.722 266.202 299.595 266.264 301.435C266.275 301.845 266.268 302.25 266.244 302.649C280.949 301.893 296.908 296.989 310.622 292.68C314.874 291.308 317.295 286.7 315.467 282.493Z" fill="#4042E2"/>
<path d="M300.095 301.724C300.038 299.602 300.45 297.627 301.333 295.798C301.358 295.715 301.388 295.634 301.415 295.551C300.32 295.212 298.905 294.753 297.047 294.122C283.43 289.462 273.042 284.757 263.128 279.341C259.277 277.236 254.897 278.647 253.665 283.204C252.564 287.272 255.062 290.525 258.649 291.966C270.982 296.92 289.097 301.445 300.118 302.185C300.11 302.031 300.101 301.877 300.095 301.724Z" fill="#4042E2"/>
<path d="M276.289 246.259C276.289 246.259 277.753 252.605 284.863 252.473C292.105 252.342 292.75 246.238 292.75 246.238L288.02 245.226L287.625 239.955L280.509 240.483L280.377 245.49L276.289 246.259Z" fill="url(#paint51_linear_1453_6687)"/>
<path d="M281.51 225.021C281.51 225.021 273.355 240.817 283.028 244.649C289.851 247.352 294.129 234.159 292.853 230.586C290.88 225.061 289.581 225.717 289.581 225.717L281.51 225.021Z" fill="url(#paint52_linear_1453_6687)"/>
<path d="M296.625 220.78C300.994 219.786 297.961 233.302 291.456 231.086C284.952 228.871 281.921 227.51 280.907 229.296C279.894 231.082 278.205 238.388 277.643 234.6C277.119 231.059 276.611 224.57 280.029 223.154C281.969 222.35 283.676 224.093 285.014 223.657C287.073 222.985 289.056 222.962 290.28 223.668C292.595 225.002 293.848 221.412 296.625 220.78Z" fill="url(#paint53_linear_1453_6687)"/>
<path d="M280.181 231.923C280.181 231.923 278.771 229.794 278.128 231.973C277.485 234.153 277.893 237.164 279.186 235.765C280.479 234.365 280.181 231.923 280.181 231.923Z" fill="url(#paint54_linear_1453_6687)"/>
<path d="M167.035 96.5184C166.993 96.502 144.142 56.4855 141.054 52.7198C140.535 52.0865 139.731 51.7638 138.917 51.8607L132.539 52.6207L125.047 68.83L137.53 61.5603C136.294 70.1028 152.33 82.7979 157.83 87.4303C158.388 87.9005 158.433 88.7425 157.929 89.2702L155.734 91.5684C159.338 95.2222 163.498 97.5683 168.192 98.6534L167.035 96.5184Z" fill="url(#paint55_linear_1453_6687)"/>
<path d="M157.004 90.3281C157.004 90.3281 155.602 90.7809 155.128 92.0288C154.901 92.6259 155.146 93.3023 155.665 93.6743C157.972 95.3274 165.583 100.664 169.095 101.71C169.383 101.795 169.657 101.535 169.592 101.242C169.412 100.426 168.829 98.7964 166.951 96.4112L167.12 96.752C167.333 97.1834 166.863 97.6326 166.444 97.396C164.095 96.0696 159.31 93.1673 157.004 90.3281Z" fill="url(#paint56_linear_1453_6687)"/>
<path d="M158.133 106.34C158.095 106.315 154.666 98.0554 154.628 98.0307C151.485 78.8928 143.816 62.5024 141.554 58.1896C141.173 57.4642 140.451 56.9856 139.635 56.9159L133.235 56.3696L122.617 70.7272L136.313 66.134C133.374 74.2498 146.509 89.9275 150.957 95.5768C151.409 96.1502 151.283 96.9842 150.683 97.3988L148.068 99.2053C150.858 103.513 154.457 106.652 158.834 108.665L158.133 106.34Z" fill="url(#paint57_linear_1453_6687)"/>
<path d="M149.562 98.2476C149.562 98.2476 148.098 98.4072 147.381 99.5334C147.038 100.072 147.141 100.784 147.574 101.254C149.499 103.339 155.872 110.106 159.1 111.841C159.365 111.983 159.686 111.783 159.682 111.483C159.67 110.647 159.429 108.934 158.072 106.218L158.168 106.586C158.29 107.051 157.739 107.396 157.377 107.08C155.344 105.305 151.246 101.495 149.562 98.2476Z" fill="url(#paint58_linear_1453_6687)"/>
<path d="M103.279 53.3456C103.279 53.3456 97.4894 61.9565 97.0144 65.8846C96.5395 69.8124 98.6153 71.1709 104.675 71.6718C122.707 73.1626 131.596 67.7581 131.596 67.7581C132.83 59.893 133.707 57.8923 144.01 53.6158C144.01 53.6158 130.979 54.6505 128.357 53.6329C125.734 52.615 103.279 53.3456 103.279 53.3456Z" fill="#4042E2"/>
<path d="M126.364 5.10131C126.364 5.10131 122.331 0.330323 118.044 6.18372C117.268 7.24394 114.286 6.36917 113.193 8.58828C112.628 9.73393 111.409 10.3849 110.153 10.1533C107.025 9.57629 101.912 9.52763 99.3874 14.4298C97.4603 18.1715 98.9482 20.3612 100.874 21.6096C102.289 22.5265 102.794 24.3882 101.939 25.8408C101.118 27.2343 100.964 29.121 103.083 31.3919C107.831 36.4807 117.23 28.1624 117.23 28.1624L124.692 10.5282L126.364 5.10131Z" fill="url(#paint59_linear_1453_6687)"/>
<path d="M118.935 52.2056C118.935 52.2056 125.676 45.786 128.995 41.5342C130.789 39.2357 131.352 36.21 130.523 33.415C129.008 28.3104 126.315 23.0236 126.07 22.2007C125.693 20.9393 118.134 20.9918 118.134 20.9918C118.134 20.9918 103.258 30.6461 97.4141 46.9994L103.978 49.0429C103.978 49.0429 107.862 42.5269 111.699 38.3842C111.699 38.3842 105.059 47.1564 104.825 50.7474L118.935 52.2056Z" fill="url(#paint60_linear_1453_6687)"/>
<path d="M131.781 54.739L126.715 49.2274L120.865 50.8027C120.865 50.8027 114.044 51.8593 110.141 50.8027C106.237 49.746 106.237 49.746 106.237 49.746L97.415 46.9995L96.0294 50.915C95.6776 51.9091 96.031 53.0128 96.8908 53.6236C97.6541 54.1659 98.5486 54.7619 99.1188 55.0115C100.281 55.5196 125.88 55.172 125.88 55.172L131.781 54.739Z" fill="url(#paint61_linear_1453_6687)"/>
<path d="M123.331 11.9031L118.25 21.3506C118.585 23.413 123.78 23.4711 124.582 22.2397C124.664 22.1144 124.711 21.9695 124.742 21.8231L127.781 15.5105C127.911 14.8949 126.224 12.8207 125.668 12.5251L123.649 11.4501C122.871 11.0361 126.116 11.0036 123.331 11.9031Z" fill="url(#paint62_linear_1453_6687)"/>
<path d="M133.611 9.68565C133.611 9.68565 134.185 12.8775 131.676 16.9361C129.167 20.9944 126.669 20.8112 125.4 19.3637C124.131 17.9165 122.61 15.5059 123.302 11.4581C123.994 7.41026 132.745 5.6152 133.611 9.68565Z" fill="url(#paint63_linear_1453_6687)"/>
<path d="M126.339 11.898C126.339 11.898 130.401 6.56212 133.52 11.2136L133.467 12.8205C133.467 12.8205 137.523 12.6308 137.083 8.8929C136.644 5.15478 133.332 2.60111 128.742 3.87817C124.152 5.15523 121.47 6.60989 120.951 9.79682C120.433 12.9838 123.035 12.4633 123.035 12.4633C123.035 12.4633 124.029 10.2641 125.229 10.1141C126.43 9.96388 125.996 11.7033 125.996 11.7033L126.339 11.898Z" fill="url(#paint64_linear_1453_6687)"/>
<path d="M125.405 11.7557C125.405 11.7557 127.509 9.02508 125.594 8.4582C123.678 7.89154 123.75 11.1339 123.875 12.3401L125.405 11.7557Z" fill="url(#paint65_linear_1453_6687)"/>
<path d="M115.014 56.9204C115.032 56.9213 115.05 56.9217 115.068 56.9217L138.368 56.8964C138.944 56.8959 139.411 56.4286 139.41 55.8525C139.409 55.2762 138.94 54.8004 138.366 54.8107L115.065 54.8361C114.489 54.8365 114.023 55.304 114.023 55.8799C114.024 56.4378 114.463 56.8932 115.014 56.9204Z" fill="url(#paint66_linear_1453_6687)"/>
<path d="M159.314 35.7649H139.91C138.478 35.7649 137.175 36.591 136.565 37.8858L127.594 56.9078H151.709C152.631 56.9078 153.46 56.3441 153.799 55.4861L160.755 37.884C161.157 36.867 160.408 35.7649 159.314 35.7649Z" fill="url(#paint67_linear_1453_6687)"/>
<path d="M145.644 45.5181C145.224 46.8246 145.535 48.0936 146.338 48.3521C147.142 48.6107 148.134 47.7615 148.555 46.455C148.975 45.1486 148.665 43.8798 147.861 43.6211C147.057 43.3625 146.065 44.2117 145.644 45.5181Z" fill="#4042E2"/>
<path d="M191.982 256.215C191.982 256.215 190.597 247.596 194.828 244.808C195.016 244.684 195.268 244.825 195.268 245.051V246.689C195.268 247.081 195.735 247.282 196.02 247.014C196.931 246.156 198.56 244.851 200.288 244.58C200.749 244.507 201.109 244.967 200.911 245.39C199.851 247.656 197.075 254.007 197.182 258.168L191.982 256.215Z" fill="#FFD400"/>
<path d="M187.489 256.213L184.656 301.494H201.629V257.477C201.629 256.211 200.821 255.09 199.623 254.681C197.377 253.913 193.558 252.955 189.808 253.621C188.53 253.848 187.57 254.917 187.489 256.213Z" fill="#9C81FF"/>
<path d="M187.534 284.73L186.959 297.356C186.911 298.403 187.747 299.277 188.794 299.277H197.368C198.383 299.277 199.206 298.454 199.206 297.44V284.814C199.206 283.799 198.383 282.976 197.368 282.976H189.369C188.387 282.976 187.579 283.749 187.534 284.73Z" fill="#9C81FF"/>
<path d="M217.972 301.494V254.687C217.972 253.519 217.213 252.479 216.096 252.137C211.099 250.611 206.753 251.466 204.471 252.175C203.46 252.489 202.77 253.421 202.77 254.479V301.494H217.972Z" fill="url(#paint68_linear_1453_6687)"/>
<path d="M204.272 255.469L204.641 262.379C204.687 263.24 205.398 263.915 206.261 263.915H214.401C215.276 263.915 215.994 263.22 216.022 262.345L216.243 255.527C216.269 254.746 215.735 254.055 214.97 253.89C212.993 253.464 209.103 252.876 205.502 253.807C204.749 254.002 204.231 254.692 204.272 255.469Z" fill="url(#paint69_linear_1453_6687)"/>
<path d="M204.906 266.892C204.965 267.743 205.672 268.403 206.525 268.403H214.318C215.227 268.403 215.958 267.656 215.94 266.748C215.922 265.865 215.201 265.158 214.318 265.158H206.525C205.585 265.158 204.841 265.954 204.906 266.892Z" fill="url(#paint70_linear_1453_6687)"/>
<path d="M166.233 255.994L168.116 301.449H184.193L185.411 255.486C185.445 254.222 184.638 253.079 183.427 252.716C178.2 251.146 173.007 250.992 167.876 253.336C166.84 253.81 166.186 254.856 166.233 255.994Z" fill="#FFD400"/>
<path d="M167.696 257.7L167.887 260.171C167.945 260.92 168.592 261.485 169.341 261.441L182.477 260.677C183.166 260.637 183.72 260.092 183.771 259.404L183.899 257.696C183.959 256.897 183.326 256.215 182.524 256.215H169.07C168.267 256.215 167.634 256.899 167.696 257.7Z" fill="url(#paint71_linear_1453_6687)"/>
<path d="M168.238 263.606V264.508C168.238 265.205 168.818 265.761 169.514 265.732L182.097 265.207C182.753 265.18 183.271 264.64 183.271 263.983V263.027C183.271 262.328 182.688 261.771 181.989 261.803L169.407 262.382C168.753 262.413 168.238 262.951 168.238 263.606Z" fill="url(#paint72_linear_1453_6687)"/>
<path d="M259.403 92.071C277.516 91.8041 367.114 90.2353 385.503 89.9129C387.317 89.881 388.805 91.3433 388.805 93.1581V101.547C388.805 103.339 387.352 104.793 385.559 104.793H259.453C257.66 104.793 256.207 103.34 256.207 101.547V95.3164C256.207 93.5422 257.629 92.097 259.403 92.071Z" fill="#9C81FF"/>
<path d="M282.238 98.5315C282.238 100.358 283.736 101.829 285.561 101.797L358.63 100.53C360.725 100.493 362.245 98.5212 361.745 96.4857L361.413 95.1302C361.044 93.6264 359.67 92.5882 358.123 92.644L285.387 95.2672C283.63 95.3306 282.238 96.7734 282.238 98.5315Z" fill="#BDD0FB"/>
<path opacity="0.34" d="M277.461 89.824C279.198 93.4637 277.601 97.8481 273.894 99.6172C270.188 101.386 265.775 99.8694 264.038 96.23C262.301 92.5903 263.898 88.2059 267.604 86.4368C271.311 84.6678 275.724 86.1844 277.461 89.824Z" fill="url(#paint73_linear_1453_6687)"/>
<defs>
<linearGradient id="paint0_linear_1453_6687" x1="12.3986" y1="144.119" x2="473.82" y2="144.119" gradientUnits="userSpaceOnUse">
<stop stop-color="#DAE3FE"/>
<stop offset="1" stop-color="#E9EFFD"/>
</linearGradient>
<linearGradient id="paint1_linear_1453_6687" x1="233.746" y1="0.649522" x2="227.02" y2="277.757" gradientUnits="userSpaceOnUse">
<stop stop-color="#09005D"/>
<stop offset="1" stop-color="#1A0F91"/>
</linearGradient>
<linearGradient id="paint2_linear_1453_6687" x1="229.638" y1="135.417" x2="233.674" y2="271.282" gradientUnits="userSpaceOnUse">
<stop stop-color="#09005D"/>
<stop offset="1" stop-color="#1A0F91"/>
</linearGradient>
<linearGradient id="paint3_linear_1453_6687" x1="314.494" y1="204.29" x2="312.7" y2="287.708" gradientUnits="userSpaceOnUse">
<stop stop-color="#FE7062"/>
<stop offset="1" stop-color="#FF928E"/>
</linearGradient>
<linearGradient id="paint4_linear_1453_6687" x1="404.191" y1="24.7774" x2="388.993" y2="24.633" gradientUnits="userSpaceOnUse">
<stop stop-color="#09005D"/>
<stop offset="1" stop-color="#1A0F91"/>
</linearGradient>
<linearGradient id="paint5_linear_1453_6687" x1="392.95" y1="24.9819" x2="388.724" y2="52.098" gradientUnits="userSpaceOnUse">
<stop stop-color="#FF928E"/>
<stop offset="1" stop-color="#FEB3B1"/>
</linearGradient>
<linearGradient id="paint6_linear_1453_6687" x1="428.564" y1="34.8534" x2="410.639" y2="34.6831" gradientUnits="userSpaceOnUse">
<stop stop-color="#09005D"/>
<stop offset="1" stop-color="#1A0F91"/>
</linearGradient>
<linearGradient id="paint7_linear_1453_6687" x1="412.919" y1="28.0951" x2="408.692" y2="55.2114" gradientUnits="userSpaceOnUse">
<stop stop-color="#FF928E"/>
<stop offset="1" stop-color="#FEB3B1"/>
</linearGradient>
<linearGradient id="paint8_linear_1453_6687" x1="324.929" y1="17.8045" x2="360.269" y2="160.555" gradientUnits="userSpaceOnUse">
<stop stop-color="#FE7062"/>
<stop offset="1" stop-color="#FF928E"/>
</linearGradient>
<linearGradient id="paint9_linear_1453_6687" x1="323.515" y1="34.3267" x2="336.521" y2="52.0418" gradientUnits="userSpaceOnUse">
<stop stop-color="#FF928E"/>
<stop offset="1" stop-color="#FEB3B1"/>
</linearGradient>
<linearGradient id="paint10_linear_1453_6687" x1="296.942" y1="57.3667" x2="324.996" y2="81.1349" gradientUnits="userSpaceOnUse">
<stop stop-color="#FF928E"/>
<stop offset="1" stop-color="#FEB3B1"/>
</linearGradient>
<linearGradient id="paint11_linear_1453_6687" x1="310.101" y1="-24.19" x2="315.07" y2="0.146107" gradientUnits="userSpaceOnUse">
<stop stop-color="#FF928E"/>
<stop offset="1" stop-color="#FEB3B1"/>
</linearGradient>
<linearGradient id="paint12_linear_1453_6687" x1="321.07" y1="10.5652" x2="316.34" y2="33.2965" gradientUnits="userSpaceOnUse">
<stop stop-color="#09005D"/>
<stop offset="1" stop-color="#1A0F91"/>
</linearGradient>
<linearGradient id="paint13_linear_1453_6687" x1="314.686" y1="-25.1259" x2="319.656" y2="-0.789677" gradientUnits="userSpaceOnUse">
<stop stop-color="#FF928E"/>
<stop offset="1" stop-color="#FEB3B1"/>
</linearGradient>
<linearGradient id="paint14_linear_1453_6687" x1="345.741" y1="26.8049" x2="335.875" y2="47.6594" gradientUnits="userSpaceOnUse">
<stop stop-color="#FE7062"/>
<stop offset="1" stop-color="#FF928E"/>
</linearGradient>
<linearGradient id="paint15_linear_1453_6687" x1="635.918" y1="190.425" x2="591.934" y2="169.823" gradientUnits="userSpaceOnUse">
<stop stop-color="#E1473D"/>
<stop offset="1" stop-color="#E9605A"/>
</linearGradient>
<linearGradient id="paint16_linear_1453_6687" x1="633.536" y1="195.513" x2="589.551" y2="174.911" gradientUnits="userSpaceOnUse">
<stop stop-color="#E1473D"/>
<stop offset="1" stop-color="#E9605A"/>
</linearGradient>
<linearGradient id="paint17_linear_1453_6687" x1="303.062" y1="50.143" x2="331.116" y2="73.9109" gradientUnits="userSpaceOnUse">
<stop stop-color="#FF928E"/>
<stop offset="1" stop-color="#FEB3B1"/>
</linearGradient>
<linearGradient id="paint18_linear_1453_6687" x1="308.607" y1="40.8782" x2="301.431" y2="59.4903" gradientUnits="userSpaceOnUse">
<stop stop-color="#09005D"/>
<stop offset="1" stop-color="#1A0F91"/>
</linearGradient>
<linearGradient id="paint19_linear_1453_6687" x1="298.055" y1="54.3208" x2="293.696" y2="54.2794" gradientUnits="userSpaceOnUse">
<stop stop-color="#FF928E"/>
<stop offset="1" stop-color="#FEB3B1"/>
</linearGradient>
<linearGradient id="paint20_linear_1453_6687" x1="99.5707" y1="262.933" x2="114.819" y2="235.127" gradientUnits="userSpaceOnUse">
<stop stop-color="#FF928E"/>
<stop offset="1" stop-color="#FEB3B1"/>
</linearGradient>
<linearGradient id="paint21_linear_1453_6687" x1="101.748" y1="296.367" x2="106.681" y2="268.785" gradientUnits="userSpaceOnUse">
<stop stop-color="#FF928E"/>
<stop offset="1" stop-color="#FEB3B1"/>
</linearGradient>
<linearGradient id="paint22_linear_1453_6687" x1="79.1769" y1="222.211" x2="81.1853" y2="209.323" gradientUnits="userSpaceOnUse">
<stop stop-color="#FF928E"/>
<stop offset="1" stop-color="#FEB3B1"/>
</linearGradient>
<linearGradient id="paint23_linear_1453_6687" x1="363.469" y1="-110.067" x2="350.392" y2="-95.2064" gradientUnits="userSpaceOnUse">
<stop stop-color="#FF928E"/>
<stop offset="1" stop-color="#FEB3B1"/>
</linearGradient>
<linearGradient id="paint24_linear_1453_6687" x1="359.213" y1="-113.812" x2="346.136" y2="-98.9521" gradientUnits="userSpaceOnUse">
<stop stop-color="#FF928E"/>
<stop offset="1" stop-color="#FEB3B1"/>
</linearGradient>
<linearGradient id="paint25_linear_1453_6687" x1="78.8415" y1="224.832" x2="70.096" y2="252.414" gradientUnits="userSpaceOnUse">
<stop stop-color="#FF928E"/>
<stop offset="1" stop-color="#FEB3B1"/>
</linearGradient>
<linearGradient id="paint26_linear_1453_6687" x1="66.9324" y1="240.641" x2="90.3272" y2="248.314" gradientUnits="userSpaceOnUse">
<stop stop-color="#09005D"/>
<stop offset="1" stop-color="#1A0F91"/>
</linearGradient>
<linearGradient id="paint27_linear_1453_6687" x1="99.0704" y1="225.301" x2="115.918" y2="243.108" gradientUnits="userSpaceOnUse">
<stop stop-color="#09005D"/>
<stop offset="1" stop-color="#1A0F91"/>
</linearGradient>
<linearGradient id="paint28_linear_1453_6687" x1="30.7187" y1="250.982" x2="156.315" y2="250.982" gradientUnits="userSpaceOnUse">
<stop stop-color="#DAE3FE"/>
<stop offset="1" stop-color="#E9EFFD"/>
</linearGradient>
<linearGradient id="paint29_linear_1453_6687" x1="395.82" y1="232.712" x2="427.391" y2="282.902" gradientUnits="userSpaceOnUse">
<stop stop-color="#09005D"/>
<stop offset="1" stop-color="#1A0F91"/>
</linearGradient>
<linearGradient id="paint30_linear_1453_6687" x1="355.527" y1="269.651" x2="373.246" y2="269.651" gradientUnits="userSpaceOnUse">
<stop stop-color="#FE7062"/>
<stop offset="1" stop-color="#FF928E"/>
</linearGradient>
<linearGradient id="paint31_linear_1453_6687" x1="340.152" y1="301.221" x2="356.366" y2="301.221" gradientUnits="userSpaceOnUse">
<stop stop-color="#FE7062"/>
<stop offset="1" stop-color="#FF928E"/>
</linearGradient>
<linearGradient id="paint32_linear_1453_6687" x1="354.153" y1="272.942" x2="373.244" y2="272.942" gradientUnits="userSpaceOnUse">
<stop stop-color="#FF928E"/>
<stop offset="1" stop-color="#FEB3B1"/>
</linearGradient>
<linearGradient id="paint33_linear_1453_6687" x1="337.719" y1="304.724" x2="352.378" y2="304.724" gradientUnits="userSpaceOnUse">
<stop stop-color="#FF928E"/>
<stop offset="1" stop-color="#FEB3B1"/>
</linearGradient>
<linearGradient id="paint34_linear_1453_6687" x1="379.75" y1="240.528" x2="410.144" y2="240.528" gradientUnits="userSpaceOnUse">
<stop stop-color="#FF928E"/>
<stop offset="1" stop-color="#FEB3B1"/>
</linearGradient>
<linearGradient id="paint35_linear_1453_6687" x1="422.368" y1="221.792" x2="420.631" y2="206.153" gradientUnits="userSpaceOnUse">
<stop stop-color="#FF928E"/>
<stop offset="1" stop-color="#FEB3B1"/>
</linearGradient>
<linearGradient id="paint36_linear_1453_6687" x1="418.046" y1="186.174" x2="413.113" y2="210.392" gradientUnits="userSpaceOnUse">
<stop stop-color="#E1473D"/>
<stop offset="1" stop-color="#E9605A"/>
</linearGradient>
<linearGradient id="paint37_linear_1453_6687" x1="431.361" y1="188.887" x2="426.428" y2="213.105" gradientUnits="userSpaceOnUse">
<stop stop-color="#E1473D"/>
<stop offset="1" stop-color="#E9605A"/>
</linearGradient>
<linearGradient id="paint38_linear_1453_6687" x1="442.924" y1="191.242" x2="437.991" y2="215.46" gradientUnits="userSpaceOnUse">
<stop stop-color="#E1473D"/>
<stop offset="1" stop-color="#E9605A"/>
</linearGradient>
<linearGradient id="paint39_linear_1453_6687" x1="375.457" y1="232.597" x2="388.44" y2="232.597" gradientUnits="userSpaceOnUse">
<stop stop-color="#09005D"/>
<stop offset="1" stop-color="#1A0F91"/>
</linearGradient>
<linearGradient id="paint40_linear_1453_6687" x1="405.946" y1="262.673" x2="404.042" y2="245.533" gradientUnits="userSpaceOnUse">
<stop stop-color="#FF928E"/>
<stop offset="1" stop-color="#FEB3B1"/>
</linearGradient>
<linearGradient id="paint41_linear_1453_6687" x1="422.711" y1="200.115" x2="409.033" y2="208.86" gradientUnits="userSpaceOnUse">
<stop stop-color="#FF928E"/>
<stop offset="1" stop-color="#FEB3B1"/>
</linearGradient>
<linearGradient id="paint42_linear_1453_6687" x1="399.14" y1="216.461" x2="428.602" y2="192.199" gradientUnits="userSpaceOnUse">
<stop stop-color="#E1473D"/>
<stop offset="1" stop-color="#E9605A"/>
</linearGradient>
<linearGradient id="paint43_linear_1453_6687" x1="418.254" y1="212.971" x2="422.509" y2="199.94" gradientUnits="userSpaceOnUse">
<stop stop-color="#FF928E"/>
<stop offset="1" stop-color="#FEB3B1"/>
</linearGradient>
<linearGradient id="paint44_linear_1453_6687" x1="291.306" y1="222.057" x2="277.792" y2="243.917" gradientUnits="userSpaceOnUse">
<stop stop-color="#09005D"/>
<stop offset="1" stop-color="#1A0F91"/>
</linearGradient>
<linearGradient id="paint45_linear_1453_6687" x1="284.578" y1="244.685" x2="288.734" y2="370.418" gradientUnits="userSpaceOnUse">
<stop stop-color="#FE7062"/>
<stop offset="1" stop-color="#FF928E"/>
</linearGradient>
<linearGradient id="paint46_linear_1453_6687" x1="260.526" y1="256.406" x2="288.065" y2="322.928" gradientUnits="userSpaceOnUse">
<stop stop-color="#A22B25"/>
<stop offset="1" stop-color="#C0423C"/>
</linearGradient>
<linearGradient id="paint47_linear_1453_6687" x1="309.345" y1="256.263" x2="281.806" y2="322.785" gradientUnits="userSpaceOnUse">
<stop stop-color="#A22B25"/>
<stop offset="1" stop-color="#C0423C"/>
</linearGradient>
<linearGradient id="paint48_linear_1453_6687" x1="284.985" y1="265.047" x2="283.558" y2="322.851" gradientUnits="userSpaceOnUse">
<stop stop-color="#09005D"/>
<stop offset="1" stop-color="#1A0F91"/>
</linearGradient>
<linearGradient id="paint49_linear_1453_6687" x1="311.449" y1="272.754" x2="295.564" y2="315.781" gradientUnits="userSpaceOnUse">
<stop stop-color="#A22B25"/>
<stop offset="1" stop-color="#C0423C"/>
</linearGradient>
<linearGradient id="paint50_linear_1453_6687" x1="279.623" y1="259.787" x2="263.73" y2="302.837" gradientUnits="userSpaceOnUse">
<stop stop-color="#A22B25"/>
<stop offset="1" stop-color="#C0423C"/>
</linearGradient>
<linearGradient id="paint51_linear_1453_6687" x1="284.7" y1="261.898" x2="284.333" y2="230.017" gradientUnits="userSpaceOnUse">
<stop stop-color="#C4421B"/>
<stop offset="1" stop-color="#5C0E16"/>
</linearGradient>
<linearGradient id="paint52_linear_1453_6687" x1="283.639" y1="244.201" x2="289.226" y2="217.003" gradientUnits="userSpaceOnUse">
<stop stop-color="#A22B25"/>
<stop offset="1" stop-color="#C0423C"/>
</linearGradient>
<linearGradient id="paint53_linear_1453_6687" x1="290.754" y1="221.699" x2="277.359" y2="243.367" gradientUnits="userSpaceOnUse">
<stop stop-color="#09005D"/>
<stop offset="1" stop-color="#1A0F91"/>
</linearGradient>
<linearGradient id="paint54_linear_1453_6687" x1="278.019" y1="247.24" x2="281.138" y2="203.842" gradientUnits="userSpaceOnUse">
<stop stop-color="#A22B25"/>
<stop offset="1" stop-color="#C0423C"/>
</linearGradient>
<linearGradient id="paint55_linear_1453_6687" x1="153.125" y1="71.4202" x2="129.355" y2="107.747" gradientUnits="userSpaceOnUse">
<stop stop-color="#FF928E"/>
<stop offset="1" stop-color="#FEB3B1"/>
</linearGradient>
<linearGradient id="paint56_linear_1453_6687" x1="167.802" y1="83.5562" x2="151.575" y2="122.831" gradientUnits="userSpaceOnUse">
<stop stop-color="#09005D"/>
<stop offset="1" stop-color="#1A0F91"/>
</linearGradient>
<linearGradient id="paint57_linear_1453_6687" x1="125.095" y1="42.6461" x2="142.137" y2="91.5309" gradientUnits="userSpaceOnUse">
<stop stop-color="#FF928E"/>
<stop offset="1" stop-color="#FEB3B1"/>
</linearGradient>
<linearGradient id="paint58_linear_1453_6687" x1="161.508" y1="93.8027" x2="137.669" y2="128.976" gradientUnits="userSpaceOnUse">
<stop stop-color="#09005D"/>
<stop offset="1" stop-color="#1A0F91"/>
</linearGradient>
<linearGradient id="paint59_linear_1453_6687" x1="98.4883" y1="18.1545" x2="126.364" y2="18.1545" gradientUnits="userSpaceOnUse">
<stop stop-color="#09005D"/>
<stop offset="1" stop-color="#1A0F91"/>
</linearGradient>
<linearGradient id="paint60_linear_1453_6687" x1="131.347" y1="23.7283" x2="46.4221" y2="105.647" gradientUnits="userSpaceOnUse">
<stop stop-color="#FE7062"/>
<stop offset="1" stop-color="#FF928E"/>
</linearGradient>
<linearGradient id="paint61_linear_1453_6687" x1="79.7991" y1="66.4373" x2="113.884" y2="51.1888" gradientUnits="userSpaceOnUse">
<stop stop-color="#FF928E"/>
<stop offset="1" stop-color="#FEB3B1"/>
</linearGradient>
<linearGradient id="paint62_linear_1453_6687" x1="126.267" y1="9.75823" x2="118.195" y2="31.2844" gradientUnits="userSpaceOnUse">
<stop stop-color="#FF928E"/>
<stop offset="1" stop-color="#FEB3B1"/>
</linearGradient>
<linearGradient id="paint63_linear_1453_6687" x1="654.703" y1="-180.68" x2="633.348" y2="-172.791" gradientUnits="userSpaceOnUse">
<stop stop-color="#FF928E"/>
<stop offset="1" stop-color="#FEB3B1"/>
</linearGradient>
<linearGradient id="paint64_linear_1453_6687" x1="120.883" y1="8.18281" x2="137.117" y2="8.18281" gradientUnits="userSpaceOnUse">
<stop stop-color="#09005D"/>
<stop offset="1" stop-color="#1A0F91"/>
</linearGradient>
<linearGradient id="paint65_linear_1453_6687" x1="653.125" y1="-184.947" x2="631.771" y2="-177.058" gradientUnits="userSpaceOnUse">
<stop stop-color="#FF928E"/>
<stop offset="1" stop-color="#FEB3B1"/>
</linearGradient>
<linearGradient id="paint66_linear_1453_6687" x1="111.061" y1="50.7295" x2="129.557" y2="56.7959" gradientUnits="userSpaceOnUse">
<stop stop-color="#09005D"/>
<stop offset="1" stop-color="#1A0F91"/>
</linearGradient>
<linearGradient id="paint67_linear_1453_6687" x1="159.785" y1="47.7076" x2="-9.06076" y2="33.5018" gradientUnits="userSpaceOnUse">
<stop stop-color="#09005D"/>
<stop offset="1" stop-color="#1A0F91"/>
</linearGradient>
<linearGradient id="paint68_linear_1453_6687" x1="202.769" y1="276.39" x2="217.972" y2="276.39" gradientUnits="userSpaceOnUse">
<stop stop-color="#E1473D"/>
<stop offset="1" stop-color="#E9605A"/>
</linearGradient>
<linearGradient id="paint69_linear_1453_6687" x1="212.582" y1="250.645" x2="231.081" y2="188.421" gradientUnits="userSpaceOnUse">
<stop stop-color="#E1473D"/>
<stop offset="1" stop-color="#E9605A"/>
</linearGradient>
<linearGradient id="paint70_linear_1453_6687" x1="215.004" y1="251.365" x2="233.503" y2="189.14" gradientUnits="userSpaceOnUse">
<stop stop-color="#E1473D"/>
<stop offset="1" stop-color="#E9605A"/>
</linearGradient>
<linearGradient id="paint71_linear_1453_6687" x1="177.137" y1="227.212" x2="176.465" y2="242.46" gradientUnits="userSpaceOnUse">
<stop stop-color="#E1473D"/>
<stop offset="1" stop-color="#E9605A"/>
</linearGradient>
<linearGradient id="paint72_linear_1453_6687" x1="177.368" y1="227.222" x2="176.695" y2="242.471" gradientUnits="userSpaceOnUse">
<stop stop-color="#E1473D"/>
<stop offset="1" stop-color="#E9605A"/>
</linearGradient>
<linearGradient id="paint73_linear_1453_6687" x1="264.038" y1="96.2297" x2="277.461" y2="89.8241" gradientUnits="userSpaceOnUse">
<stop stop-color="#DAE3FE"/>
<stop offset="1" stop-color="#E9EFFD"/>
</linearGradient>
</defs>
</svg>
